<svg version="1.1" xmlns="http://www.w3.org/2000/svg" viewBox="0 0 1000 1130" width="1000" height="1130">
  <!-- svg-source:excalidraw -->
  
  <defs>
    <style>
      @font-face {
        font-family: "Virgil";
        src: url("https://excalidraw.com/Virgil.woff2");
      }
      @font-face {
        font-family: "Cascadia";
        src: url("https://excalidraw.com/Cascadia.woff2");
      }
    </style>
  </defs>
  <rect x="0" y="0" width="1000" height="1130" fill="#ffffff"></rect><g stroke-linecap="round" transform="translate(290 830) rotate(0 20 20)"><path d="M3.68 8.5 C3.68 8.5, 3.68 8.5, 3.68 8.5 M3.68 8.5 C3.68 8.5, 3.68 8.5, 3.68 8.5 M0.34 18.59 C1.51 16.52, 7.47 9.82, 14.89 1.47 M-0.68 17.77 C4.98 12.19, 11.82 7.09, 15.07 1.38 M2.18 22.63 C8.71 18.08, 11.36 12.27, 19.7 3.52 M2.77 22.77 C6.95 17, 11.88 10.92, 19.42 2.21 M4.66 26.72 C7.23 23.19, 13.07 14.24, 25.85 3.56 M3.06 27.89 C11.51 18.5, 20.36 7.94, 24.39 3.92 M5.95 29.42 C13.07 24.95, 18.06 18.94, 29.7 6.18 M5.26 31.71 C12.62 24.07, 18.13 15.86, 27.95 4.36 M7.07 34.57 C15.35 21.95, 27.38 12.81, 33.73 5.44 M5.98 35.32 C16.45 25.2, 26.95 13.19, 32.95 4.11 M9.13 37.23 C17.28 29.77, 22.74 22.73, 35.35 9.2 M10.71 36.29 C20.85 26.74, 29.34 15.35, 35.9 8.77 M12.86 37.99 C20.18 33.76, 25.76 27.67, 37.34 11.01 M15.29 38.97 C20.91 32.8, 25.9 24.84, 37.46 10.92 M19.09 40.68 C23.52 35.55, 30.81 26.92, 39.38 15.96 M18.42 40.2 C24.51 33.19, 32.4 24.48, 39.93 15.89 M25.45 40.11 C27.92 35.9, 33.54 30.71, 42.01 20.63 M24.36 41.05 C26.79 36.74, 30.36 32.01, 39.21 21.78 M4.07 33.43 C4.07 33.43, 4.07 33.43, 4.07 33.43 M4.07 33.43 C4.07 33.43, 4.07 33.43, 4.07 33.43 M17.62 37.51 C12.25 34.86, 8.33 30.44, 1.03 24.48 M15.98 39.09 C11.2 35.17, 8.46 31.24, 1.41 25.86 M19.64 37.4 C14.92 34.83, 14.54 30.36, -1.56 20.99 M20.69 37.15 C17.41 33.73, 11.83 30.89, -0.14 18.79 M25.41 37.65 C19.43 27.95, 11.51 21.17, 1.79 16.22 M27.88 37.88 C18.73 29.94, 11.6 23.07, 1.44 16.09 M30.7 36.48 C22.55 29.24, 10.16 17.96, 3.97 10.9 M31.6 36.12 C21.59 28.1, 13.75 19.37, 4.14 12.33 M32.19 33.98 C28.01 27.49, 20.63 18.97, 5.89 6.26 M33.63 33.69 C23 22.37, 13.15 14.7, 4.77 7.74 M35.55 28.04 C28.05 20.37, 17.92 12.62, 10.26 5.99 M35.52 29.5 C26.66 20.42, 15.51 12.84, 8.63 6.27 M39.7 27.07 C31.99 19.73, 25.46 14.88, 12.46 4.41 M38.82 26.22 C27.56 17.21, 17.16 9, 12.5 3.75 M39.06 20.01 C32.83 16.62, 27.35 11.35, 15.93 0.25 M39.29 20.28 C32.38 15.39, 25.6 8.66, 15.91 1.65 M37.81 14.23 C29.81 9.95, 21.84 3.41, 18.84 0.08 M39.25 15.84 C31.45 11.3, 25.63 3.91, 17.89 -1.43 M39.01 12.85 C34.79 8.56, 32.93 5.88, 27.3 -0.99 M40.45 12.09 C35.6 8.1, 32.28 4.04, 26.31 0.7" stroke="#868e96" stroke-width="0.5" fill="none"></path><path d="M16.72 0.78 C20.61 -0.25, 26.8 0.9, 30.4 3.1 C34.01 5.3, 37.05 10.02, 38.36 13.97 C39.67 17.92, 39.72 22.85, 38.26 26.82 C36.81 30.79, 33.36 35.81, 29.63 37.8 C25.9 39.8, 20.09 39.48, 15.88 38.79 C11.66 38.1, 7.09 36.66, 4.36 33.68 C1.62 30.71, -0.48 25.2, -0.54 20.95 C-0.6 16.69, 0.81 11.49, 3.99 8.13 C7.17 4.77, 15.59 1.99, 18.55 0.79 C21.51 -0.42, 21.76 0.64, 21.75 0.91 M23.6 2.04 C27.29 2.75, 33.07 5.8, 35.85 8.9 C38.63 11.99, 40.51 16.35, 40.29 20.62 C40.07 24.88, 37.75 31.47, 34.53 34.51 C31.32 37.55, 25.32 38.5, 20.97 38.85 C16.63 39.21, 11.85 38.81, 8.47 36.64 C5.08 34.48, 1.73 30.18, 0.67 25.85 C-0.39 21.53, 0.48 14.64, 2.12 10.68 C3.75 6.73, 6.53 3.91, 10.49 2.12 C14.46 0.33, 23.72 0.09, 25.89 -0.06 C28.07 -0.21, 23.65 0.72, 23.53 1.22" stroke="#000000" stroke-width="1" fill="none"></path></g><g stroke-linecap="round" transform="translate(390 830) rotate(0 20 20)"><path d="M1.27 13.03 C1.27 13.03, 1.27 13.03, 1.27 13.03 M1.27 13.03 C1.27 13.03, 1.27 13.03, 1.27 13.03 M1.53 18.49 C5.14 14.5, 9.96 9.86, 13.24 3.54 M1.73 20.26 C4.19 15.79, 6.21 13.09, 13.84 5.24 M-0.21 27.32 C6.41 20.22, 11.21 14.62, 18.8 5.78 M0.26 26.11 C6.4 18.91, 11.07 13.33, 20.72 4.49 M3.12 27.68 C11.84 21.36, 18.43 15.37, 26.58 1.82 M4.03 28.77 C12.66 18.93, 20.9 8.47, 25.52 3.13 M6.15 34.38 C11.84 28.1, 15.34 21.22, 27.98 5.42 M5.02 32.66 C13.6 22.25, 23.31 12.43, 29.77 5.79 M8.19 36.75 C14.31 30.01, 20.84 22.04, 33.09 6.63 M8.68 35.84 C13.43 28.11, 18.76 22, 32.44 6.53 M11.42 37.36 C17.87 31.01, 27.66 19.72, 34.94 9.29 M10.05 38.92 C16.14 32.96, 20.82 25.3, 36.17 8.42 M15.47 41.02 C19.82 32.76, 25.44 28.49, 36.72 15.23 M14.38 39.97 C20.98 31.23, 28.3 23.4, 38.53 13.83 M20.21 40.83 C24.43 34.81, 31.34 26.08, 40.43 19.03 M19.9 40.57 C23.98 36.05, 28.76 30.67, 38.63 19.08 M25 42.37 C30.68 35.38, 32.15 31.26, 39.54 23.76 M23.09 42.07 C29.32 34.95, 36.88 26.99, 41.8 22.25 M8.48 37.49 C8.48 37.49, 8.48 37.49, 8.48 37.49 M8.48 37.49 C8.48 37.49, 8.48 37.49, 8.48 37.49 M17.51 38.76 C12.61 34.75, 8.12 34.46, 1.18 26.44 M17.5 39.18 C11.14 34.48, 4.07 30.12, 1.82 25.07 M24.74 39.19 C15.33 35.8, 9.66 27.28, 3.22 19.56 M22.21 40.13 C17.55 34.38, 13.71 30.34, 1.66 20.15 M28.11 35.95 C18.29 30.66, 11.56 24.23, 3.7 17.67 M26.64 36.11 C17.36 29.9, 10.37 22.55, 2.58 15.74 M28.03 33.57 C21.3 26.53, 12.21 18.11, 5.05 12.51 M30.08 33.67 C21.8 27.75, 11.56 19.3, 2.63 10.84 M34.95 31.79 C24.97 23.37, 14.73 14.34, 5.19 8.3 M34.6 33.79 C23.17 23.69, 12.01 13.79, 6.1 8.19 M35.76 28.22 C32.01 24.95, 25.45 18.67, 7.27 3.83 M35.45 30.6 C28.72 23.89, 20.71 15.53, 9.27 6.31 M39.89 27.6 C29.16 19.22, 20.69 9.31, 11.49 3.65 M37.18 26.6 C30.43 19.38, 20.77 10.46, 10.18 2.79 M40.28 23.16 C34.25 16.49, 26.92 10.36, 13.5 0.87 M40.59 22.01 C34.8 18.47, 29.22 12.89, 13.11 -1.03 M40.58 19.98 C37.58 16.57, 33.21 12.43, 19.49 -0.33 M41.96 18.18 C35.14 13.87, 29.37 8.9, 19.63 -1.45" stroke="#868e96" stroke-width="0.5" fill="none"></path><path d="M24.07 1.44 C27.91 2.04, 32.8 4.69, 35.36 8.04 C37.93 11.39, 39.74 17.45, 39.49 21.55 C39.24 25.66, 36.77 29.51, 33.87 32.68 C30.97 35.85, 26.28 39.74, 22.07 40.57 C17.86 41.39, 12.24 39.9, 8.61 37.6 C4.98 35.3, 1.51 30.88, 0.29 26.77 C-0.93 22.67, -0.55 16.99, 1.31 12.98 C3.16 8.96, 6.9 4.44, 11.4 2.67 C15.91 0.9, 24.77 1.86, 28.34 2.36 C31.92 2.87, 32.83 5.62, 32.85 5.7 M29.29 1.11 C33.17 2.69, 37.15 8.57, 38.65 12.49 C40.15 16.41, 39.57 20.57, 38.28 24.63 C36.98 28.7, 34.3 34.24, 30.86 36.87 C27.43 39.51, 21.86 41.11, 17.68 40.42 C13.5 39.74, 8.88 35.95, 5.78 32.78 C2.68 29.61, -0.73 25.63, -0.9 21.4 C-1.07 17.16, 2.3 10.83, 4.77 7.38 C7.24 3.94, 9.79 1.55, 13.92 0.73 C18.06 -0.09, 26.97 2.18, 29.56 2.45 C32.14 2.72, 29.88 2.35, 29.42 2.35" stroke="#000000" stroke-width="1" fill="none"></path></g><g stroke-linecap="round" transform="translate(490 830) rotate(0 20 20)"><path d="M4.69 8.05 C4.69 8.05, 4.69 8.05, 4.69 8.05 M4.69 8.05 C4.69 8.05, 4.69 8.05, 4.69 8.05 M0.55 19.74 C5.38 12.02, 9.93 4.53, 15.58 -0.4 M0.47 18.08 C6.55 11.73, 13 4.44, 17.86 0.59 M3.2 22.22 C9.35 15.29, 15.1 10.18, 21.7 0.97 M1.89 21.7 C8.96 16.52, 15.16 8.76, 20.7 2.2 M4.59 28.4 C12.94 19.3, 16.82 13.2, 26.43 3.32 M4.94 26.15 C13.52 16.07, 21.99 6.03, 27.11 1.98 M7.8 30.46 C14.9 19.75, 22.67 12.56, 32.68 3.1 M5.97 31.46 C12.39 24.06, 19.34 15.38, 30.53 0.98 M7.75 36.82 C14.62 26.18, 23.23 14.99, 33.91 6.5 M6.41 34.68 C17.22 23.65, 26.79 12.43, 34.15 4.74 M11.8 38.88 C19.09 25.56, 29.42 15.14, 37.32 9.15 M11.37 36.57 C17.64 28.86, 24.61 20.47, 36.19 9.06 M13.91 38.33 C24.4 28.73, 32.49 21.04, 39.34 14 M13.82 38.95 C20.9 32.22, 28.45 24.22, 37.34 13.71 M19.81 40.58 C24.31 34.11, 33.04 24.07, 37.53 18.72 M19.74 40.08 C26.5 32.2, 33.31 24.94, 38.68 17.98 M24.39 37.81 C30.75 32.05, 36.58 29, 37.98 24.46 M25.54 39.76 C27.77 36.67, 31.42 32.25, 39.03 23.43 M5.4 33.42 C5.4 33.42, 5.4 33.42, 5.4 33.42 M5.4 33.42 C5.4 33.42, 5.4 33.42, 5.4 33.42 M16.42 38.16 C14.97 34.61, 8.79 32.26, 1.31 26.15 M17.87 37.97 C13.83 35.06, 6.91 29.89, 1.75 26.1 M24.19 36.22 C12.04 31.68, 3.92 21.06, 1.67 18.17 M21.99 38.42 C16.64 33.2, 11.16 28.66, 1.36 17.91 M27.99 37.2 C18.24 29.88, 9.64 20.37, 2.04 13.44 M27.86 37.32 C19.17 29.72, 10.28 21.98, 3.27 16.07 M31.13 35.61 C24.25 31.7, 20.19 24.99, 2.45 10.7 M32.56 34.58 C22.09 26.29, 11.4 18.8, 4.54 11.42 M33.44 33.48 C22.88 22.69, 13.33 16.04, 5.51 5.42 M34.92 32.31 C23.08 22.81, 11.24 11.84, 6 6.33 M37.51 30.29 C29.01 21.6, 20.17 15.58, 9.53 3.94 M37.79 28.88 C29.93 24.82, 25.56 19.22, 9.51 4.73 M40.92 27.7 C28.61 17.51, 19.54 8.19, 11.1 2.12 M40.25 25.57 C33.21 20.68, 28.83 16.22, 12.38 2.85 M41.74 22.9 C32.95 15.85, 26.99 7.2, 16.78 0.62 M43.14 23.92 C33.35 14.57, 23.04 6.01, 15.2 0.49 M42.78 17.27 C37.3 12.4, 30.89 7.05, 16.9 -1.03 M41.28 16.44 C34.92 10.95, 26.8 5.18, 17.56 -2.98 M38.94 10.27 C35.47 6.85, 31.71 3.46, 24.39 -2.55 M40.72 10.45 C35.16 7.17, 32.22 2.43, 24.86 -2.64" stroke="#868e96" stroke-width="0.5" fill="none"></path><path d="M16.28 -0.12 C20.16 -1.18, 26.66 -0.38, 30.24 1.71 C33.81 3.8, 36.17 8.36, 37.74 12.4 C39.3 16.45, 40.74 21.94, 39.64 25.96 C38.53 29.98, 34.76 34.28, 31.12 36.54 C27.47 38.79, 22.01 39.97, 17.77 39.49 C13.53 39.01, 8.55 36.91, 5.67 33.66 C2.78 30.4, 0.62 24.24, 0.47 19.96 C0.33 15.67, 1.25 11.16, 4.79 7.94 C8.33 4.71, 18.47 1.6, 21.71 0.61 C24.96 -0.37, 24.49 1.76, 24.28 2.04 M22.79 -0.76 C26.85 -0.62, 30.6 2.86, 33.5 6.12 C36.39 9.38, 39.64 14.45, 40.16 18.81 C40.67 23.16, 39.34 28.96, 36.59 32.25 C33.83 35.54, 27.85 37.45, 23.62 38.53 C19.39 39.6, 14.98 40.71, 11.2 38.7 C7.42 36.7, 2.62 30.46, 0.92 26.49 C-0.78 22.52, -0.38 18.63, 1.03 14.87 C2.43 11.11, 5.83 6.61, 9.37 3.95 C12.9 1.29, 20.31 -0.74, 22.22 -1.06 C24.13 -1.39, 21.06 1.39, 20.82 2.01" stroke="#000000" stroke-width="1" fill="none"></path></g><g stroke-linecap="round" transform="translate(590 830) rotate(0 20 20)"><path d="M9.78 3.2 C9.78 3.2, 9.78 3.2, 9.78 3.2 M9.78 3.2 C9.78 3.2, 9.78 3.2, 9.78 3.2 M2.69 14.61 C6.71 10.8, 12.14 6.18, 15.47 -0.07 M4.24 16.36 C8 12.07, 9.92 8.48, 16.99 0.36 M2.15 22.17 C11.8 16.35, 15.5 6.2, 22.23 -1.43 M4.27 21.59 C11.85 13.78, 18.26 5.64, 22.21 1.07 M2.98 27.41 C12.49 19.05, 21.15 6.43, 28.59 2.2 M4.4 29.04 C8.21 24.02, 12.82 17.74, 26.33 2.86 M5.19 32.97 C14.91 23.34, 21.77 13.23, 29.1 3.22 M6.39 30.72 C10.64 26.09, 16.08 19.7, 28.91 4.26 M9.43 34.05 C17.55 23.12, 25.04 14.7, 34.14 6.3 M9.89 33.94 C17.36 24.05, 25.86 13.91, 32.58 6.81 M13.43 36.06 C20.54 25.45, 29.4 15.54, 35.99 10.62 M10.91 37 C21.31 26.16, 32.05 14.64, 37.13 9.29 M16.73 38.43 C23.33 29.1, 30.79 22.73, 40.07 14.11 M16.48 38.92 C22.69 31.38, 28.53 23.42, 38.74 14.01 M20.1 39.81 C26.17 33.61, 28.99 31.99, 38.93 15.17 M20.14 38.74 C24.71 32.64, 30.03 26.69, 39.95 16.48 M24.81 38.41 C31.45 31.47, 39.11 26, 42.32 19.48 M25.16 39.77 C30.01 34.57, 36.41 27.88, 41.8 20.26 M11.32 37.28 C11.32 37.28, 11.32 37.28, 11.32 37.28 M11.32 37.28 C11.32 37.28, 11.32 37.28, 11.32 37.28 M18.44 37.36 C13.4 32.97, 7.13 26.84, 5.27 25.81 M19.77 39.8 C12.43 34.06, 7.37 28.95, 3.22 24.9 M22.91 38.83 C18.64 34.76, 10.98 28.24, 1.62 19.88 M25.16 37.9 C17.83 31.66, 10.66 25.41, 2.35 19.29 M26.42 36.48 C17.16 26.12, 10.55 20.36, 3.72 11.48 M28.15 36.13 C18.94 26.87, 9.58 19.12, 0.85 12.23 M32.31 34.44 C21.66 25.53, 16.68 19.69, 5.68 10.21 M32.34 33.52 C25.57 27.68, 20.25 22.96, 4.35 10.94 M34.92 31.04 C29.43 22.69, 20.67 15.94, 5.81 5.98 M35.56 31.99 C27.18 26.25, 19.74 19.7, 7.9 7.7 M36.54 28.17 C28.52 20.16, 16.89 10.84, 10.68 3.45 M36.87 27.81 C28.96 21.2, 20.75 12.18, 10.1 4.27 M39.54 25.78 C31.23 18.99, 23.7 7.94, 10.61 2.13 M38.65 24.05 C27.7 14.39, 17.31 5.26, 12.51 0.06 M41.49 18.74 C34.5 14.31, 28.68 10.36, 16.97 0.99 M39.71 19.43 C31.38 13.09, 24.34 5.87, 17.01 -1.38 M43.46 16.02 C32.41 10.84, 27.97 2.35, 24.3 -2.12 M41.65 15.56 C37.58 11.17, 32.76 7.29, 21.91 -0.82" stroke="#868e96" stroke-width="0.5" fill="none"></path><path d="M22.82 -0.1 C26.63 0.31, 31.08 4.33, 33.95 7.41 C36.82 10.5, 39.83 14.27, 40.03 18.42 C40.23 22.57, 37.82 28.72, 35.15 32.33 C32.49 35.95, 28.05 39.32, 24.05 40.12 C20.05 40.92, 14.81 39.36, 11.16 37.14 C7.51 34.92, 3.85 30.63, 2.14 26.79 C0.42 22.96, -0.35 17.99, 0.87 14.12 C2.09 10.25, 5.15 5.72, 9.45 3.58 C13.75 1.43, 23.04 1.17, 26.66 1.24 C30.28 1.31, 31.13 3.61, 31.16 4 M12.26 0.63 C16.32 -0.9, 24.55 -0.39, 28.64 1.41 C32.73 3.21, 34.72 7.75, 36.79 11.43 C38.86 15.11, 41.98 19.61, 41.04 23.49 C40.11 27.37, 34.88 31.89, 31.21 34.72 C27.54 37.56, 23.13 40.62, 19.01 40.51 C14.89 40.4, 9.47 37.1, 6.51 34.06 C3.55 31.03, 2.09 26.36, 1.25 22.33 C0.42 18.3, -0.42 13.23, 1.51 9.91 C3.44 6.58, 10.72 3.97, 12.82 2.39 C14.92 0.81, 14 0.43, 14.1 0.42" stroke="#000000" stroke-width="1" fill="none"></path></g><g stroke-linecap="round" transform="translate(690 830) rotate(0 20 20)"><path d="M4.95 6.95 C4.95 6.95, 4.95 6.95, 4.95 6.95 M4.95 6.95 C4.95 6.95, 4.95 6.95, 4.95 6.95 M-0.46 18.95 C1.74 14.1, 5.89 11.14, 15.14 1.77 M-1.42 19.63 C4.41 12.89, 9.47 8.21, 15.61 -0.41 M-0.46 22.71 C6.04 15.06, 14.44 11.07, 20.86 2.16 M0.76 24.18 C5.06 18.79, 11.58 11.91, 20.09 1.25 M2.53 25.91 C10.14 21.56, 11.69 13.82, 24.79 4.05 M2.45 27.68 C10.37 19.3, 19.08 10.2, 25.36 1.96 M3.59 32.74 C13.24 19.41, 21.58 11.37, 29.83 3.86 M4 32.17 C10.29 23.94, 17.71 17.87, 28.84 4.77 M6.96 34.12 C14.75 26.94, 22.51 20.66, 33.38 7.26 M6.14 35.18 C12.64 28.09, 20.7 20.01, 31.7 6.7 M9.36 36.45 C15.41 32.79, 22.95 25.61, 33.39 7.94 M11.36 36.49 C16.64 31.18, 21.6 24.13, 34.88 9.56 M14.07 39.92 C22.73 32.42, 27.14 24.51, 37.57 13.05 M13.94 38.42 C21.85 31.52, 27.32 22.59, 38.35 11.38 M17.51 43.46 C22.82 31.79, 30.8 26.29, 41.52 14.54 M16.56 40.74 C22.48 35.21, 29.14 29.35, 39.23 15.7 M25.84 39.45 C27.5 34.84, 30.86 34.41, 39.32 21.56 M24.9 39.47 C27.63 34.76, 32.57 30.03, 40.34 22.07 M4.6 32.82 C4.6 32.82, 4.6 32.82, 4.6 32.82 M4.6 32.82 C4.6 32.82, 4.6 32.82, 4.6 32.82 M17.09 37.09 C15.51 36.08, 11.54 34.01, 0.39 26.29 M16.89 38.64 C11.04 33.03, 5.13 28.24, 2.5 24.23 M20.71 37.92 C13.57 31.84, 8.73 25.04, -1.14 18.84 M22.52 37.26 C15.88 32.44, 11.89 27.4, 0.5 17.34 M28.61 37.43 C20.9 27.46, 12.54 21.2, 1.57 14.38 M27.78 36.47 C18.16 28.59, 11.5 23.7, 2.67 14.92 M32.85 34.77 C23.78 26.93, 11.69 18.35, 5.35 12.32 M32.49 34.8 C23.82 28.98, 16.02 21.61, 2.83 10.48 M35.77 30.66 C25.62 24.52, 19.12 20.75, 7.25 6.81 M33.99 33.09 C26.81 25.58, 18.12 17.65, 6.3 7.06 M36.69 29.24 C28.2 20.35, 18.01 11.99, 8.87 3.55 M37.87 28.33 C28.02 21.59, 18.5 14.26, 8.18 3.95 M41.2 24.18 C27.66 18.71, 19.55 7.65, 10.54 1.65 M39.22 25.82 C32.17 18.33, 22.45 10.67, 11.57 2.66 M41.11 22.68 C34.06 17.32, 28.12 12.19, 15.82 -0.82 M40.61 21.13 C33.7 14.52, 27.2 9.94, 14.03 0.35 M40.5 14.73 C35.03 8.58, 26.6 3.57, 17.31 -2.39 M40.14 15.36 C33.29 10.45, 29.79 6.33, 19.41 -1.64" stroke="#868e96" stroke-width="0.5" fill="none"></path><path d="M17.4 -0.5 C21.41 -1.42, 26.42 0.79, 29.98 3.3 C33.54 5.81, 37.27 10.6, 38.75 14.55 C40.23 18.5, 40.34 23.29, 38.86 27 C37.38 30.72, 33.74 34.73, 29.87 36.83 C26 38.94, 19.91 40.33, 15.66 39.63 C11.41 38.93, 7.08 36.06, 4.38 32.63 C1.69 29.2, -0.65 23.4, -0.51 19.07 C-0.37 14.73, 1.62 9.74, 5.23 6.62 C8.84 3.51, 18.12 1.38, 21.16 0.37 C24.2 -0.64, 23.56 0.45, 23.5 0.56 M16.67 1.05 C20.72 0.19, 28.76 0.6, 32.3 2.61 C35.84 4.62, 36.97 8.83, 37.93 13.11 C38.89 17.38, 39.55 24.3, 38.06 28.28 C36.56 32.25, 32.54 35.15, 28.97 36.93 C25.39 38.71, 21.01 39.7, 16.61 38.96 C12.22 38.23, 5.5 35.61, 2.58 32.52 C-0.33 29.43, -1.39 24.92, -0.89 20.41 C-0.39 15.9, 2.65 8.91, 5.57 5.45 C8.48 1.98, 14.35 0.41, 16.57 -0.38 C18.79 -1.18, 18.63 0.44, 18.88 0.67" stroke="#000000" stroke-width="1" fill="none"></path></g><g transform="translate(306 832.5) rotate(0 4 17.5)"><text x="4" y="25" font-family="Virgil, Segoe UI Emoji" font-size="28px" fill="#000000" text-anchor="middle" style="white-space: pre;" direction="ltr">1</text></g><g transform="translate(400 832.5) rotate(0 10 17.5)"><text x="10" y="25" font-family="Virgil, Segoe UI Emoji" font-size="28px" fill="#000000" text-anchor="middle" style="white-space: pre;" direction="ltr">2</text></g><g transform="translate(500.5 832.5) rotate(0 9.5 17.5)"><text x="9.5" y="25" font-family="Virgil, Segoe UI Emoji" font-size="28px" fill="#000000" text-anchor="middle" style="white-space: pre;" direction="ltr">3</text></g><g transform="translate(601 832.5) rotate(0 9 17.5)"><text x="9" y="25" font-family="Virgil, Segoe UI Emoji" font-size="28px" fill="#000000" text-anchor="middle" style="white-space: pre;" direction="ltr">4</text></g><g transform="translate(701.5 832.5) rotate(0 8.5 17.5)"><text x="8.5" y="25" font-family="Virgil, Segoe UI Emoji" font-size="28px" fill="#000000" text-anchor="middle" style="white-space: pre;" direction="ltr">5</text></g><g transform="translate(290 890) rotate(0 236.5 17.5)"><text x="0" y="25" font-family="Virgil, Segoe UI Emoji" font-size="28px" fill="#000000" text-anchor="start" style="white-space: pre;" direction="ltr">This is the initial set of positions</text></g><g stroke-linecap="round" transform="translate(330 710) rotate(0 30 30)"><path d="M5.55 11.45 C5.55 11.45, 5.55 11.45, 5.55 11.45 M5.55 11.45 C5.55 11.45, 5.55 11.45, 5.55 11.45 M1.35 18.87 C6.13 17.31, 11.02 12.6, 17.63 2.93 M2.47 20.97 C7.93 14.58, 12.49 8.52, 16.58 4.51 M1.03 32.52 C4.09 26.17, 8.93 18.07, 26.37 0.21 M-1.02 30.11 C5.64 23.39, 13.44 15.37, 25.25 2.45 M2.97 32.6 C9.89 22.25, 19.33 11.97, 29.57 3.95 M2.88 33.36 C11.21 24.4, 19.44 14.12, 29.57 2.33 M3.48 36.75 C16.63 26.56, 24.89 10.48, 34.85 2.7 M4.32 37.35 C10.67 29.5, 17.7 22.03, 33.75 2.97 M7.53 40.53 C18.1 25.53, 31.78 11.35, 40.73 2.78 M4.92 41.91 C13.29 33.19, 21.64 22.33, 39.69 4.2 M6.3 45.52 C17.07 34.07, 30.5 22.21, 45.87 2.27 M7.21 46.13 C17.29 34.37, 26.35 23.65, 44.18 2.86 M9.15 51.31 C18.46 37.82, 29.57 24.3, 46.48 6.02 M6.67 52.34 C19.14 38.82, 32.08 23.82, 46.28 5.79 M10.84 55.19 C22.26 39.16, 34.16 27.03, 49.54 11.6 M10.93 53.87 C24.31 36.98, 38.3 21.39, 48.59 9.84 M14.42 55.26 C31.36 39.29, 42.78 23.81, 53.54 13.07 M16.66 54.05 C23.82 43.12, 33.76 33.97, 51.97 11.57 M19.75 56.62 C29.31 43.65, 43.22 28.78, 53.84 16.02 M20.07 56.48 C29.76 45.04, 40.71 31.18, 54.89 16.32 M24.16 58.57 C31.43 47.38, 39.65 39.88, 55.26 20.28 M23.63 58.25 C31.93 47.39, 41.95 38.13, 58.05 18.93 M27.82 61.71 C36.22 49.65, 46.04 35.47, 60.16 24.43 M27.36 60.95 C34.21 51.44, 41.69 43.21, 58.43 24.25 M33.68 59.33 C41.94 50.12, 52.06 37.46, 60.38 29.3 M32.83 58.12 C42.55 49.77, 50.07 40.62, 59.22 30.61 M40.97 57.54 C48.91 50.07, 54.01 38.33, 59.89 35.45 M40.65 57.4 C47.34 49.86, 53.18 40.58, 60.52 35.32 M7.22 51.14 C7.22 51.14, 7.22 51.14, 7.22 51.14 M7.22 51.14 C7.22 51.14, 7.22 51.14, 7.22 51.14 M18.39 55.33 C14.48 53.97, 9.56 47.99, 5.1 43.18 M19.08 56.12 C16.55 52.33, 12.64 50.59, 3.17 42.7 M27.61 58.25 C17.47 52.39, 12.41 42.84, -0.9 35.77 M27.25 58.16 C20.76 53.65, 14.85 47.57, 0.8 34.12 M31.59 57.68 C21.16 46.97, 12.98 41.89, 1.2 30.98 M32.07 56.77 C20.64 46.88, 8.29 36.08, 1.73 28.79 M38.02 56.35 C23.3 43.35, 11.91 33.15, 0.56 26.78 M36.34 56.4 C29.74 48.08, 22.6 42.98, 0.95 25.66 M43.07 54.82 C34.37 48.19, 25.76 42.84, 4.84 20.25 M42.1 54.64 C34 46.49, 24.54 40.95, 2.78 22.07 M47.18 54.82 C34.91 45.66, 22.74 32.27, 3.71 15.65 M46.39 53.48 C34.98 42.74, 22.78 31.91, 4.22 17.8 M49.73 50.67 C37.64 40.27, 20.95 28.89, 4.59 11.71 M49.98 50.73 C37.1 39.75, 23.4 28.03, 6.84 12.32 M51.67 46.4 C39.22 35.42, 25.57 27.36, 6.42 7.67 M51.91 47.19 C38.92 36.12, 28.27 25.94, 8.42 8.89 M52.68 45.9 C38.68 29.81, 22.16 16.97, 11.62 7.26 M54.75 44.75 C45.45 35.89, 36.51 28.33, 11 6.51 M57.67 39.6 C39.89 26.91, 25.38 13.87, 15.84 4.75 M57.02 41.11 C44.48 29.72, 32.57 20.09, 14.62 3.93 M59.82 39.07 C48.61 29.33, 34.09 16.98, 19.77 0.22 M60.27 38.34 C47.09 28.3, 34.67 16.21, 17.06 3 M60.78 33.77 C51.1 24.12, 43.53 17.49, 20.33 -1.1 M59.26 31.66 C46.04 21.76, 33.93 10.24, 21.12 -0.04 M58.98 26.25 C49.39 19.53, 46.21 13.72, 23.68 -3.44 M58.29 26.61 C46.42 15.97, 36.67 7.44, 25.58 -1.16 M55.6 18.89 C49.56 14.09, 38.01 5.03, 33.52 -1.29 M57.17 19.86 C47.21 13.08, 38.73 5.62, 33.51 -1.35 M58.58 17.92 C53.59 13.86, 50.53 8.66, 40.75 0.15 M59.19 17.14 C52.74 11.01, 47.04 7.5, 39.91 0.96" stroke="#868e96" stroke-width="0.5" fill="none"></path><path d="M43.97 3.27 C49.31 5.79, 54.3 12.7, 56.9 18.55 C59.5 24.41, 61.33 32.4, 59.57 38.39 C57.81 44.38, 51.99 51.09, 46.33 54.49 C40.66 57.89, 32.12 59.37, 25.56 58.77 C19 58.18, 11.37 55.49, 6.97 50.93 C2.56 46.37, -0.63 38, -0.86 31.41 C-1.08 24.82, 1.62 16.52, 5.62 11.37 C9.61 6.23, 16.31 1.6, 23.11 0.55 C29.91 -0.5, 41.78 3.76, 46.4 5.08 C51.02 6.4, 51.06 7.97, 50.83 8.47 M27.97 0.73 C34.27 -0.17, 42.83 2.4, 48.14 5.92 C53.46 9.45, 58.16 15.73, 59.84 21.87 C61.53 28.01, 61.19 36.81, 58.27 42.77 C55.35 48.74, 48.15 55.15, 42.3 57.66 C36.46 60.18, 29.17 59.77, 23.2 57.86 C17.23 55.96, 10.44 51.11, 6.47 46.24 C2.5 41.37, -0.75 34.94, -0.6 28.64 C-0.46 22.33, 2.83 13.17, 7.33 8.4 C11.84 3.64, 23.39 1.48, 26.45 0.03 C29.51 -1.42, 25.54 -1.06, 25.72 -0.3" stroke="#000000" stroke-width="1" fill="none"></path></g><g transform="translate(10 570) rotate(0 63 35)"><text x="0" y="25" font-family="Virgil, Segoe UI Emoji" font-size="28px" fill="#000000" text-anchor="start" style="white-space: pre;" direction="ltr">MERGE</text><text x="0" y="60" font-family="Virgil, Segoe UI Emoji" font-size="28px" fill="#000000" text-anchor="start" style="white-space: pre;" direction="ltr">operation</text></g><g transform="translate(10 670) rotate(0 135 87.5)"><text x="0" y="18" font-family="Virgil, Segoe UI Emoji" font-size="20px" fill="#000000" text-anchor="start" style="white-space: pre;" direction="ltr">First tree:</text><text x="0" y="43" font-family="Virgil, Segoe UI Emoji" font-size="20px" fill="#000000" text-anchor="start" style="white-space: pre;" direction="ltr">  - timestamp: current time</text><text x="0" y="68" font-family="Virgil, Segoe UI Emoji" font-size="20px" fill="#000000" text-anchor="start" style="white-space: pre;" direction="ltr">  - value: 0</text><text x="0" y="93" font-family="Virgil, Segoe UI Emoji" font-size="20px" fill="#000000" text-anchor="start" style="white-space: pre;" direction="ltr">Second tree:</text><text x="0" y="118" font-family="Virgil, Segoe UI Emoji" font-size="20px" fill="#000000" text-anchor="start" style="white-space: pre;" direction="ltr">  - timestamp: -inf</text><text x="0" y="143" font-family="Virgil, Segoe UI Emoji" font-size="20px" fill="#000000" text-anchor="start" style="white-space: pre;" direction="ltr">  - value: 0</text><text x="0" y="168" font-family="Virgil, Segoe UI Emoji" font-size="20px" fill="#000000" text-anchor="start" style="white-space: pre;" direction="ltr"></text></g><g stroke-linecap="round"><g transform="translate(310 830) rotate(0 21.453810828085864 -29.487022161483765)"><path d="M-0.58 1.03 C6.8 -8.78, 36.1 -48.04, 43.48 -58.08 M1.32 0.52 C8.6 -9.73, 35.53 -50.2, 42.49 -60" stroke="#000000" stroke-width="1" fill="none"></path></g></g><g stroke-linecap="round"><g transform="translate(410 830) rotate(0 -18.998741978323096 -30.055200117719323)"><path d="M-0.52 0.66 C-7.07 -9.02, -32.23 -49.11, -38.99 -59.12 M1.41 -0.03 C-5.23 -9.96, -32.72 -50.55, -39.41 -60.77" stroke="#000000" stroke-width="1" fill="none"></path></g></g><g stroke-linecap="round" transform="translate(10 570) rotate(0 140 130)"><path d="M-2.12 -2.21 C61.72 -2.25, 126.37 -0.79, 280.26 -1.45 M0.1 -0.04 C101.17 4.08, 200.85 2.63, 278.97 -0.46 M279.24 2.97 C278.06 57.77, 278.33 115.02, 279.45 256.86 M280.37 1.07 C281.33 100.52, 281.13 197.07, 281.1 258.81 M280.23 259.06 C198.33 258.36, 114.02 258.5, 1.62 257.39 M281.24 259.5 C173.46 261.92, 65.52 264.48, 0.35 261.12 M-2.3 260.52 C-0.14 186.7, 2.94 114.68, -1.68 0.82 M1 260.83 C-2.97 161.81, -2.66 67.01, 0.86 -0.16" stroke="#000000" stroke-width="1" fill="none"></path></g><g stroke-linecap="round"><g transform="translate(350 710) rotate(0 -26.8933110432763 -71.02310969325725)"><path d="M-0.58 0.02 C-4.44 -20.51, -12.3 -98.46, -21.82 -122.14 C-31.34 -145.82, -50.89 -139.34, -57.7 -142.06 M4.29 -2.44 C1.17 -22.66, -6.28 -96.07, -16.68 -119.05 C-27.07 -142.04, -50.3 -137.65, -58.08 -140.36" stroke="#000000" stroke-width="1" fill="none"></path></g><g transform="translate(350 710) rotate(0 -26.8933110432763 -71.02310969325725)"><path d="M-36.17 -148.35 C-45.2 -139.74, -55.08 -145.2, -56.64 -141.66 M-37.09 -145.82 C-43.68 -144.08, -48.15 -142.57, -56.88 -141.43" stroke="#000000" stroke-width="1" fill="none"></path></g><g transform="translate(350 710) rotate(0 -26.8933110432763 -71.02310969325725)"><path d="M-38.28 -133.18 C-46.69 -129.84, -55.84 -140.58, -56.64 -141.66 M-39.2 -130.66 C-45.21 -133.16, -49.09 -135.89, -56.88 -141.43" stroke="#000000" stroke-width="1" fill="none"></path></g></g><g stroke-linecap="round" transform="translate(530 710) rotate(0 30 30)"><path d="M10.94 5.53 C10.94 5.53, 10.94 5.53, 10.94 5.53 M10.94 5.53 C10.94 5.53, 10.94 5.53, 10.94 5.53 M3.4 20.35 C2.73 14.17, 7.85 10.36, 15.43 4.41 M-1.26 25.68 C4.64 17.19, 8.52 14.83, 15.91 4.24 M4.61 30.84 C12.72 15.41, 20.85 6.06, 23.79 1.2 M-0.12 26.97 C11.26 20.39, 17.49 7.96, 23.53 0.78 M-0.43 36.44 C15.23 18.95, 23.96 11.49, 29.65 2.75 M1.76 35.72 C12.49 22.64, 23.74 7.43, 29.22 0.59 M3.63 39.3 C6.03 29.57, 17.68 26.75, 35.41 0.75 M4.94 38.62 C14.24 26.48, 26.45 14.59, 34.15 2.35 M7.12 42.59 C17.91 29.85, 27.99 15.36, 42.36 2.82 M2.5 41.83 C18.51 26.41, 28.39 14.65, 39.82 3.22 M8.7 48.95 C20.09 37.32, 29.95 23.33, 45.53 7.63 M5.34 45.51 C14.95 35.7, 26.01 23.09, 42.99 5.88 M12.72 47.54 C15.46 36.74, 29.64 31.27, 49.57 3.83 M11.53 46.84 C20.42 38.72, 29.5 29.79, 47.57 5.48 M12.55 54.77 C25.19 36.13, 45.36 16.89, 48.17 7.32 M13.68 52.76 C22.89 39.05, 36.31 28.85, 51.97 6.95 M19.19 53.05 C27.16 40.06, 45.22 20.68, 56.71 12.54 M15.52 54.67 C30.36 39.06, 41.69 23.7, 53.79 12.24 M18.65 57.77 C29.91 47.04, 37.31 41.29, 52.85 19.12 M21.3 55.5 C33.17 40.1, 46.99 25.06, 54.44 15 M25.95 55.62 C33.28 50.61, 37.3 38.76, 61.23 19.71 M21.77 59.92 C34.14 47.53, 42.46 39.22, 59.8 20.4 M27.05 61.71 C37.53 49.08, 45.78 35.8, 63.55 18.22 M28.14 59.6 C39.23 49.21, 48.45 38.27, 58.29 23.35 M34.35 57.48 C44.46 48.26, 59.1 35.99, 64.49 27.57 M31.52 58.96 C42.96 46.97, 52.13 36.11, 62.84 26.3 M37.83 62.32 C40.69 51.63, 46.16 45.59, 58.44 31.17 M38.14 58.93 C42.8 55.57, 47.61 47.62, 61.55 32.67 M46.26 52.92 C53.18 48.96, 59.91 42.23, 59.47 40.2 M49.86 52.31 C52.55 48.78, 55.28 43.06, 59.71 40.16 M4.76 44.83 C4.76 44.83, 4.76 44.83, 4.76 44.83 M4.76 44.83 C4.76 44.83, 4.76 44.83, 4.76 44.83 M18.67 53.63 C17.53 52.5, 15.69 44.23, 2.98 39.15 M23.58 53.45 C17.52 50.99, 12.6 47.26, 3.24 37.64 M30.46 56.01 C23.66 47.13, 10.04 42.64, 2.62 33.81 M27.08 54.23 C17.68 46.3, 10.64 37.22, 3.66 29.9 M36.52 58.62 C27.72 46.98, 21.45 43.58, -4.15 27.82 M39.58 59.85 C26.39 47.21, 16.82 37.22, -1.99 24.27 M43.14 55.75 C26.98 41.98, 13.45 26.09, 1.55 20.29 M40.59 57.11 C27.44 43.42, 16.2 31.76, -0.12 22.86 M47.45 56.46 C39 43.3, 24.25 33.98, 6.02 20.74 M46 54.1 C31.96 40.55, 19.13 30.49, 3.85 16.71 M45.28 55.59 C33.98 35.78, 14.48 27.43, 4.12 17.03 M47.86 51.15 C33.6 36.67, 19.43 24.81, 6.48 13.69 M50.5 51.62 C32.08 36.22, 18.51 17.23, 7.94 7.95 M53.76 50.78 C44.06 40.52, 34.63 33.17, 7.1 11.11 M56.92 49.38 C49.81 38.33, 35.17 25.22, 12.57 9.33 M56.78 48.32 C42.68 35.41, 33.2 27.19, 9.55 5.82 M59.66 48.69 C41.59 26.12, 27.25 12.49, 9.85 4 M60.74 44.61 C49.89 35.97, 35.14 24.74, 11.89 4.18 M57.03 39.07 C46.87 33.27, 34.62 15.54, 19.9 4.41 M62.21 40.7 C45.19 26.78, 29.45 13.42, 17.98 4.62 M60.41 32.32 C41.83 21.41, 30.84 10.48, 22.29 1.44 M60.28 34.38 C48.65 26.31, 40.46 15.55, 20.62 2.55 M61.88 31.24 C54.23 21.88, 45.09 17.39, 24.86 -0.46 M60.29 28.99 C51.43 21.36, 44.72 13.91, 26.39 1.44 M56.77 28.37 C54.81 12.8, 42.49 9.22, 33.73 3.53 M60.29 24.06 C50.94 12.82, 37.77 4.44, 33.64 -0.37 M56 17.36 C51.55 14.57, 50.81 7.37, 39.27 3.78 M55.52 15.16 C50.1 10.37, 47.82 5.99, 41.99 3.55" stroke="#868e96" stroke-width="0.5" fill="none"></path><path d="M10.91 5.57 C15.41 1.56, 25.82 0.08, 32.44 0.21 C39.06 0.34, 45.93 2.27, 50.64 6.35 C55.34 10.43, 59.53 17.83, 60.68 24.67 C61.83 31.51, 61.29 41.8, 57.54 47.38 C53.79 52.97, 44.33 56.64, 38.19 58.17 C32.05 59.71, 26.27 58.81, 20.72 56.6 C15.16 54.39, 8.4 50.35, 4.87 44.93 C1.34 39.5, -2.46 31.04, -0.47 24.06 C1.53 17.08, 12.7 6.75, 16.85 3.05 C21 -0.66, 24.4 1.15, 24.42 1.83 M34.23 -1.95 C40.33 -1.43, 47.33 5.57, 51.9 10.61 C56.48 15.64, 61.63 21.75, 61.67 28.26 C61.72 34.78, 56.22 44.28, 52.15 49.71 C48.09 55.15, 43.84 59.65, 37.27 60.89 C30.7 62.14, 18.92 60.72, 12.74 57.19 C6.57 53.66, 2.2 45.82, 0.2 39.71 C-1.8 33.6, -1.9 26.95, 0.74 20.52 C3.38 14.1, 10.11 4.89, 16.04 1.18 C21.98 -2.53, 32.79 -1.59, 36.37 -1.74 C39.95 -1.89, 37.36 -0.1, 37.53 0.28" stroke="#000000" stroke-width="1" fill="none"></path></g><g stroke-linecap="round"><g transform="translate(511.5932480812073 832.379264278617) rotate(0 20.2262328732852 -30.886063499595195)"><path d="M1.13 -0.95 C7.52 -11.61, 31.68 -52.58, 37.8 -62.94 M0.26 1.16 C7.1 -8.82, 34.11 -51.14, 40.19 -61.69" stroke="#000000" stroke-width="1" fill="none"></path></g></g><g stroke-linecap="round"><g transform="translate(610 830) rotate(0 -21.236084277276063 -30.179742859224916)"><path d="M0.51 0.93 C-6.56 -8.98, -35.72 -49.38, -42.99 -59.27 M-0.68 0.37 C-7.34 -9.93, -34.12 -51.19, -40.79 -61.29" stroke="#000000" stroke-width="1" fill="none"></path></g></g><g stroke-linecap="round" transform="translate(530 590) rotate(0 30 30)"><path d="M0.26 30.7 C0.26 30.7, 0.26 30.7, 0.26 30.7 M0.26 30.7 C0.26 30.7, 0.26 30.7, 0.26 30.7 M2.87 32.84 C14.55 23.63, 24.15 11.84, 31.9 1.27 M2.65 34.23 C10.07 26.26, 15.78 19.19, 32.1 1.55 M5.04 38.28 C18.23 24.54, 27.97 10.61, 34.14 4.89 M6.35 36.17 C13.55 28.69, 20.6 18.17, 34.24 3.1 M8.41 40.45 C13.63 33.62, 18.76 24.86, 35.8 4.29 M7.7 39.16 C19.89 27.99, 29.2 15.97, 37.81 5.31 M11.08 40.53 C20.51 33.92, 25.42 26.78, 38.79 8.9 M11.54 42.75 C21.44 31.52, 29.31 21.45, 40.74 8.73 M15.61 43.18 C24.2 34.58, 32.81 22.85, 43.5 13.38 M14.46 44.73 C24.6 32.93, 33.56 22.98, 42.67 11.88 M17.09 48.59 C24.78 36.91, 37.01 26.61, 44.21 14.91 M16.8 47.14 C26.66 36.47, 35.92 26.82, 44.39 14.56 M19.09 48.41 C24.97 44.5, 32.86 33.76, 46.31 19.15 M20.63 50.26 C29.35 38.8, 40.05 27.34, 49.03 17.8 M25.04 54.58 C30.85 41.59, 40.23 29.49, 49.05 22.29 M23.15 53.39 C31.32 44.79, 38.95 35.44, 50.88 21.91 M24.82 56.27 C36.61 46.41, 46.09 32.55, 54.83 24.99 M25.24 55.8 C34.26 48.37, 41.11 39.72, 54.58 24.4 M30.87 60.39 C37.85 50.56, 45.16 39.2, 56.57 25.66 M29.59 59.3 C36.69 49.45, 43.04 40.31, 56.56 27.33 M32.75 60.62 C38.43 52.88, 43.59 49.85, 59.7 30.25 M31.28 61.18 C39.62 53.35, 46.25 44.15, 59 30.99 M31.18 60.16 C31.18 60.16, 31.18 60.16, 31.18 60.16 M31.18 60.16 C31.18 60.16, 31.18 60.16, 31.18 60.16 M32.44 56.41 C20.03 46.23, 7.35 34.86, 0.46 27.12 M33.41 57.25 C25.21 50.8, 16.92 42.12, 0.9 29.66 M35.9 52.35 C28.81 46.52, 21.78 44.39, 4.18 25.47 M36.75 54.83 C25.53 45.02, 14.9 35.85, 4.22 27.23 M39.27 50.75 C30.68 45.36, 23.19 35.8, 6.51 22 M40.04 51.09 C27.17 41.3, 15.43 31.34, 6.75 22.77 M41.11 49.46 C31.26 39.86, 20.61 29.3, 8.77 20.05 M41.59 49.26 C33.97 41.53, 25.48 34.63, 10.83 19.73 M46.75 43.81 C38.27 38.37, 30.89 34.91, 12.03 17.79 M45.76 44.79 C34.49 35.15, 23.94 26.39, 11.79 17.14 M49.28 43.97 C40.99 34.37, 32.59 29.47, 14.64 13.54 M47.86 42.71 C36.99 32.5, 24.57 22.89, 15.47 14.96 M51.02 40.27 C44.69 33.43, 37.35 29.26, 17.16 11.16 M51.76 40.97 C41.05 31.71, 32.07 22.91, 19.2 11.41 M52.55 36.57 C44.56 28.28, 31.61 20.11, 22.92 7.99 M52.77 37.8 C41.55 28.29, 30.77 17.66, 20.32 8.93 M57.2 34.2 C45.52 24.64, 32.94 12.43, 23.75 4.85 M56.23 33.64 C43.71 24.63, 32.72 13.12, 23.93 6.22 M60.79 29.98 C48.61 22.54, 36.37 13.18, 25.73 4.1 M59.23 31.19 C53.14 25.33, 46.64 20.01, 26.59 4.26 M61.41 30.28 C50.21 20, 40.27 11.85, 29.69 1.57 M62.35 29.42 C51.62 19.83, 42.88 11.76, 28.9 0.24" stroke="#868e96" stroke-width="0.5" fill="none"></path><path d="M31.96 -0.31 C42.13 11.98, 52.51 21.76, 60.3 32.61 M31.73 -0.89 C41.19 10.69, 51.32 21.68, 60.45 31.83 M59.72 32.91 C48.98 42, 42.17 49.32, 30.62 59.28 M60.42 30.46 C51.75 38.25, 44.81 48.03, 30.96 60.54 M31.8 59.51 C20.14 49.81, 13.3 42.78, 0.96 32.88 M30.83 60.93 C24.9 52.97, 17.07 48.21, 0.22 30.72 M-0.22 31.15 C9.91 20.17, 22.31 8.2, 31.41 0.56 M-0.95 30.8 C7.26 23.18, 15.97 15.47, 30.07 0.9" stroke="#000000" stroke-width="1" fill="none"></path></g><g stroke-linecap="round"><g transform="translate(570 710) rotate(0 -3.022864083525178 -32.703816831132144)"><path d="M-0.19 0.71 C-1.24 -10.12, -4.38 -53.48, -5.34 -64.45 M-1.74 0.04 C-2.97 -11.17, -5.04 -55.49, -5.86 -66.12" stroke="#000000" stroke-width="1" fill="none"></path></g></g><g transform="translate(670 550) rotate(0 63 35)"><text x="0" y="25" font-family="Virgil, Segoe UI Emoji" font-size="28px" fill="#000000" text-anchor="start" style="white-space: pre;" direction="ltr">MODIFY</text><text x="0" y="60" font-family="Virgil, Segoe UI Emoji" font-size="28px" fill="#000000" text-anchor="start" style="white-space: pre;" direction="ltr">operation</text></g><g transform="translate(678.0011356217784 638.0209835630094) rotate(0 125 25)"><text x="0" y="18" font-family="Virgil, Segoe UI Emoji" font-size="20px" fill="#000000" text-anchor="start" style="white-space: pre;" direction="ltr">- timestamp: current time</text><text x="0" y="43" font-family="Virgil, Segoe UI Emoji" font-size="20px" fill="#000000" text-anchor="start" style="white-space: pre;" direction="ltr">- value: modify value</text></g><g stroke-linecap="round" transform="translate(670 550) rotate(0 130 70)"><path d="M1.31 -1.46 C61.86 1.41, 128.76 4.45, 256.98 0.71 M-0.62 0.45 C84.79 -0.43, 173.2 -2.57, 258.43 -0.3 M262.72 -0.8 C257.14 41.09, 262.28 81.16, 257.34 136.39 M258.71 -1.54 C257.46 39.81, 259.17 82.98, 259.48 140.69 M262.48 142.25 C169.39 141.83, 72.9 144.1, -1.48 137.27 M260.06 140.73 C197.37 139.16, 135.74 139.29, 0.27 139.61 M2.94 139.36 C1.69 88.89, 5.58 35.78, -0.18 -1.18 M-1.02 140.99 C-2.33 102.63, -3.61 66.99, -0.21 1.67" stroke="#000000" stroke-width="1" fill="none"></path></g><g stroke-linecap="round"><g transform="translate(590 610) rotate(0 35.52844359285973 -34.4916152850499)"><path d="M1.1 0.3 C7.48 -10.12, 26.37 -51.85, 38 -63.12 C49.62 -74.39, 65.51 -66.65, 70.84 -67.35 M0.22 -0.6 C7 -10.85, 28.52 -51.24, 40.27 -62.18 C52.02 -73.12, 65.68 -65.53, 70.69 -66.22" stroke="#000000" stroke-width="1" fill="none"></path></g><g transform="translate(590 610) rotate(0 35.52844359285973 -34.4916152850499)"><path d="M55.82 -63.99 C58.18 -62.43, 63.39 -64.49, 70.3 -66.75 M55.74 -62.63 C60.89 -63.36, 66.72 -64.59, 70.57 -66.08" stroke="#000000" stroke-width="1" fill="none"></path></g><g transform="translate(590 610) rotate(0 35.52844359285973 -34.4916152850499)"><path d="M57.25 -74.57 C59.16 -70.08, 63.98 -69.22, 70.3 -66.75 M57.18 -73.22 C61.82 -70.21, 67.15 -67.7, 70.57 -66.08" stroke="#000000" stroke-width="1" fill="none"></path></g></g><g stroke-linecap="round" transform="translate(430 430) rotate(0 30 30)"><path d="M0.92 19.35 C0.92 19.35, 0.92 19.35, 0.92 19.35 M0.92 19.35 C0.92 19.35, 0.92 19.35, 0.92 19.35 M2.84 23.49 C4.28 19.88, 6.88 16.3, 18.43 7.92 M2.17 24.52 C5.74 21, 9.68 15.67, 16.57 7.63 M-0.47 30.04 C7.44 23.9, 12.64 18.68, 23.49 5.12 M0.19 31.62 C6.28 24.04, 11.7 17.41, 24.35 5.17 M2.45 35.96 C10.59 26.61, 20.85 14.85, 29.83 3.99 M0.96 36.7 C8.21 30.24, 13.11 23.59, 29.25 3.79 M3.83 40.16 C17.87 27.8, 27.31 13.22, 38.18 2.95 M3.23 41.3 C10.99 31.57, 18.89 24.29, 35.76 3.29 M7.1 42.58 C17.43 32.39, 24.59 23.09, 41.17 5.2 M6.18 44.71 C12.71 36.9, 20.86 27.21, 39.55 4.98 M8.82 45.89 C21.63 31.68, 33.36 17.75, 43.18 5.14 M9.39 47.72 C17.67 35.12, 27.74 24.05, 43.21 6.13 M12.78 49.76 C20.19 38.65, 29.28 30.04, 45.77 8.43 M10.9 50.89 C25.63 34, 39.44 18.58, 47.85 8.02 M13.85 54.36 C28.81 37.02, 40.85 20.56, 51.02 8.26 M13.09 53.98 C24.9 40.47, 36.93 26.36, 52.29 10.2 M16.8 58.37 C27.9 40.73, 44.28 25.5, 54.17 12.53 M15.49 56.05 C25.46 44.16, 35.36 32.67, 55.77 11.7 M18.84 59.44 C34.41 40.14, 46.72 24.32, 59.02 17.2 M21.31 57.87 C29.5 46.9, 39.82 36.47, 57.36 16.33 M25.08 60.02 C40.52 44.92, 53.55 29.53, 59.12 19.67 M24.93 59.74 C37.01 44.77, 48.16 29.61, 59.1 20.12 M31.09 59.76 C38.33 46.11, 48.85 36.44, 59.84 25.6 M28.41 59.94 C36.26 50.35, 45.49 41.4, 60.15 24.1 M33.61 61.1 C41.95 49.9, 51.12 38.39, 60.47 31.18 M34.27 60.28 C40.53 52.26, 46.1 45.94, 60.77 28.56 M38.59 61.71 C43.04 56.54, 50.37 49.77, 58.79 38.34 M37.45 62.54 C43.19 57.63, 47.95 50.23, 59.03 38.32 M15.33 55.53 C15.33 55.53, 15.33 55.53, 15.33 55.53 M15.33 55.53 C15.33 55.53, 15.33 55.53, 15.33 55.53 M23.32 55.8 C17.19 53.76, 11.83 47.07, 1.5 39.87 M23.47 58.11 C16.58 51.62, 9.47 44.55, 2.71 39.37 M30.95 57.44 C24.33 52.82, 18.36 48.96, 2.68 35.2 M32.44 59.56 C25.67 53.96, 19.62 48.41, 1.69 33.11 M35.3 59.15 C22.03 45.47, 9.42 33.45, 2.81 27.27 M37.54 57.72 C26.59 49.28, 17.25 41.07, 1.08 28.28 M40.97 54.43 C29.8 47.53, 16.18 35.16, 2.22 24.42 M40.6 55.92 C25.41 42.63, 10.48 30.73, 1.72 23.82 M45.78 52.92 C31.43 41.21, 15.42 31.93, 3.47 16.51 M43.99 54.44 C36.07 46.6, 26.42 39.1, 1.95 16.96 M48.32 52.46 C34.64 38.43, 17.19 26.38, 2.92 13.49 M48.01 52.49 C36.89 42.35, 26.26 34.13, 5.12 13.77 M50.67 49.05 C39.85 41.11, 27.34 30.34, 7.39 11.56 M51.77 50.17 C40.7 42.2, 30 31.48, 8.29 11.31 M56.4 47.55 C40.18 35.62, 25.21 22.88, 8.94 7.09 M55.1 47.22 C39.8 36.02, 26.44 21.93, 11.06 9.57 M58.33 44.97 C47.26 33.92, 40.5 28.87, 14.4 5.89 M56.33 44.27 C44.1 32.34, 30.98 21.65, 13.01 6.74 M59.29 39.14 C46.28 30.81, 37.6 21.69, 14.35 4.65 M59.04 39.51 C43.44 26.5, 27.59 12.8, 16.72 2.61 M58.62 35.38 C49.42 25.58, 36.3 15.92, 22.14 1.5 M58.58 35.38 C45.78 23.34, 33.37 11.84, 20.8 1.19 M59.4 29.88 C52.32 21.86, 42.43 14.3, 27.08 2.15 M61.28 31.94 C50.91 22.68, 39.84 14.26, 25.06 0.79 M61.96 26.95 C53.32 21.57, 42.78 12.85, 29.25 1.76 M61.99 28.11 C52.93 19.88, 45.36 11.59, 31.35 -0.04 M60.33 20.53 C52 13.78, 43.48 7.53, 37.22 -0.98 M58.5 19.19 C52.8 15.14, 48.77 8.8, 35.25 -0.51" stroke="#868e96" stroke-width="0.5" fill="none"></path><path d="M33.86 0.85 C40.06 1.29, 48.99 5.09, 53.47 9.78 C57.96 14.46, 60.66 22.34, 60.77 28.95 C60.88 35.57, 58.47 44.29, 54.14 49.48 C49.81 54.67, 41.27 59.1, 34.79 60.1 C28.31 61.1, 20.8 58.75, 15.27 55.48 C9.74 52.2, 4.01 46.47, 1.62 40.45 C-0.77 34.43, -1.21 25.33, 0.91 19.36 C3.04 13.39, 7.77 7.59, 14.35 4.63 C20.92 1.67, 35.19 1.63, 40.35 1.6 C45.51 1.58, 45.43 3.85, 45.32 4.49 M33.32 -0.37 C39.52 0.28, 48.48 5.88, 52.92 10.75 C57.36 15.63, 59.62 22.83, 59.96 28.9 C60.29 34.97, 59.01 42.2, 54.94 47.17 C50.87 52.14, 41.99 56.91, 35.56 58.73 C29.13 60.55, 22.12 61.12, 16.36 58.08 C10.59 55.04, 3.42 46.43, 0.97 40.49 C-1.48 34.56, -0.22 28.31, 1.66 22.47 C3.54 16.63, 6.71 8.97, 12.26 5.44 C17.8 1.9, 31.21 1.85, 34.94 1.25 C38.66 0.65, 35.04 1.59, 34.61 1.85" stroke="#000000" stroke-width="1" fill="none"></path></g><g stroke-linecap="round"><g transform="translate(370 710) rotate(0 39.49207993431949 -110.87822949490982)"><path d="M0.56 0.93 C13.38 -35.73, 64.48 -184.08, 77.27 -221.05 M-0.61 0.37 C12.57 -36.52, 66.2 -185.51, 79.59 -222.68" stroke="#000000" stroke-width="1" fill="none"></path></g></g><g stroke-linecap="round"><g transform="translate(550 590) rotate(0 -39.73162542589165 -49.663827136087605)"><path d="M0.25 -0.11 C-13.07 -16.57, -65.93 -82.95, -79.3 -99.22 M-1.08 -1.21 C-14.52 -17.49, -66.46 -81.59, -79.71 -97.98" stroke="#000000" stroke-width="1" fill="none"></path></g></g><g transform="translate(30 10) rotate(0 160.5 22.5)"><text x="0" y="32" font-family="Virgil, Segoe UI Emoji" font-size="36px" fill="#000000" text-anchor="start" style="white-space: pre;" direction="ltr">CodeForces 571 D:</text></g><g transform="translate(30 90) rotate(0 458 125)"><text x="0" y="18" font-family="Virgil, Segoe UI Emoji" font-size="20px" fill="#000000" text-anchor="start" style="white-space: pre;" direction="ltr">For each operation, create a new node representing it.</text><text x="0" y="43" font-family="Virgil, Segoe UI Emoji" font-size="20px" fill="#000000" text-anchor="start" style="white-space: pre;" direction="ltr">A node of MERGE operation have 2 sons,</text><text x="0" y="68" font-family="Virgil, Segoe UI Emoji" font-size="20px" fill="#000000" text-anchor="start" style="white-space: pre;" direction="ltr">A node of MODIFY operation have 1 son.</text><text x="0" y="93" font-family="Virgil, Segoe UI Emoji" font-size="20px" fill="#000000" text-anchor="start" style="white-space: pre;" direction="ltr">Now a set is represented by a sub-tree, and the operations applied on a position can be</text><text x="0" y="118" font-family="Virgil, Segoe UI Emoji" font-size="20px" fill="#000000" text-anchor="start" style="white-space: pre;" direction="ltr">found on its path to the root.</text><text x="0" y="143" font-family="Virgil, Segoe UI Emoji" font-size="20px" fill="#000000" text-anchor="start" style="white-space: pre;" direction="ltr"></text><text x="0" y="168" font-family="Virgil, Segoe UI Emoji" font-size="20px" fill="#000000" text-anchor="start" style="white-space: pre;" direction="ltr">Each node have two attributes, `timestamp` and `value`, indicating the time this operation </text><text x="0" y="193" font-family="Virgil, Segoe UI Emoji" font-size="20px" fill="#000000" text-anchor="start" style="white-space: pre;" direction="ltr">happens and how this operation changes the value of a certain set (sub-tree)</text><text x="0" y="218" font-family="Virgil, Segoe UI Emoji" font-size="20px" fill="#000000" text-anchor="start" style="white-space: pre;" direction="ltr"></text><text x="0" y="243" font-family="Virgil, Segoe UI Emoji" font-size="20px" fill="#000000" text-anchor="start" style="white-space: pre;" direction="ltr">An example:</text></g><g transform="translate(770 730) rotate(0 79.5 35)"><text x="0" y="25" font-family="Virgil, Segoe UI Emoji" font-size="28px" fill="#000000" text-anchor="start" style="white-space: pre;" direction="ltr">ORIGINAL </text><text x="0" y="60" font-family="Virgil, Segoe UI Emoji" font-size="28px" fill="#000000" text-anchor="start" style="white-space: pre;" direction="ltr">vertex</text></g><g transform="translate(775.5011356217786 816.5209835630095) rotate(0 106.00000000000006 25)"><text x="0" y="18" font-family="Virgil, Segoe UI Emoji" font-size="20px" fill="#000000" text-anchor="start" style="white-space: pre;" direction="ltr">- timestamp: 0</text><text x="0" y="43" font-family="Virgil, Segoe UI Emoji" font-size="20px" fill="#000000" text-anchor="start" style="white-space: pre;" direction="ltr">- value: original value</text></g><g stroke-linecap="round" transform="translate(770 730) rotate(0 110 70)"><path d="M3.41 2 C71.67 -5.46, 143.5 -4.73, 218.71 -0.82 M-0.95 0.08 C75.91 -1.23, 153.95 0.08, 221.59 0.68 M223.19 2.87 C223.7 51.78, 224.97 97.71, 222.29 139.33 M219.29 0.67 C218.35 46.33, 218.6 91.43, 221.13 139.97 M218.12 139.07 C169.66 143.67, 127.54 144.35, 0.47 141.3 M218.78 141.32 C169.71 138.03, 120.87 140.14, -1.7 141.71 M-0.82 136.61 C-1.02 91.23, -3.98 52.69, 3.6 -3.28 M-0.6 139.33 C4.44 103.95, 3.15 66.62, -0.35 -1.02" stroke="#000000" stroke-width="1" fill="none"></path></g><g stroke-linecap="round"><g transform="translate(710 830) rotate(0 29.954765016708166 -53.24322992983048)"><path d="M1.09 0.96 C3.58 -15.61, 5.76 -82.52, 15.53 -98.8 C25.3 -115.09, 52.49 -97.03, 59.71 -96.75 M0.2 0.42 C2.55 -16.56, 5.16 -84.08, 15.03 -100.57 C24.9 -117.06, 52.07 -98.75, 59.41 -98.54" stroke="#000000" stroke-width="1" fill="none"></path></g><g transform="translate(710 830) rotate(0 29.954765016708166 -53.24322992983048)"><path d="M38.91 -96.49 C46.15 -96.88, 54.49 -98.55, 60.55 -98.88 M36.96 -97.59 C43.89 -97.43, 51.09 -97.52, 59.97 -98.56" stroke="#000000" stroke-width="1" fill="none"></path></g><g transform="translate(710 830) rotate(0 29.954765016708166 -53.24322992983048)"><path d="M43.69 -110.84 C49.33 -106.17, 56.01 -102.84, 60.55 -98.88 M41.74 -111.94 C47.1 -107.17, 52.77 -102.66, 59.97 -98.56" stroke="#000000" stroke-width="1" fill="none"></path></g></g><g transform="translate(330 370) rotate(0 122 17.5)"><text x="0" y="25" font-family="Virgil, Segoe UI Emoji" font-size="28px" fill="#000000" text-anchor="start" style="white-space: pre;" direction="ltr">An operation tree</text></g><g transform="translate(30 970) rotate(0 475.5 75)"><text x="0" y="18" font-family="Virgil, Segoe UI Emoji" font-size="20px" fill="#000000" text-anchor="start" style="white-space: pre;" direction="ltr">When querying the value of a position, we first find, on the second tree, the last (the one with</text><text x="0" y="43" font-family="Virgil, Segoe UI Emoji" font-size="20px" fill="#000000" text-anchor="start" style="white-space: pre;" direction="ltr">greatest timestamp) operation. That an assign operation, and we assume that this operation </text><text x="0" y="68" font-family="Virgil, Segoe UI Emoji" font-size="20px" fill="#000000" text-anchor="start" style="white-space: pre;" direction="ltr">assign it to `x`, on time `t`. Then we need to query how much we add (by MERGE operation) </text><text x="0" y="93" font-family="Virgil, Segoe UI Emoji" font-size="20px" fill="#000000" text-anchor="start" style="white-space: pre;" direction="ltr">to `x`.</text><text x="0" y="118" font-family="Virgil, Segoe UI Emoji" font-size="20px" fill="#000000" text-anchor="start" style="white-space: pre;" direction="ltr">It's obvious that only operations with timestamp greater than `t` on the first tree should be </text><text x="0" y="143" font-family="Virgil, Segoe UI Emoji" font-size="20px" fill="#000000" text-anchor="start" style="white-space: pre;" direction="ltr">taken into account. This can be done by binary search on Link Cut Tree within O(log n).</text></g></svg>
