<svg version="1.1" xmlns="http://www.w3.org/2000/svg" viewBox="0 0 628.0143687226214 525" width="628.0143687226214" height="525">
  <!-- svg-source:excalidraw -->
  
  <defs>
    <style>
      @font-face {
        font-family: "Virgil";
        src: url("https://excalidraw.com/Virgil.woff2");
      }
      @font-face {
        font-family: "Cascadia";
        src: url("https://excalidraw.com/Cascadia.woff2");
      }
    </style>
  </defs>
  <rect x="0" y="0" width="628.0143687226214" height="525" fill="#f8f9fa"></rect><g transform="translate(597.031897786936 316.36933532679814) rotate(0 0.652173913043498 60.86956521739103)" stroke="none" fill="#087f5b"><path d="M 1.58,0.47 Q 1.58,0.47 1.29,1.74 1.01,3.02 0.91,4.50 0.81,5.99 0.67,8.50 0.53,11.01 0.44,14.97 0.36,18.92 0.30,24.23 0.25,29.54 0.83,34.83 1.42,40.13 1.91,45.69 2.40,51.24 2.61,55.75 2.81,60.26 3.14,63.63 3.47,67.00 3.61,71.62 3.75,76.24 3.80,80.32 3.86,84.40 3.88,87.75 3.90,91.11 3.91,94.17 3.92,97.22 3.92,100.02 3.92,102.82 3.92,105.50 3.92,108.19 3.92,110.34 3.92,112.48 3.97,114.39 4.02,116.30 4.12,119.02 4.22,121.73 4.17,121.99 4.13,122.25 4.01,122.48 3.89,122.71 3.70,122.89 3.51,123.07 3.27,123.18 3.04,123.29 2.78,123.32 2.52,123.35 2.26,123.29 2.01,123.23 1.78,123.10 1.56,122.96 1.39,122.76 1.22,122.57 1.12,122.32 1.03,122.08 1.01,121.82 1.00,121.56 1.07,121.31 1.14,121.06 1.29,120.84 1.43,120.62 1.64,120.47 1.85,120.31 2.10,120.23 2.34,120.14 2.60,120.14 2.86,120.14 3.11,120.23 3.36,120.31 3.57,120.47 3.78,120.62 3.92,120.84 4.07,121.06 4.14,121.31 4.21,121.56 4.19,121.82 4.18,122.08 4.08,122.32 3.99,122.57 3.82,122.76 3.65,122.96 3.42,123.10 3.20,123.23 2.95,123.29 2.69,123.35 2.43,123.32 2.17,123.29 1.93,123.18 1.70,123.07 1.51,122.89 1.32,122.71 1.20,122.48 1.07,122.25 1.03,121.99 0.99,121.73 0.99,121.73 0.99,121.73 1.09,119.02 1.19,116.30 1.24,114.39 1.28,112.48 1.28,110.34 1.28,108.20 1.27,105.51 1.27,102.82 1.26,100.02 1.26,97.23 1.24,94.18 1.23,91.13 1.20,87.79 1.17,84.44 1.10,80.38 1.03,76.32 0.88,71.80 0.73,67.28 0.37,63.84 0.01,60.40 -0.21,55.95 -0.44,51.51 -0.98,45.99 -1.51,40.47 -2.17,35.00 -2.82,29.53 -2.85,24.21 -2.88,18.90 -2.91,14.91 -2.94,10.92 -2.94,8.27 -2.95,5.63 -2.73,3.80 -2.51,1.97 -2.04,0.75 -1.58,-0.47 -1.50,-0.65 -1.42,-0.84 -1.30,-0.99 -1.18,-1.15 -1.02,-1.28 -0.87,-1.40 -0.69,-1.49 -0.50,-1.57 -0.31,-1.61 -0.11,-1.65 0.08,-1.64 0.28,-1.63 0.47,-1.57 0.66,-1.51 0.83,-1.41 1.00,-1.31 1.14,-1.17 1.29,-1.03 1.39,-0.86 1.50,-0.69 1.56,-0.50 1.62,-0.31 1.63,-0.11 1.65,0.08 1.61,0.27 1.58,0.47 1.58,0.47 L 1.58,0.47 Z"></path></g><g transform="translate(511.37972387389254 321.5867266311461) rotate(0 0 59.13043478260852)" stroke="none" fill="#087f5b"><path d="M 1.56,0 Q 1.56,0 1.52,3.25 1.49,6.50 1.46,9.38 1.44,12.26 1.42,15.61 1.40,18.96 1.39,24.01 1.38,29.05 1.37,32.82 1.36,36.59 1.35,40.32 1.34,44.05 1.34,47.26 1.33,50.47 1.33,55.33 1.33,60.20 1.32,64.51 1.32,68.83 1.32,72.29 1.32,75.75 1.32,78.72 1.32,81.69 1.31,85.08 1.31,88.47 1.31,91.41 1.31,94.35 1.31,96.97 1.31,99.59 1.31,101.71 1.32,103.82 1.34,105.85 1.36,107.87 1.45,109.48 1.54,111.09 1.62,112.65 1.69,114.21 1.77,116.23 1.84,118.26 1.79,118.55 1.75,118.85 1.61,119.11 1.47,119.37 1.25,119.58 1.03,119.79 0.76,119.91 0.49,120.04 0.19,120.07 -0.10,120.10 -0.39,120.04 -0.68,119.97 -0.94,119.82 -1.19,119.66 -1.38,119.44 -1.58,119.21 -1.69,118.93 -1.80,118.65 -1.82,118.35 -1.83,118.06 -1.75,117.77 -1.67,117.48 -1.50,117.23 -1.34,116.98 -1.10,116.80 -0.86,116.62 -0.58,116.53 -0.29,116.43 0.00,116.43 0.29,116.43 0.58,116.53 0.86,116.62 1.10,116.80 1.34,116.99 1.50,117.23 1.67,117.48 1.75,117.77 1.83,118.06 1.82,118.35 1.80,118.65 1.69,118.93 1.58,119.21 1.38,119.44 1.19,119.66 0.93,119.82 0.68,119.97 0.39,120.04 0.09,120.10 -0.19,120.07 -0.49,120.04 -0.76,119.91 -1.03,119.79 -1.25,119.58 -1.47,119.37 -1.61,119.11 -1.75,118.85 -1.79,118.55 -1.84,118.26 -1.84,118.26 -1.84,118.26 -1.77,116.23 -1.69,114.21 -1.62,112.65 -1.54,111.09 -1.45,109.48 -1.36,107.87 -1.34,105.85 -1.32,103.82 -1.31,101.71 -1.31,99.59 -1.31,96.97 -1.31,94.35 -1.31,91.41 -1.31,88.47 -1.31,85.08 -1.32,81.69 -1.32,78.72 -1.32,75.75 -1.32,72.29 -1.32,68.83 -1.32,64.51 -1.33,60.20 -1.33,55.33 -1.33,50.47 -1.34,47.26 -1.34,44.05 -1.35,40.32 -1.36,36.59 -1.37,32.82 -1.38,29.05 -1.39,24.01 -1.40,18.96 -1.42,15.61 -1.44,12.26 -1.46,9.38 -1.49,6.50 -1.52,3.25 -1.56,0 -1.53,-0.18 -1.51,-0.37 -1.45,-0.54 -1.38,-0.72 -1.27,-0.88 -1.16,-1.03 -1.02,-1.16 -0.88,-1.28 -0.72,-1.37 -0.55,-1.46 -0.37,-1.50 -0.18,-1.55 0.00,-1.55 0.18,-1.55 0.37,-1.50 0.55,-1.46 0.72,-1.37 0.88,-1.28 1.02,-1.16 1.16,-1.03 1.27,-0.88 1.38,-0.72 1.45,-0.54 1.51,-0.37 1.53,-0.18 1.56,0.00 1.56,0.00 L 1.56,0 Z"></path></g><g transform="translate(363.5536369173708 332.45629184853715) rotate(0 -3.478260869565247 48.47826086956502)" stroke="none" fill="#087f5b"><path d="M 1.10,1.29 Q 1.10,1.29 0.34,2.02 -0.41,2.76 -0.64,5.52 -0.88,8.27 -1.02,11.00 -1.17,13.74 -1.26,16.91 -1.35,20.08 -1.41,22.68 -1.47,25.28 -1.50,28.39 -1.54,31.49 -1.82,34.50 -2.10,37.50 -2.35,40.13 -2.60,42.76 -2.96,45.52 -3.33,48.29 -3.48,50.42 -3.63,52.54 -3.63,54.31 -3.63,56.09 -3.57,57.59 -3.51,59.09 -3.42,60.23 -3.33,61.37 -3.29,62.85 -3.24,64.33 -3.20,65.83 -3.16,67.34 -3.31,69.17 -3.45,71.01 -3.58,72.45 -3.72,73.89 -3.74,75.15 -3.77,76.41 -3.76,77.69 -3.75,78.97 -3.75,80.39 -3.74,81.81 -3.76,83.41 -3.78,85.01 -3.83,86.82 -3.88,88.63 -3.84,89.90 -3.79,91.16 -4.14,94.48 -4.49,97.79 -4.62,98.17 -4.75,98.55 -4.99,98.87 -5.24,99.19 -5.57,99.42 -5.90,99.65 -6.29,99.75 -6.68,99.86 -7.08,99.84 -7.49,99.82 -7.86,99.67 -8.24,99.52 -8.54,99.26 -8.85,99.00 -9.06,98.65 -9.27,98.31 -9.35,97.92 -9.44,97.52 -9.40,97.12 -9.35,96.72 -9.18,96.35 -9.01,95.99 -8.74,95.70 -8.46,95.40 -8.10,95.21 -7.75,95.03 -7.35,94.96 -6.95,94.90 -6.55,94.96 -6.16,95.03 -5.80,95.21 -5.44,95.40 -5.17,95.70 -4.89,95.99 -4.72,96.35 -4.55,96.72 -4.51,97.12 -4.46,97.52 -4.55,97.91 -4.64,98.31 -4.84,98.65 -5.05,99.00 -5.36,99.26 -5.67,99.52 -6.04,99.67 -6.42,99.82 -6.82,99.84 -7.22,99.86 -7.61,99.76 -8.00,99.65 -8.33,99.42 -8.66,99.20 -8.91,98.87 -9.15,98.55 -9.28,98.17 -9.41,97.79 -9.41,97.39 -9.41,96.98 -9.41,96.98 -9.41,96.98 -8.89,94.07 -8.37,91.16 -8.32,89.89 -8.27,88.62 -8.32,86.81 -8.37,85.00 -8.37,83.38 -8.38,81.76 -8.35,80.31 -8.32,78.86 -8.25,77.51 -8.17,76.16 -8.05,74.75 -7.92,73.34 -7.70,72.03 -7.48,70.72 -7.37,69.03 -7.25,67.33 -7.21,65.82 -7.17,64.31 -7.11,62.82 -7.06,61.33 -6.95,60.18 -6.84,59.03 -6.72,57.51 -6.60,55.98 -6.48,54.17 -6.35,52.35 -6.21,50.15 -6.07,47.94 -5.73,45.23 -5.40,42.51 -5.19,39.88 -4.97,37.26 -4.75,34.37 -4.52,31.49 -4.55,28.38 -4.58,25.27 -4.61,22.66 -4.64,20.05 -4.67,16.85 -4.71,13.65 -4.72,10.80 -4.73,7.95 -4.57,5.92 -4.42,3.89 -3.75,2.06 -3.08,0.23 -2.09,-0.52 -1.10,-1.29 -0.93,-1.40 -0.76,-1.51 -0.57,-1.58 -0.37,-1.65 -0.17,-1.67 0.02,-1.69 0.23,-1.67 0.43,-1.64 0.62,-1.56 0.81,-1.49 0.98,-1.37 1.14,-1.25 1.28,-1.09 1.41,-0.94 1.50,-0.75 1.59,-0.57 1.64,-0.37 1.69,-0.17 1.68,0.02 1.68,0.23 1.63,0.43 1.57,0.62 1.48,0.80 1.38,0.98 1.24,1.13 1.10,1.29 1.10,1.29 L 1.10,1.29 Z"></path></g><g transform="translate(314.85798474345756 320.7171614137542) rotate(0 -0.2173913043477569 60.6521739130435)" stroke="none" fill="#087f5b"><path d="M 1.74,0.13 Q 1.74,0.13 1.66,1.76 1.58,3.39 1.53,5.16 1.48,6.93 1.45,8.81 1.41,10.69 1.33,13.61 1.25,16.54 1.20,20.28 1.15,24.02 1.11,26.87 1.07,29.71 1.13,31.42 1.19,33.12 1.14,35.47 1.10,37.82 1.10,39.82 1.10,41.82 1.07,44.30 1.04,46.77 1.02,49.32 0.99,51.88 1.04,53.71 1.09,55.54 1.11,57.45 1.13,59.35 1.19,61.04 1.24,62.72 1.19,65.06 1.14,67.40 1.14,69.40 1.13,71.39 1.13,73.37 1.14,75.34 1.14,77.30 1.14,79.27 1.10,81.73 1.07,84.19 1.04,86.73 1.02,89.28 1.00,91.98 0.98,94.69 0.96,96.96 0.95,99.24 0.95,101.33 0.94,103.42 1.03,105.06 1.11,106.70 1.20,108.15 1.29,109.60 1.38,110.71 1.48,111.83 1.54,113.17 1.60,114.52 1.74,116.12 1.88,117.73 1.92,119.51 1.96,121.30 1.90,121.68 1.84,122.07 1.66,122.41 1.47,122.75 1.19,123.02 0.91,123.29 0.56,123.45 0.20,123.62 -0.17,123.66 -0.56,123.70 -0.94,123.62 -1.32,123.53 -1.65,123.33 -1.99,123.13 -2.24,122.84 -2.49,122.54 -2.63,122.18 -2.78,121.82 -2.80,121.43 -2.82,121.04 -2.72,120.66 -2.61,120.29 -2.39,119.97 -2.18,119.65 -1.87,119.41 -1.56,119.17 -1.19,119.05 -0.82,118.93 -0.43,118.93 -0.04,118.93 0.32,119.05 0.69,119.18 1.00,119.41 1.31,119.65 1.52,119.97 1.74,120.29 1.85,120.66 1.95,121.04 1.93,121.43 1.91,121.82 1.76,122.18 1.62,122.54 1.37,122.84 1.12,123.13 0.78,123.33 0.45,123.53 0.07,123.62 -0.30,123.70 -0.69,123.66 -1.07,123.62 -1.43,123.45 -1.78,123.29 -2.06,123.02 -2.34,122.75 -2.53,122.41 -2.71,122.07 -2.77,121.68 -2.83,121.30 -2.83,121.30 -2.83,121.30 -2.79,119.51 -2.75,117.73 -2.61,116.12 -2.47,114.52 -2.41,113.17 -2.35,111.83 -2.25,110.71 -2.16,109.60 -2.07,108.15 -1.98,106.70 -1.90,105.06 -1.81,103.42 -1.82,101.33 -1.82,99.24 -1.83,96.96 -1.85,94.69 -1.87,91.98 -1.88,89.28 -1.91,86.73 -1.94,84.19 -1.97,81.73 -2.01,79.27 -2.01,77.30 -2.00,75.34 -2.00,73.37 -2.00,71.39 -2.01,69.40 -2.01,67.40 -2.06,65.06 -2.11,62.72 -2.06,61.04 -2.00,59.35 -1.98,57.45 -1.96,55.54 -1.91,53.71 -1.86,51.88 -1.89,49.32 -1.91,46.77 -1.94,44.30 -1.97,41.82 -1.97,39.82 -1.97,37.82 -2.01,35.47 -2.05,33.12 -1.99,31.41 -1.93,29.71 -1.97,26.86 -2.00,24.02 -2.05,20.27 -2.09,16.53 -2.15,13.59 -2.21,10.65 -2.20,8.74 -2.20,6.82 -2.14,4.96 -2.08,3.10 -1.91,1.48 -1.74,-0.13 -1.70,-0.34 -1.66,-0.54 -1.57,-0.74 -1.48,-0.93 -1.35,-1.09 -1.22,-1.26 -1.05,-1.38 -0.88,-1.51 -0.68,-1.60 -0.49,-1.68 -0.28,-1.71 -0.07,-1.75 0.13,-1.73 0.34,-1.72 0.54,-1.65 0.74,-1.58 0.92,-1.47 1.10,-1.36 1.25,-1.21 1.39,-1.05 1.50,-0.87 1.61,-0.69 1.67,-0.49 1.73,-0.28 1.74,-0.07 1.74,0.13 1.74,0.13 L 1.74,0.13 Z"></path></g><g transform="translate(111.37972387389254 328.97803097897213) rotate(0 0 51.304347826086996)" stroke="none" fill="#087f5b"><path d="M 1.56,0 Q 1.56,0 1.53,2.62 1.49,5.24 1.47,9.11 1.44,12.98 1.42,19.24 1.41,25.51 1.39,34.68 1.38,43.84 1.37,50.61 1.36,57.38 1.35,61.51 1.35,65.63 1.34,68.89 1.34,72.14 1.33,75.02 1.33,77.91 1.33,80.01 1.33,82.11 1.38,84.00 1.43,85.89 1.46,87.82 1.49,89.75 1.50,91.70 1.52,93.64 1.62,94.97 1.72,96.29 1.82,97.36 1.92,98.42 -0.12,99.43 -2.16,100.43 -2.11,100.08 -2.05,99.74 -1.89,99.43 -1.72,99.12 -1.47,98.88 -1.21,98.63 -0.89,98.49 -0.58,98.34 -0.23,98.30 0.11,98.26 0.46,98.34 0.80,98.41 1.10,98.60 1.40,98.78 1.63,99.04 1.85,99.31 1.98,99.64 2.11,99.96 2.13,100.31 2.15,100.66 2.06,101.00 1.96,101.34 1.77,101.63 1.57,101.92 1.29,102.13 1.01,102.35 0.68,102.46 0.35,102.57 -0.00,102.57 -0.35,102.57 -0.68,102.46 -1.01,102.35 -1.29,102.13 -1.57,101.92 -1.77,101.63 -1.96,101.34 -2.06,101.00 -2.15,100.66 -2.13,100.31 -2.11,99.96 -1.98,99.64 -1.85,99.31 -1.63,99.04 -1.40,98.78 -1.10,98.59 -0.80,98.41 -0.45,98.34 -0.11,98.26 0.23,98.30 0.58,98.34 0.89,98.49 1.21,98.63 1.47,98.88 1.72,99.12 1.89,99.43 2.05,99.74 2.11,100.08 2.16,100.43 2.16,100.43 2.16,100.43 0.12,99.43 -1.92,98.42 -1.82,97.36 -1.72,96.29 -1.62,94.97 -1.52,93.64 -1.50,91.70 -1.49,89.75 -1.46,87.82 -1.43,85.89 -1.38,84.00 -1.33,82.11 -1.33,80.01 -1.33,77.91 -1.33,75.02 -1.34,72.14 -1.34,68.89 -1.35,65.63 -1.35,61.51 -1.36,57.38 -1.37,50.61 -1.38,43.84 -1.39,34.68 -1.41,25.51 -1.42,19.24 -1.44,12.98 -1.47,9.11 -1.49,5.24 -1.53,2.62 -1.56,0 -1.54,-0.18 -1.52,-0.37 -1.45,-0.55 -1.38,-0.72 -1.28,-0.88 -1.17,-1.04 -1.03,-1.16 -0.89,-1.29 -0.72,-1.37 -0.55,-1.46 -0.37,-1.51 -0.18,-1.55 0.00,-1.55 0.18,-1.55 0.37,-1.51 0.55,-1.46 0.72,-1.37 0.89,-1.29 1.03,-1.16 1.17,-1.04 1.28,-0.88 1.38,-0.72 1.45,-0.55 1.52,-0.37 1.54,-0.18 1.56,0.00 1.56,0.00 L 1.56,0 Z"></path></g><g transform="translate(66.76436872262138 327.6273169009155) rotate(0 -0.625 60.625)" stroke="none" fill="#087f5b"><path d="M 1.62,-0.18 Q 1.62,-0.18 1.85,1.43 2.09,3.04 2.19,4.86 2.30,6.68 2.27,9.08 2.23,11.47 2.20,13.92 2.17,16.37 1.78,20.36 1.38,24.34 1.21,27.41 1.04,30.48 0.59,34.01 0.15,37.53 -0.03,40.40 -0.22,43.27 -0.31,46.64 -0.39,50.01 -0.43,53.24 -0.47,56.47 -0.49,59.46 -0.51,62.45 -0.52,65.52 -0.53,68.59 -0.53,72.40 -0.54,76.22 -0.54,79.64 -0.54,83.06 -0.55,86.67 -0.55,90.28 -0.55,93.08 -0.55,95.87 -0.55,98.49 -0.55,101.12 -0.49,102.95 -0.43,104.78 -0.45,107.18 -0.47,109.58 -0.48,111.85 -0.49,114.13 -0.37,115.46 -0.26,116.78 -0.17,119.01 -0.09,121.25 -0.13,121.53 -0.18,121.81 -0.31,122.07 -0.45,122.32 -0.66,122.52 -0.87,122.72 -1.13,122.84 -1.39,122.96 -1.68,123.00 -1.97,123.03 -2.25,122.96 -2.53,122.90 -2.78,122.75 -3.03,122.60 -3.21,122.38 -3.40,122.16 -3.51,121.90 -3.61,121.63 -3.63,121.34 -3.64,121.05 -3.57,120.77 -3.49,120.50 -3.33,120.26 -3.17,120.02 -2.94,119.84 -2.71,119.67 -2.43,119.58 -2.16,119.48 -1.87,119.48 -1.58,119.48 -1.31,119.58 -1.03,119.67 -0.80,119.84 -0.57,120.02 -0.41,120.26 -0.25,120.50 -0.17,120.77 -0.10,121.05 -0.11,121.34 -0.13,121.63 -0.23,121.90 -0.34,122.17 -0.53,122.39 -0.72,122.61 -0.96,122.75 -1.21,122.90 -1.49,122.96 -1.77,123.03 -2.06,123.00 -2.35,122.96 -2.61,122.84 -2.87,122.72 -3.08,122.52 -3.29,122.32 -3.43,122.07 -3.56,121.81 -3.61,121.53 -3.65,121.24 -3.65,121.24 -3.65,121.24 -3.57,119.01 -3.48,116.78 -3.37,115.46 -3.25,114.13 -3.26,111.85 -3.27,109.58 -3.29,107.18 -3.31,104.78 -3.25,102.95 -3.19,101.12 -3.19,98.49 -3.19,95.87 -3.19,93.08 -3.19,90.28 -3.19,86.67 -3.19,83.06 -3.19,79.64 -3.19,76.22 -3.19,72.40 -3.19,68.58 -3.19,65.51 -3.19,62.44 -3.18,59.44 -3.17,56.44 -3.15,53.19 -3.12,49.95 -3.05,46.52 -2.99,43.10 -2.82,40.15 -2.64,37.19 -2.24,33.76 -1.84,30.34 -1.72,27.21 -1.59,24.08 -1.27,20.23 -0.96,16.39 -1.02,13.95 -1.08,11.52 -1.18,9.18 -1.27,6.84 -1.32,5.13 -1.37,3.42 -1.50,1.80 -1.62,0.18 -1.62,-0.01 -1.61,-0.21 -1.56,-0.40 -1.52,-0.59 -1.42,-0.76 -1.33,-0.94 -1.20,-1.08 -1.06,-1.23 -0.90,-1.34 -0.74,-1.45 -0.55,-1.52 -0.37,-1.58 -0.17,-1.61 0.01,-1.63 0.21,-1.60 0.40,-1.58 0.59,-1.50 0.77,-1.43 0.93,-1.32 1.09,-1.21 1.22,-1.06 1.35,-0.91 1.44,-0.73 1.53,-0.56 1.57,-0.37 1.62,-0.18 1.62,-0.18 L 1.62,-0.18 Z"></path></g><g transform="translate(109.64059343910958 410.7171614137551) rotate(0 125 11.73913043478251)" stroke="none" fill="#000000"><path d="M 2.03,-1.69 Q 2.03,-1.69 2.68,-0.96 3.33,-0.23 4.15,0.56 4.97,1.36 5.63,2.93 6.29,4.50 6.40,5.57 6.51,6.65 6.58,8.00 6.65,9.34 6.67,10.82 6.70,12.30 6.72,13.39 6.75,14.47 8.52,14.51 10.29,14.55 11.74,14.55 13.19,14.55 14.27,14.57 15.35,14.59 17.47,14.62 19.59,14.65 21.54,15.04 23.49,15.43 24.87,15.57 26.25,15.72 27.60,15.79 28.94,15.85 30.51,16.32 32.09,16.78 33.44,16.95 34.80,17.12 36.49,17.51 38.18,17.89 39.89,18.22 41.60,18.54 43.02,18.77 44.44,19.00 45.78,19.09 47.13,19.17 48.57,19.22 50.02,19.26 52.26,19.42 54.50,19.58 56.95,19.70 59.41,19.81 61.58,19.90 63.74,19.98 66.29,20.04 68.84,20.10 71.17,20.15 73.50,20.19 75.71,20.48 77.91,20.76 79.52,20.79 81.14,20.83 82.81,20.82 84.48,20.82 86.69,20.89 88.90,20.97 91.17,21.27 93.45,21.57 95.46,21.69 97.47,21.81 99.44,21.85 101.42,21.89 103.01,21.84 104.61,21.78 105.78,21.69 106.96,21.60 108.46,21.56 109.95,21.51 111.46,21.47 112.97,21.43 114.46,21.19 115.95,20.94 117.48,20.79 119.00,20.64 120.15,20.53 121.30,20.42 122.55,20.36 123.80,20.29 126.02,20.20 128.24,20.10 130.69,20.13 133.14,20.16 135.56,20.10 137.99,20.04 139.54,19.93 141.10,19.81 142.78,19.77 144.47,19.73 145.55,19.64 146.63,19.56 148.45,19.10 150.27,18.64 152.08,18.46 153.90,18.28 155.03,18.25 156.16,18.22 157.39,18.20 158.62,18.19 160.14,18.22 161.66,18.25 163.06,18.26 164.45,18.27 165.92,18.28 167.39,18.30 168.51,18.27 169.64,18.25 170.87,18.23 172.09,18.22 173.36,18.21 174.64,18.21 176.26,18.14 177.89,18.07 179.24,18.08 180.60,18.10 181.93,18.11 183.25,18.12 184.94,18.19 186.63,18.26 188.10,18.28 189.56,18.30 191.06,18.32 192.56,18.33 193.95,18.33 195.34,18.33 196.68,18.32 198.01,18.32 199.33,18.31 200.65,18.30 203.16,18.29 205.68,18.27 206.79,18.25 207.91,18.22 209.13,18.21 210.36,18.20 211.75,18.21 213.15,18.22 214.24,18.20 215.34,18.17 216.54,18.17 217.75,18.16 219.54,17.76 221.34,17.37 222.59,17.31 223.84,17.25 226.04,17.20 228.25,17.15 229.50,17.16 230.75,17.16 232.60,17.12 234.44,17.08 235.72,17.03 237.00,16.97 238.30,16.93 239.60,16.89 241.04,16.87 242.49,16.85 243.90,16.90 245.31,16.96 247.65,16.93 249.99,16.91 250.49,16.99 250.98,17.07 251.42,17.31 251.86,17.54 252.20,17.90 252.55,18.27 252.76,18.72 252.97,19.17 253.02,19.67 253.07,20.16 252.97,20.65 252.86,21.14 252.60,21.56 252.34,21.99 251.96,22.31 251.58,22.64 251.12,22.82 250.66,23.01 250.16,23.03 249.66,23.06 249.18,22.93 248.70,22.79 248.29,22.51 247.87,22.23 247.57,21.84 247.27,21.44 247.11,20.97 246.95,20.49 246.95,19.99 246.95,19.50 247.11,19.02 247.27,18.55 247.57,18.15 247.88,17.76 248.29,17.48 248.70,17.20 249.18,17.06 249.66,16.93 250.16,16.96 250.66,16.98 251.12,17.17 251.58,17.35 251.96,17.68 252.34,18.00 252.60,18.43 252.86,18.85 252.97,19.34 253.07,19.83 253.02,20.32 252.97,20.82 252.76,21.27 252.55,21.73 252.20,22.09 251.86,22.45 251.42,22.68 250.98,22.92 250.49,23.00 249.99,23.08 249.99,23.08 250.00,23.08 247.65,23.06 245.31,23.03 243.90,23.09 242.49,23.14 241.04,23.12 239.60,23.10 238.30,23.06 237.00,23.02 235.72,22.97 234.45,22.91 232.61,22.88 230.77,22.84 229.53,22.85 228.29,22.86 226.18,22.87 224.06,22.88 222.26,22.96 220.45,23.04 219.12,23.30 217.78,23.57 216.56,23.56 215.34,23.55 214.24,23.53 213.15,23.51 211.75,23.52 210.36,23.53 209.13,23.52 207.91,23.51 206.79,23.48 205.68,23.46 203.16,23.44 200.65,23.43 199.33,23.42 198.01,23.41 196.68,23.40 195.34,23.40 193.95,23.40 192.56,23.39 191.06,23.41 189.56,23.43 188.10,23.45 186.63,23.47 184.94,23.54 183.25,23.61 181.93,23.62 180.60,23.63 179.24,23.65 177.89,23.66 176.26,23.59 174.64,23.52 173.37,23.52 172.09,23.51 170.87,23.50 169.64,23.48 168.51,23.46 167.39,23.43 165.92,23.45 164.45,23.46 163.06,23.47 161.66,23.48 160.15,23.52 158.63,23.55 157.41,23.54 156.20,23.54 154.30,23.49 152.40,23.45 150.97,23.47 149.55,23.48 148.13,23.72 146.70,23.95 145.62,23.89 144.55,23.84 142.93,23.86 141.30,23.88 139.79,23.92 138.27,23.96 135.82,24.25 133.36,24.55 130.81,24.83 128.25,25.12 126.06,25.04 123.87,24.97 122.68,24.95 121.48,24.92 120.40,24.90 119.31,24.88 117.94,24.94 116.57,25.00 114.77,25.25 112.98,25.51 111.46,25.47 109.94,25.43 108.44,25.37 106.93,25.32 105.75,25.21 104.57,25.10 102.96,25.01 101.35,24.91 99.33,24.86 97.31,24.81 95.20,24.71 93.09,24.61 90.98,24.40 88.87,24.18 86.63,24.22 84.39,24.25 82.66,24.16 80.93,24.07 79.25,23.89 77.56,23.70 75.53,23.49 73.50,23.28 71.17,23.32 68.84,23.36 66.29,23.42 63.74,23.48 61.57,23.55 59.39,23.63 56.93,23.73 54.46,23.83 52.17,23.95 49.89,24.08 48.34,24.04 46.80,24.00 45.21,23.88 43.63,23.77 42.27,23.53 40.91,23.28 39.04,23.09 37.16,22.89 35.71,22.63 34.26,22.37 31.48,21.88 28.70,21.39 27.28,21.37 25.85,21.35 24.25,21.28 22.66,21.22 21.12,21.10 19.58,20.99 17.46,21.02 15.34,21.05 13.45,21.06 11.56,21.07 9.83,21.05 8.09,21.02 6.73,21.01 5.37,20.99 3.97,20.67 2.57,20.35 1.73,19.34 0.89,18.32 0.53,17.11 0.18,15.90 0.20,14.69 0.22,13.48 0.24,12.10 0.26,10.72 0.31,9.19 0.36,7.65 0.55,6.41 0.75,5.16 -0.04,4.20 -0.83,3.23 -1.43,2.46 -2.03,1.69 -2.20,1.42 -2.38,1.15 -2.48,0.85 -2.59,0.55 -2.61,0.23 -2.64,-0.08 -2.59,-0.39 -2.55,-0.71 -2.42,-1.00 -2.30,-1.30 -2.11,-1.55 -1.92,-1.81 -1.68,-2.02 -1.43,-2.22 -1.15,-2.36 -0.86,-2.50 -0.55,-2.57 -0.23,-2.63 0.07,-2.62 0.39,-2.61 0.70,-2.53 1.01,-2.44 1.29,-2.29 1.57,-2.13 1.80,-1.91 2.03,-1.69 2.03,-1.69 L 2.03,-1.69 Z"></path></g><g transform="translate(365.7275499608486 410.7171614137551) rotate(0 -3.4782608695651334 9.78260869565247)" stroke="none" fill="#000000"><path d="M 0.83,2.51 Q 0.83,2.51 -0.28,2.90 -1.40,3.29 -2.27,4.75 -3.15,6.21 -3.40,7.52 -3.65,8.83 -3.67,9.92 -3.69,11.02 -3.64,12.26 -3.60,13.50 -2.45,15.98 -1.30,18.46 -1.14,18.98 -0.97,19.51 -0.98,20.06 -0.99,20.61 -1.18,21.13 -1.36,21.65 -1.71,22.08 -2.05,22.51 -2.51,22.81 -2.97,23.11 -3.51,23.25 -4.04,23.39 -4.59,23.35 -5.14,23.31 -5.65,23.09 -6.15,22.88 -6.57,22.52 -6.98,22.15 -7.26,21.67 -7.53,21.20 -7.64,20.65 -7.75,20.11 -7.68,19.57 -7.61,19.02 -7.37,18.53 -7.13,18.03 -6.74,17.64 -6.35,17.24 -5.86,17.00 -5.37,16.75 -4.82,16.67 -4.28,16.59 -3.74,16.69 -3.19,16.79 -2.71,17.06 -2.23,17.32 -1.86,17.73 -1.49,18.14 -1.27,18.64 -1.04,19.15 -0.99,19.70 -0.95,20.24 -1.07,20.78 -1.20,21.32 -1.50,21.78 -1.79,22.25 -2.22,22.60 -2.64,22.95 -3.16,23.14 -3.67,23.34 -4.23,23.35 -4.78,23.37 -5.30,23.22 -5.83,23.06 -6.28,22.74 -6.73,22.42 -7.06,21.98 -7.38,21.53 -7.38,21.53 -7.38,21.53 -8.02,19.93 -8.66,18.32 -9.32,17.15 -9.98,15.97 -10.13,14.44 -10.28,12.92 -10.24,11.86 -10.19,10.80 -10.03,9.45 -9.87,8.10 -9.47,7.01 -9.07,5.92 -8.50,4.47 -7.92,3.02 -7.07,1.45 -6.22,-0.12 -4.66,-0.95 -3.09,-1.79 -1.96,-2.15 -0.83,-2.51 -0.52,-2.57 -0.21,-2.64 0.10,-2.62 0.42,-2.61 0.73,-2.52 1.04,-2.43 1.31,-2.27 1.59,-2.11 1.82,-1.89 2.05,-1.67 2.22,-1.40 2.39,-1.13 2.49,-0.83 2.59,-0.52 2.62,-0.21 2.64,0.10 2.59,0.42 2.54,0.73 2.42,1.03 2.29,1.32 2.10,1.58 1.91,1.83 1.66,2.03 1.41,2.24 1.12,2.37 0.83,2.51 0.83,2.51 L 0.83,2.51 Z"></path></g><g transform="translate(117.46668039563133 458.1084657615811) rotate(0 -1.521739130434753 17.826086956521976)" stroke="none" fill="#000000"><path d="M 2.08,0.27 Q 2.08,0.27 1.78,2.14 1.49,4.01 0.90,6.59 0.32,9.18 0.07,12.76 -0.18,16.35 -0.32,19.15 -0.46,21.95 -0.53,24.14 -0.60,26.34 -0.79,27.91 -0.98,29.49 -1.00,32.60 -1.01,35.71 -1.07,36.03 -1.14,36.35 -1.30,36.64 -1.46,36.92 -1.71,37.14 -1.95,37.36 -2.25,37.49 -2.56,37.62 -2.88,37.64 -3.21,37.67 -3.53,37.59 -3.85,37.51 -4.12,37.33 -4.40,37.15 -4.60,36.89 -4.81,36.64 -4.92,36.33 -5.03,36.02 -5.04,35.69 -5.05,35.37 -4.95,35.05 -4.85,34.74 -4.66,34.47 -4.47,34.21 -4.20,34.02 -3.93,33.83 -3.62,33.73 -3.30,33.64 -2.98,33.65 -2.65,33.66 -2.34,33.77 -2.03,33.89 -1.78,34.09 -1.52,34.30 -1.35,34.58 -1.17,34.85 -1.09,35.17 -1.02,35.49 -1.04,35.82 -1.07,36.14 -1.20,36.44 -1.33,36.75 -1.55,36.99 -1.77,37.23 -2.06,37.39 -2.35,37.55 -2.67,37.61 -2.99,37.67 -3.32,37.63 -3.64,37.58 -3.93,37.44 -4.23,37.29 -4.46,37.06 -4.69,36.82 -4.83,36.53 -4.98,36.23 -5.02,35.91 -5.07,35.58 -5.07,35.58 -5.07,35.58 -4.91,33.40 -4.75,31.21 -4.53,30.04 -4.31,28.87 -3.97,27.57 -3.62,26.28 -3.62,24.07 -3.62,21.86 -3.59,19.01 -3.55,16.16 -3.40,12.33 -3.25,8.50 -2.87,5.99 -2.49,3.48 -2.28,1.60 -2.08,-0.27 -2.01,-0.52 -1.95,-0.76 -1.83,-0.98 -1.71,-1.21 -1.54,-1.39 -1.37,-1.58 -1.16,-1.72 -0.95,-1.86 -0.71,-1.95 -0.47,-2.04 -0.22,-2.07 0.02,-2.09 0.27,-2.06 0.52,-2.03 0.76,-1.93 0.99,-1.84 1.20,-1.70 1.41,-1.55 1.57,-1.36 1.74,-1.17 1.85,-0.94 1.97,-0.72 2.02,-0.47 2.08,-0.22 2.08,0.02 2.08,0.27 2.08,0.27 L 2.08,0.27 Z"></path></g><g transform="translate(116.16233256954433 459.84759619636407) rotate(0 -4.347826086956502 5.217391304347984)" stroke="none" fill="#000000"><path d="M 1.87,1.87 Q 1.87,1.87 0.86,2.85 -0.14,3.84 -1.03,5.18 -1.93,6.53 -2.93,7.80 -3.94,9.07 -5.23,10.74 -6.53,12.41 -6.90,12.70 -7.27,13.00 -7.72,13.16 -8.17,13.32 -8.64,13.32 -9.12,13.33 -9.57,13.19 -10.02,13.04 -10.40,12.76 -10.79,12.48 -11.06,12.09 -11.33,11.71 -11.47,11.25 -11.60,10.80 -11.58,10.32 -11.57,9.85 -11.40,9.40 -11.23,8.96 -10.93,8.59 -10.63,8.23 -10.22,7.98 -9.82,7.72 -9.36,7.61 -8.90,7.50 -8.43,7.55 -7.95,7.59 -7.52,7.78 -7.09,7.97 -6.74,8.29 -6.39,8.62 -6.16,9.03 -5.93,9.45 -5.84,9.91 -5.76,10.38 -5.83,10.85 -5.90,11.32 -6.11,11.74 -6.33,12.17 -6.66,12.50 -7.00,12.83 -7.43,13.04 -7.86,13.24 -8.33,13.30 -8.80,13.36 -9.27,13.27 -9.73,13.17 -10.14,12.93 -10.55,12.70 -10.86,12.34 -11.18,11.98 -11.36,11.55 -11.54,11.11 -11.58,10.64 -11.61,10.16 -11.49,9.70 -11.37,9.24 -11.11,8.85 -10.85,8.45 -10.85,8.45 -10.85,8.45 -9.07,6.28 -7.29,4.11 -6.30,3.09 -5.31,2.07 -4.58,1.11 -3.85,0.15 -2.86,-0.85 -1.87,-1.87 -1.62,-2.06 -1.36,-2.26 -1.07,-2.39 -0.78,-2.52 -0.47,-2.58 -0.15,-2.64 0.15,-2.62 0.47,-2.60 0.78,-2.50 1.08,-2.41 1.35,-2.24 1.63,-2.08 1.85,-1.85 2.08,-1.63 2.24,-1.35 2.41,-1.08 2.50,-0.78 2.60,-0.47 2.62,-0.15 2.64,0.15 2.58,0.47 2.52,0.78 2.39,1.07 2.26,1.36 2.06,1.62 1.87,1.87 1.87,1.87 L 1.87,1.87 Z"></path></g><g transform="translate(120.51015865650083 462.45629184853806) rotate(0 3.2608695652173765 6.304347826086996)" stroke="none" fill="#000000"><path d="M 2.15,-1.53 Q 2.15,-1.53 2.79,-0.67 3.44,0.18 4.21,1.33 4.99,2.48 5.54,3.45 6.10,4.41 6.70,5.57 7.31,6.73 8.25,9.01 9.19,11.29 9.33,11.75 9.47,12.21 9.45,12.69 9.44,13.17 9.27,13.62 9.11,14.07 8.80,14.45 8.50,14.82 8.09,15.08 7.69,15.34 7.22,15.46 6.75,15.57 6.27,15.53 5.79,15.49 5.35,15.30 4.91,15.11 4.55,14.79 4.19,14.46 3.96,14.04 3.72,13.62 3.63,13.15 3.54,12.68 3.61,12.20 3.67,11.72 3.89,11.29 4.10,10.86 4.44,10.52 4.78,10.18 5.22,9.97 5.65,9.76 6.13,9.69 6.60,9.63 7.08,9.72 7.55,9.81 7.97,10.05 8.39,10.29 8.71,10.65 9.03,11.01 9.22,11.45 9.41,11.89 9.45,12.37 9.48,12.85 9.37,13.32 9.25,13.79 8.99,14.19 8.73,14.60 8.35,14.90 7.98,15.20 7.52,15.36 7.07,15.53 6.59,15.54 6.11,15.55 5.65,15.41 5.19,15.27 4.80,14.99 4.41,14.70 4.13,14.31 3.85,13.92 3.85,13.92 3.85,13.92 2.89,11.04 1.94,8.17 1.25,6.83 0.56,5.50 -0.18,4.40 -0.94,3.31 -1.54,2.42 -2.15,1.53 -2.30,1.25 -2.45,0.97 -2.53,0.66 -2.62,0.36 -2.62,0.04 -2.63,-0.27 -2.55,-0.58 -2.48,-0.89 -2.34,-1.18 -2.20,-1.46 -1.99,-1.70 -1.78,-1.95 -1.52,-2.13 -1.26,-2.32 -0.97,-2.44 -0.67,-2.55 -0.35,-2.60 -0.04,-2.64 0.27,-2.61 0.59,-2.57 0.89,-2.46 1.19,-2.36 1.45,-2.18 1.72,-2.00 1.93,-1.77 2.15,-1.53 2.15,-1.53 L 2.15,-1.53 Z"></path></g><g transform="translate(30 490) rotate(0 75 12.5)"><text x="0" y="18" font-family="Virgil, Segoe UI Emoji" font-size="20px" fill="#000000" text-anchor="start" style="white-space: pre;" direction="ltr">modify ca -&gt; cb</text></g><g transform="translate(358.3362456130226 447.67368315288604) rotate(0 0.21739130434787057 13.913043478260533)" stroke="none" fill="#000000"><path d="M 2.25,-0.08 Q 2.25,-0.08 2.25,3.42 2.25,6.92 2.21,9.55 2.17,12.18 2.13,14.43 2.08,16.67 2.13,18.38 2.18,20.08 2.27,21.30 2.36,22.53 2.50,25.17 2.64,27.82 2.58,28.17 2.52,28.53 2.36,28.84 2.19,29.16 1.93,29.40 1.67,29.65 1.35,29.80 1.02,29.95 0.67,29.99 0.31,30.03 -0.03,29.95 -0.38,29.87 -0.68,29.69 -0.99,29.51 -1.22,29.23 -1.45,28.96 -1.58,28.63 -1.72,28.30 -1.74,27.94 -1.76,27.58 -1.66,27.24 -1.57,26.89 -1.37,26.60 -1.16,26.30 -0.88,26.09 -0.60,25.87 -0.26,25.76 0.07,25.64 0.43,25.64 0.79,25.64 1.12,25.75 1.46,25.87 1.75,26.09 2.03,26.30 2.23,26.60 2.43,26.89 2.53,27.24 2.63,27.58 2.61,27.94 2.59,28.30 2.46,28.63 2.32,28.96 2.09,29.23 1.86,29.50 1.55,29.69 1.25,29.87 0.90,29.95 0.55,30.03 0.19,29.99 -0.15,29.95 -0.47,29.80 -0.80,29.65 -1.06,29.40 -1.32,29.16 -1.49,28.84 -1.65,28.53 -1.71,28.17 -1.77,27.82 -1.77,27.82 -1.77,27.82 -1.64,25.18 -1.51,22.54 -1.42,21.32 -1.34,20.10 -1.31,18.40 -1.28,16.71 -1.37,14.48 -1.46,12.26 -1.61,9.66 -1.75,7.07 -2.00,3.57 -2.25,0.08 -2.23,-0.19 -2.21,-0.46 -2.12,-0.71 -2.03,-0.97 -1.88,-1.20 -1.74,-1.43 -1.54,-1.62 -1.34,-1.81 -1.11,-1.94 -0.87,-2.08 -0.61,-2.15 -0.35,-2.23 -0.07,-2.24 0.19,-2.24 0.45,-2.19 0.72,-2.13 0.97,-2.02 1.21,-1.90 1.42,-1.72 1.63,-1.55 1.79,-1.33 1.96,-1.11 2.06,-0.86 2.17,-0.61 2.21,-0.34 2.25,-0.08 2.25,-0.08 L 2.25,-0.08 Z"></path></g><g transform="translate(357.0318977869356 449.84759619636407) rotate(0 -2.6086956521738784 3.4782608695650197)" stroke="none" fill="#000000"><path d="M 1.86,1.63 Q 1.86,1.63 1.00,2.64 0.13,3.65 -1.47,6.11 -3.08,8.58 -3.39,8.88 -3.71,9.18 -4.10,9.36 -4.50,9.54 -4.93,9.59 -5.36,9.63 -5.79,9.54 -6.21,9.44 -6.58,9.22 -6.95,9.00 -7.24,8.66 -7.52,8.33 -7.68,7.93 -7.84,7.52 -7.86,7.09 -7.88,6.66 -7.76,6.24 -7.65,5.82 -7.40,5.46 -7.16,5.10 -6.81,4.84 -6.47,4.58 -6.05,4.44 -5.64,4.30 -5.21,4.30 -4.77,4.30 -4.36,4.44 -3.95,4.58 -3.60,4.84 -3.26,5.11 -3.02,5.47 -2.77,5.83 -2.66,6.25 -2.54,6.67 -2.57,7.10 -2.59,7.53 -2.75,7.94 -2.91,8.34 -3.20,8.67 -3.48,9.00 -3.85,9.23 -4.22,9.45 -4.65,9.54 -5.07,9.63 -5.50,9.59 -5.94,9.54 -6.33,9.35 -6.72,9.17 -7.04,8.87 -7.35,8.57 -7.56,8.19 -7.76,7.80 -7.83,7.37 -7.90,6.95 -7.83,6.52 -7.76,6.09 -7.55,5.71 -7.35,5.32 -7.35,5.32 -7.35,5.32 -5.49,2.83 -3.63,0.34 -2.75,-0.64 -1.86,-1.63 -1.64,-1.83 -1.42,-2.03 -1.15,-2.17 -0.89,-2.31 -0.60,-2.38 -0.31,-2.46 -0.01,-2.46 0.28,-2.46 0.57,-2.39 0.86,-2.32 1.13,-2.18 1.39,-2.05 1.62,-1.85 1.84,-1.65 2.02,-1.41 2.19,-1.16 2.29,-0.88 2.40,-0.60 2.44,-0.31 2.48,-0.01 2.44,0.28 2.41,0.57 2.31,0.86 2.20,1.14 2.03,1.38 1.86,1.63 1.86,1.63 L 1.86,1.63 Z"></path></g><g transform="translate(360.9449412651966 449.84759619636407) rotate(0 3.695652173913004 1.304347826086996)" stroke="none" fill="#000000"><path d="M 1.40,-2.11 Q 1.40,-2.11 2.18,-1.64 2.95,-1.18 4.06,-0.99 5.18,-0.79 6.60,-0.51 8.02,-0.22 8.46,-0.04 8.90,0.12 9.25,0.43 9.61,0.73 9.85,1.14 10.09,1.54 10.19,2.00 10.29,2.46 10.23,2.93 10.18,3.39 9.98,3.82 9.78,4.25 9.46,4.58 9.13,4.92 8.72,5.14 8.30,5.36 7.84,5.43 7.37,5.51 6.91,5.43 6.45,5.35 6.03,5.13 5.62,4.91 5.30,4.56 4.97,4.22 4.78,3.79 4.58,3.37 4.54,2.90 4.49,2.43 4.59,1.97 4.69,1.52 4.94,1.11 5.18,0.71 5.54,0.41 5.90,0.11 6.34,-0.05 6.78,-0.23 7.25,-0.25 7.71,-0.27 8.17,-0.14 8.62,-0.02 9.01,0.24 9.39,0.51 9.68,0.88 9.96,1.26 10.11,1.70 10.25,2.15 10.25,2.62 10.25,3.09 10.10,3.53 9.95,3.98 9.66,4.35 9.37,4.72 8.98,4.98 8.59,5.25 8.14,5.37 7.69,5.49 7.22,5.46 6.75,5.44 6.75,5.44 6.75,5.44 4.72,4.88 2.70,4.32 1.37,3.75 0.04,3.18 -0.68,2.64 -1.40,2.11 -1.64,1.91 -1.87,1.71 -2.05,1.46 -2.22,1.21 -2.34,0.93 -2.45,0.64 -2.49,0.34 -2.53,0.04 -2.50,-0.26 -2.47,-0.56 -2.37,-0.85 -2.26,-1.14 -2.09,-1.39 -1.92,-1.65 -1.70,-1.86 -1.47,-2.06 -1.20,-2.21 -0.93,-2.35 -0.64,-2.43 -0.34,-2.51 -0.04,-2.52 0.26,-2.52 0.56,-2.45 0.86,-2.38 1.13,-2.25 1.40,-2.11 1.40,-2.11 L 1.40,-2.11 Z"></path></g><g transform="translate(330 470) rotate(0 39 12.5)"><text x="0" y="18" font-family="Virgil, Segoe UI Emoji" font-size="20px" fill="#000000" text-anchor="start" style="white-space: pre;" direction="ltr">cb -&gt; cc</text></g><g transform="translate(363.11885430867505 427.67368315288513) rotate(0 73.47826086956525 -0.4347826086959685)" stroke="none" fill="#000000"><path d="M 0,-2.46 Q 0,-2.46 2.49,-2.31 4.99,-2.16 6.56,-2.17 8.12,-2.18 9.53,-2.21 10.95,-2.24 12.82,-2.46 14.69,-2.69 15.98,-2.88 17.28,-3.07 18.42,-3.19 19.55,-3.31 21.60,-3.43 23.66,-3.54 25.33,-3.62 27.00,-3.69 28.36,-3.67 29.72,-3.65 30.80,-3.67 31.88,-3.68 33.09,-3.68 34.30,-3.68 36.49,-3.70 38.68,-3.71 40.99,-3.71 43.29,-3.71 44.72,-3.68 46.15,-3.65 47.38,-3.64 48.61,-3.64 49.88,-3.64 51.16,-3.63 53.64,-3.62 56.12,-3.61 58.11,-3.47 60.10,-3.33 62.07,-3.22 64.04,-3.11 66.00,-3.03 67.96,-2.95 69.92,-2.89 71.88,-2.84 73.84,-2.79 75.80,-2.75 77.38,-2.78 78.96,-2.82 80.38,-2.87 81.81,-2.92 83.28,-2.96 84.76,-2.99 86.14,-3.03 87.52,-3.07 88.96,-3.19 90.40,-3.31 91.63,-3.41 92.85,-3.50 94.60,-3.61 96.34,-3.72 98.34,-3.75 100.34,-3.78 102.12,-3.81 103.91,-3.85 105.05,-3.90 106.19,-3.94 108.30,-3.96 110.41,-3.98 112.59,-3.95 114.78,-3.93 116.70,-3.94 118.63,-3.95 120.40,-3.97 122.17,-3.98 123.31,-4.02 124.45,-4.05 126.23,-4.05 128.00,-4.05 129.60,-4.06 131.20,-4.08 132.81,-4.09 134.42,-4.10 135.53,-4.13 136.64,-4.15 138.24,-4.18 139.84,-4.22 141.32,-4.25 142.80,-4.28 144.88,-4.29 146.95,-4.29 147.50,-4.21 148.05,-4.12 148.54,-3.86 149.03,-3.60 149.41,-3.19 149.79,-2.79 150.02,-2.29 150.26,-1.78 150.32,-1.23 150.38,-0.68 150.26,-0.14 150.14,0.40 149.85,0.87 149.57,1.35 149.14,1.71 148.72,2.06 148.20,2.27 147.69,2.48 147.13,2.51 146.58,2.54 146.05,2.39 145.51,2.24 145.05,1.93 144.59,1.62 144.26,1.17 143.92,0.73 143.74,0.21 143.57,-0.31 143.57,-0.87 143.57,-1.42 143.74,-1.95 143.92,-2.47 144.26,-2.91 144.59,-3.36 145.05,-3.67 145.51,-3.98 146.05,-4.13 146.58,-4.27 147.14,-4.24 147.69,-4.21 148.21,-4.01 148.72,-3.80 149.14,-3.44 149.57,-3.08 149.85,-2.61 150.14,-2.13 150.26,-1.59 150.38,-1.05 150.32,-0.50 150.26,0.04 150.02,0.55 149.79,1.05 149.41,1.45 149.03,1.86 148.54,2.12 148.05,2.38 147.50,2.47 146.95,2.56 146.95,2.56 146.95,2.56 144.88,2.55 142.80,2.54 141.32,2.51 139.84,2.48 138.24,2.45 136.64,2.41 135.53,2.39 134.42,2.36 132.81,2.35 131.20,2.34 129.60,2.32 128.00,2.31 126.23,2.31 124.45,2.31 123.31,2.28 122.17,2.24 120.40,2.23 118.63,2.21 116.70,2.20 114.78,2.19 112.59,2.21 110.41,2.24 108.30,2.22 106.19,2.20 105.05,2.16 103.91,2.11 102.12,2.07 100.34,2.04 98.34,2.01 96.34,1.98 94.60,1.87 92.85,1.76 91.63,1.67 90.40,1.57 88.96,1.45 87.52,1.33 86.14,1.29 84.76,1.25 83.28,1.22 81.81,1.18 80.38,1.13 78.96,1.08 77.38,1.04 75.80,1.01 73.84,1.05 71.88,1.10 69.92,1.16 67.96,1.22 66.00,1.30 64.04,1.37 62.07,1.48 60.10,1.59 58.11,1.73 56.12,1.87 53.64,1.88 51.16,1.89 49.88,1.90 48.61,1.90 47.38,1.91 46.15,1.91 44.72,1.94 43.29,1.97 40.99,1.97 38.68,1.97 36.49,1.96 34.30,1.94 33.09,1.94 31.88,1.94 30.80,1.93 29.73,1.92 27.53,1.91 25.34,1.90 23.53,1.86 21.72,1.81 19.84,1.84 17.95,1.86 16.61,2.02 15.27,2.19 13.11,2.21 10.95,2.24 9.53,2.21 8.12,2.18 6.56,2.17 4.99,2.16 2.49,2.31 0,2.46 -0.29,2.42 -0.58,2.39 -0.86,2.28 -1.14,2.18 -1.38,2.01 -1.63,1.84 -1.82,1.62 -2.02,1.39 -2.16,1.13 -2.30,0.87 -2.37,0.58 -2.44,0.29 -2.44,-0.00 -2.44,-0.29 -2.37,-0.58 -2.30,-0.87 -2.16,-1.13 -2.02,-1.39 -1.82,-1.62 -1.63,-1.84 -1.38,-2.01 -1.14,-2.18 -0.86,-2.28 -0.58,-2.39 -0.29,-2.42 0.00,-2.46 0.00,-2.46 L 0,-2.46 Z"></path></g><g transform="translate(511.81450648258806 412.45629184853715) rotate(0 -0.8695652173912549 6.956521739130494)" stroke="none" fill="#000000"><path d="M 2.60,0.57 Q 2.60,0.57 2.36,1.70 2.13,2.83 2.08,4.04 2.03,5.26 1.65,7.36 1.27,9.46 1.33,11.70 1.39,13.93 1.30,14.43 1.22,14.93 0.98,15.38 0.74,15.82 0.36,16.17 -0.00,16.52 -0.46,16.72 -0.92,16.93 -1.42,16.98 -1.93,17.04 -2.42,16.92 -2.92,16.81 -3.35,16.55 -3.78,16.28 -4.11,15.89 -4.43,15.50 -4.62,15.03 -4.80,14.56 -4.82,14.05 -4.85,13.54 -4.71,13.06 -4.57,12.57 -4.28,12.15 -3.99,11.74 -3.59,11.43 -3.18,11.13 -2.70,10.97 -2.22,10.81 -1.71,10.82 -1.20,10.82 -0.72,10.99 -0.24,11.15 0.15,11.46 0.55,11.77 0.83,12.19 1.11,12.61 1.24,13.10 1.37,13.59 1.34,14.10 1.31,14.61 1.12,15.08 0.93,15.54 0.60,15.93 0.27,16.31 -0.16,16.57 -0.60,16.83 -1.09,16.93 -1.59,17.04 -2.09,16.98 -2.60,16.92 -3.05,16.70 -3.51,16.49 -3.88,16.14 -4.24,15.78 -4.48,15.33 -4.71,14.88 -4.79,14.38 -4.87,13.88 -4.87,13.88 -4.87,13.88 -4.71,11.04 -4.55,8.19 -4.09,6.54 -3.63,4.88 -3.38,3.27 -3.13,1.66 -2.86,0.54 -2.60,-0.57 -2.49,-0.88 -2.38,-1.18 -2.21,-1.45 -2.03,-1.72 -1.79,-1.93 -1.56,-2.15 -1.28,-2.31 -1.00,-2.46 -0.69,-2.55 -0.38,-2.63 -0.06,-2.64 0.26,-2.65 0.57,-2.58 0.88,-2.51 1.17,-2.36 1.46,-2.22 1.70,-2.01 1.95,-1.81 2.14,-1.55 2.33,-1.29 2.45,-0.99 2.57,-0.69 2.61,-0.37 2.66,-0.06 2.63,0.25 2.60,0.57 2.60,0.57 L 2.60,0.57 Z"></path></g><g transform="translate(190 390) rotate(0 27 12.5)"><text x="0" y="18" font-family="Virgil, Segoe UI Emoji" font-size="20px" fill="#000000" text-anchor="start" style="white-space: pre;" direction="ltr">ca/cb</text></g><g transform="translate(410 390) rotate(0 29.5 12.5)"><text x="0" y="18" font-family="Virgil, Segoe UI Emoji" font-size="20px" fill="#000000" text-anchor="start" style="white-space: pre;" direction="ltr">pre/cc</text></g><g transform="translate(67.9014630043273 353.76063967462414) rotate(0 124.3478260869565 7.826086956521522)" stroke="none" fill="#000000"><path d="M 2.56,-0.73 Q 2.56,-0.73 2.85,0.13 3.13,1.00 3.30,2.05 3.47,3.11 3.93,4.09 4.39,5.07 4.56,6.63 4.72,8.18 4.81,9.62 4.89,11.07 4.94,12.40 4.99,13.74 5.64,12.88 6.30,12.01 7.58,11.93 8.86,11.85 11.60,11.77 14.34,11.70 17.56,11.26 20.78,10.82 23.80,10.67 26.82,10.52 29.13,10.26 31.45,10.00 34.16,9.91 36.88,9.82 38.60,9.41 40.32,8.99 41.95,8.73 43.58,8.46 45.04,8.31 46.50,8.16 48.89,8.21 51.28,8.26 53.03,8.23 54.79,8.19 56.66,8.19 58.53,8.19 60.45,8.21 62.37,8.22 64.31,8.24 66.26,8.25 68.58,8.31 70.91,8.37 73.32,8.17 75.73,7.96 78.84,7.88 81.95,7.80 85.51,7.78 89.08,7.76 92.59,7.76 96.11,7.75 100.35,7.76 104.59,7.76 109.02,7.77 113.45,7.77 119.08,7.78 124.71,7.78 129.11,7.78 133.50,7.79 136.62,7.79 139.73,7.79 142.56,7.80 145.38,7.80 148.08,7.80 150.79,7.80 153.18,7.80 155.58,7.81 158.20,8.19 160.81,8.57 163.82,8.73 166.83,8.88 170.29,9.20 173.74,9.52 176.87,10.04 180.00,10.55 182.14,10.76 184.29,10.98 185.94,10.98 187.59,10.98 189.29,10.96 190.98,10.94 192.82,10.93 194.66,10.93 196.45,10.90 198.23,10.88 200.49,10.94 202.74,11.00 205.33,11.04 207.91,11.08 211.01,11.11 214.11,11.14 217.18,11.16 220.24,11.18 222.67,11.19 225.10,11.21 227.26,11.22 229.41,11.23 231.83,11.24 234.25,11.25 236.84,11.51 239.43,11.77 241.36,11.83 243.28,11.90 246.01,11.86 248.74,11.82 249.00,11.87 249.26,11.92 249.50,12.05 249.73,12.19 249.91,12.39 250.09,12.58 250.19,12.83 250.30,13.08 250.32,13.34 250.34,13.61 250.27,13.87 250.21,14.13 250.06,14.35 249.92,14.58 249.71,14.75 249.50,14.91 249.25,15.01 249.00,15.10 248.73,15.10 248.46,15.11 248.21,15.03 247.95,14.95 247.74,14.80 247.52,14.64 247.36,14.42 247.21,14.21 247.13,13.95 247.05,13.69 247.06,13.43 247.07,13.16 247.16,12.91 247.25,12.66 247.42,12.45 247.59,12.24 247.81,12.10 248.04,11.95 248.30,11.89 248.56,11.82 248.83,11.85 249.09,11.87 249.34,11.98 249.58,12.08 249.78,12.26 249.98,12.44 250.11,12.67 250.24,12.91 250.29,13.17 250.34,13.43 250.31,13.70 250.27,13.96 250.15,14.20 250.03,14.44 249.84,14.63 249.65,14.82 249.41,14.94 249.17,15.05 248.91,15.09 248.64,15.13 248.64,15.13 248.64,15.13 245.88,14.93 243.12,14.73 241.15,14.58 239.17,14.44 236.71,14.20 234.25,13.96 231.83,13.97 229.41,13.98 227.26,13.99 225.10,14.00 222.67,14.01 220.24,14.03 217.18,14.05 214.11,14.07 211.01,14.10 207.91,14.13 205.33,14.16 202.74,14.20 200.48,14.25 198.22,14.30 196.42,14.27 194.63,14.23 192.77,14.19 190.90,14.15 189.17,14.05 187.43,13.95 185.73,13.77 184.03,13.59 181.80,13.37 179.57,13.15 176.53,12.64 173.50,12.14 170.10,11.82 166.69,11.51 163.56,11.34 160.43,11.18 158.00,10.81 155.58,10.45 153.18,10.45 150.79,10.45 148.08,10.45 145.38,10.45 142.56,10.45 139.73,10.46 136.62,10.46 133.50,10.46 129.11,10.47 124.71,10.47 119.08,10.48 113.45,10.49 109.02,10.50 104.60,10.51 100.36,10.53 96.12,10.55 92.62,10.59 89.11,10.63 85.58,10.69 82.05,10.76 79.04,10.89 76.04,11.03 73.47,11.33 70.91,11.62 68.58,11.68 66.26,11.74 64.32,11.76 62.38,11.78 60.46,11.80 58.54,11.81 56.68,11.83 54.82,11.84 53.08,11.83 51.33,11.83 49.03,11.94 46.72,12.06 45.37,12.07 44.02,12.08 42.56,12.19 41.10,12.30 39.09,12.77 37.09,13.23 34.55,13.45 32.01,13.67 29.60,14.14 27.20,14.60 24.42,14.99 21.64,15.37 18.27,16.17 14.90,16.98 12.13,17.49 9.36,17.99 8.26,18.10 7.16,18.21 5.18,18.56 3.19,18.90 1.90,18.57 0.61,18.24 -0.14,17.45 -0.90,16.67 -1.20,15.21 -1.51,13.75 -1.46,12.42 -1.41,11.09 -1.36,9.76 -1.31,8.43 -1.30,7.19 -1.28,5.95 -1.71,4.22 -2.13,2.49 -2.35,1.61 -2.56,0.73 -2.61,0.41 -2.66,0.09 -2.64,-0.22 -2.61,-0.54 -2.51,-0.84 -2.40,-1.15 -2.23,-1.42 -2.06,-1.69 -1.82,-1.91 -1.59,-2.14 -1.31,-2.30 -1.03,-2.46 -0.72,-2.54 -0.41,-2.63 -0.09,-2.64 0.22,-2.66 0.53,-2.59 0.85,-2.53 1.14,-2.39 1.43,-2.25 1.68,-2.04 1.93,-1.84 2.12,-1.58 2.31,-1.32 2.44,-1.03 2.56,-0.73 2.56,-0.73 L 2.56,-0.73 Z"></path></g><g transform="translate(314.42320213476205 356.8041179354932) rotate(0 -0.652173913043498 5.217391304347984)" stroke="none" fill="#000000"><path d="M 2.42,0.32 Q 2.42,0.32 2.09,2.18 1.75,4.05 1.72,5.72 1.68,7.39 1.45,9.19 1.21,10.98 1.06,11.37 0.91,11.76 0.63,12.08 0.36,12.40 0.01,12.61 -0.34,12.83 -0.75,12.92 -1.16,13.01 -1.57,12.96 -1.99,12.92 -2.37,12.74 -2.75,12.57 -3.05,12.28 -3.36,11.99 -3.55,11.63 -3.75,11.26 -3.81,10.84 -3.88,10.43 -3.82,10.02 -3.75,9.61 -3.55,9.24 -3.36,8.87 -3.05,8.58 -2.75,8.29 -2.37,8.12 -1.99,7.94 -1.58,7.90 -1.16,7.85 -0.75,7.94 -0.34,8.03 0.00,8.24 0.36,8.46 0.63,8.78 0.90,9.10 1.06,9.49 1.21,9.87 1.24,10.29 1.26,10.71 1.15,11.11 1.04,11.51 0.80,11.86 0.57,12.21 0.23,12.46 -0.09,12.71 -0.48,12.85 -0.88,12.98 -1.30,12.98 -1.72,12.98 -2.11,12.85 -2.51,12.71 -2.84,12.46 -3.17,12.21 -3.41,11.86 -3.64,11.52 -3.76,11.11 -3.87,10.71 -3.85,10.29 -3.82,9.88 -3.82,9.88 -3.82,9.88 -3.45,7.74 -3.08,5.60 -2.92,4.52 -2.75,3.44 -2.59,1.56 -2.42,-0.32 -2.35,-0.60 -2.27,-0.89 -2.13,-1.15 -1.99,-1.41 -1.80,-1.63 -1.60,-1.85 -1.35,-2.01 -1.11,-2.18 -0.83,-2.28 -0.55,-2.38 -0.26,-2.41 0.02,-2.44 0.32,-2.40 0.61,-2.37 0.88,-2.26 1.16,-2.15 1.40,-1.98 1.64,-1.81 1.83,-1.59 2.03,-1.36 2.16,-1.10 2.29,-0.84 2.36,-0.55 2.43,-0.26 2.43,0.02 2.42,0.32 2.42,0.32 L 2.42,0.32 Z"></path></g><g transform="translate(313.11885430867505 367.23890054418916) rotate(0 143.2608695652175 -1.304347826086996)" stroke="none" fill="#000000"><path d="M -0.63,-1.59 Q -0.63,-1.59 0.58,-2.17 1.80,-2.75 3.27,-3.08 4.73,-3.42 6.51,-3.53 8.29,-3.64 10.43,-3.82 12.58,-4.01 18.37,-4.07 24.16,-4.12 29.96,-4.12 35.77,-4.12 39.60,-4.11 43.44,-4.09 47.58,-4.07 51.71,-4.05 56.09,-4.04 60.47,-4.02 64.96,-4.01 69.45,-3.99 75.23,-3.98 81.01,-3.97 89.97,-3.97 98.93,-3.96 106.73,-3.95 114.54,-3.95 121.61,-3.94 128.68,-3.94 134.43,-3.94 140.18,-3.93 145.01,-3.93 149.83,-3.93 154.00,-3.93 158.17,-3.93 161.57,-3.92 164.97,-3.92 168.42,-3.92 171.86,-3.92 176.57,-3.92 181.29,-3.92 186.42,-3.92 191.54,-3.92 197.22,-3.92 202.90,-3.92 209.07,-3.92 215.23,-3.92 220.98,-3.92 226.72,-3.92 233.04,-3.92 239.35,-3.92 244.91,-3.92 250.47,-3.92 254.71,-3.92 258.95,-3.92 261.75,-3.92 264.55,-3.92 266.24,-4.00 267.93,-4.09 269.27,-4.19 270.62,-4.30 271.69,-4.39 272.76,-4.49 274.01,-4.64 275.27,-4.79 276.47,-4.91 277.68,-5.02 278.84,-4.77 279.99,-4.52 281.39,-4.50 282.78,-4.49 284.67,-4.50 286.55,-4.50 286.99,-4.42 287.43,-4.34 287.83,-4.13 288.22,-3.91 288.52,-3.58 288.83,-3.26 289.01,-2.85 289.19,-2.44 289.23,-1.99 289.28,-1.55 289.17,-1.11 289.07,-0.68 288.84,-0.30 288.60,0.07 288.26,0.36 287.91,0.64 287.49,0.80 287.08,0.96 286.63,0.98 286.18,1.00 285.75,0.88 285.32,0.75 284.95,0.49 284.59,0.24 284.32,-0.11 284.06,-0.47 283.92,-0.90 283.78,-1.32 283.79,-1.77 283.79,-2.22 283.94,-2.64 284.09,-3.06 284.37,-3.41 284.64,-3.77 285.02,-4.01 285.39,-4.26 285.82,-4.37 286.25,-4.49 286.70,-4.46 287.15,-4.43 287.56,-4.26 287.97,-4.08 288.31,-3.79 288.65,-3.50 288.87,-3.11 289.10,-2.72 289.19,-2.28 289.28,-1.85 289.23,-1.40 289.17,-0.96 288.98,-0.55 288.79,-0.15 288.47,0.16 288.16,0.48 287.76,0.68 287.36,0.89 286.92,0.96 286.48,1.02 286.48,1.02 286.48,1.02 283.54,0.86 280.60,0.70 279.11,0.25 277.61,-0.19 276.44,-0.30 275.27,-0.41 274.01,-0.56 272.76,-0.71 271.69,-0.81 270.62,-0.91 269.27,-1.02 267.93,-1.12 266.24,-1.21 264.55,-1.29 261.75,-1.29 258.95,-1.29 254.71,-1.29 250.47,-1.29 244.91,-1.29 239.35,-1.29 233.04,-1.29 226.72,-1.29 220.98,-1.29 215.23,-1.29 209.07,-1.29 202.90,-1.29 197.22,-1.29 191.54,-1.29 186.42,-1.29 181.29,-1.29 176.57,-1.29 171.86,-1.29 168.42,-1.29 164.97,-1.28 161.57,-1.28 158.17,-1.28 154.00,-1.28 149.83,-1.28 145.01,-1.28 140.18,-1.27 134.43,-1.27 128.68,-1.27 121.61,-1.26 114.54,-1.26 106.73,-1.25 98.93,-1.25 89.97,-1.24 81.01,-1.23 75.23,-1.22 69.45,-1.21 64.96,-1.19 60.48,-1.18 56.10,-1.15 51.72,-1.13 47.59,-1.09 43.46,-1.05 39.63,-0.99 35.79,-0.93 30.01,-0.83 24.23,-0.72 18.64,-0.53 13.05,-0.35 10.78,0.03 8.51,0.43 6.95,0.50 5.39,0.57 4.29,0.66 3.19,0.75 1.91,1.17 0.63,1.59 0.43,1.65 0.23,1.70 0.03,1.70 -0.17,1.71 -0.37,1.66 -0.58,1.61 -0.76,1.52 -0.95,1.43 -1.10,1.29 -1.26,1.16 -1.38,0.99 -1.50,0.82 -1.58,0.63 -1.66,0.44 -1.69,0.23 -1.72,0.03 -1.69,-0.17 -1.67,-0.38 -1.60,-0.57 -1.53,-0.77 -1.42,-0.94 -1.30,-1.11 -1.15,-1.25 -1.00,-1.39 -0.82,-1.49 -0.63,-1.59 -0.63,-1.59 L -0.63,-1.59 Z"></path></g><g transform="translate(598.336245613023 355.06498750071114) rotate(0 0 5.434782608695514)" stroke="none" fill="#000000"><path d="M 2.48,0 Q 2.48,0 2.45,1.62 2.42,3.24 2.45,4.44 2.48,5.63 2.58,8.25 2.67,10.86 2.60,11.29 2.53,11.72 2.32,12.10 2.12,12.48 1.81,12.78 1.49,13.08 1.10,13.26 0.71,13.44 0.28,13.49 -0.14,13.53 -0.56,13.44 -0.98,13.35 -1.35,13.12 -1.73,12.90 -2.00,12.57 -2.28,12.24 -2.44,11.84 -2.60,11.44 -2.63,11.01 -2.65,10.58 -2.54,10.16 -2.42,9.74 -2.18,9.38 -1.93,9.03 -1.59,8.77 -1.25,8.50 -0.84,8.37 -0.43,8.23 0.00,8.23 0.43,8.23 0.84,8.37 1.25,8.50 1.59,8.77 1.94,9.03 2.18,9.39 2.42,9.74 2.54,10.16 2.65,10.58 2.63,11.01 2.60,11.44 2.44,11.84 2.28,12.24 2.00,12.57 1.72,12.90 1.35,13.12 0.98,13.35 0.56,13.44 0.14,13.53 -0.28,13.49 -0.71,13.44 -1.10,13.26 -1.50,13.08 -1.81,12.78 -2.12,12.48 -2.33,12.10 -2.53,11.72 -2.60,11.29 -2.67,10.86 -2.67,10.86 -2.67,10.86 -2.58,8.25 -2.48,5.63 -2.45,4.44 -2.42,3.24 -2.45,1.62 -2.48,0 -2.45,-0.29 -2.41,-0.59 -2.31,-0.87 -2.20,-1.15 -2.03,-1.40 -1.86,-1.65 -1.63,-1.84 -1.41,-2.04 -1.14,-2.18 -0.88,-2.32 -0.59,-2.39 -0.29,-2.47 0.00,-2.47 0.30,-2.47 0.59,-2.39 0.88,-2.32 1.14,-2.18 1.41,-2.04 1.63,-1.84 1.86,-1.65 2.03,-1.40 2.20,-1.15 2.31,-0.87 2.41,-0.59 2.45,-0.29 2.48,0.00 2.48,0.00 L 2.48,0 Z"></path></g><g transform="translate(170 330) rotate(0 27 12.5)"><text x="0" y="18" font-family="Virgil, Segoe UI Emoji" font-size="20px" fill="#000000" text-anchor="start" style="white-space: pre;" direction="ltr">ba/bb</text></g><g transform="translate(430 330) rotate(0 30 12.5)"><text x="0" y="18" font-family="Virgil, Segoe UI Emoji" font-size="20px" fill="#000000" text-anchor="start" style="white-space: pre;" direction="ltr">pre/bc</text></g><g transform="translate(70.43478260869551 375.65217391304304) rotate(0 18.04347826086962 0.4347826086959685)" stroke="none" fill="#e67700"><path d="M 2.61,0.20 Q 2.61,0.20 2.44,1.82 2.27,3.44 3.51,3.17 4.75,2.90 6.50,2.80 8.25,2.71 9.81,2.32 11.38,1.93 12.64,1.81 13.90,1.69 15.56,1.63 17.23,1.56 18.90,1.54 20.57,1.51 21.77,1.08 22.97,0.64 24.33,0.59 25.69,0.53 26.89,0.51 28.08,0.50 29.47,0.49 30.86,0.49 32.43,0.50 34.00,0.50 33.63,-1.06 33.26,-2.63 33.26,-4.16 33.27,-5.69 33.37,-6.21 33.46,-6.73 33.71,-7.19 33.96,-7.65 34.35,-8.00 34.73,-8.36 35.21,-8.57 35.69,-8.78 36.21,-8.83 36.74,-8.88 37.25,-8.76 37.76,-8.64 38.21,-8.37 38.65,-8.09 38.99,-7.69 39.32,-7.28 39.51,-6.79 39.69,-6.30 39.72,-5.78 39.74,-5.25 39.59,-4.75 39.44,-4.24 39.14,-3.81 38.84,-3.38 38.42,-3.07 38.00,-2.76 37.50,-2.60 37.00,-2.44 36.47,-2.45 35.95,-2.45 35.45,-2.63 34.96,-2.80 34.54,-3.13 34.13,-3.45 33.84,-3.89 33.55,-4.33 33.42,-4.83 33.29,-5.34 33.32,-5.87 33.36,-6.39 33.56,-6.87 33.76,-7.36 34.11,-7.75 34.45,-8.15 34.90,-8.41 35.36,-8.68 35.87,-8.78 36.39,-8.89 36.91,-8.82 37.43,-8.76 37.90,-8.53 38.37,-8.31 38.75,-7.94 39.13,-7.57 39.37,-7.11 39.61,-6.64 39.68,-6.12 39.76,-5.60 39.76,-5.60 39.76,-5.60 39.70,-3.06 39.64,-0.52 39.62,1.48 39.59,3.49 38.79,4.71 38.00,5.92 36.00,6.62 34.00,7.31 32.43,7.32 30.86,7.33 29.48,7.33 28.10,7.33 26.95,7.32 25.80,7.31 24.47,7.31 23.15,7.30 21.98,7.67 20.82,8.04 19.57,8.03 18.33,8.03 17.10,8.00 15.88,7.97 14.55,7.94 13.23,7.91 12.06,7.97 10.89,8.03 8.83,8.32 6.77,8.62 5.47,8.65 4.17,8.68 2.61,8.82 1.05,8.95 -0.19,8.40 -1.44,7.85 -2.11,6.68 -2.77,5.52 -2.77,4.29 -2.77,3.05 -2.69,1.42 -2.61,-0.20 -2.55,-0.51 -2.49,-0.82 -2.35,-1.10 -2.22,-1.39 -2.02,-1.64 -1.82,-1.88 -1.57,-2.07 -1.32,-2.26 -1.03,-2.39 -0.73,-2.51 -0.42,-2.57 -0.11,-2.62 0.20,-2.59 0.51,-2.57 0.81,-2.47 1.11,-2.37 1.38,-2.20 1.65,-2.03 1.87,-1.81 2.09,-1.58 2.25,-1.31 2.41,-1.03 2.50,-0.73 2.58,-0.43 2.60,-0.11 2.61,0.20 2.61,0.20 L 2.61,0.20 Z"></path></g><g transform="translate(10 390) rotate(0 75 12.5)"><text x="0" y="18" font-family="Virgil, Segoe UI Emoji" font-size="20px" fill="#e67700" text-anchor="start" style="white-space: pre;" direction="ltr">test valid here</text></g><g transform="translate(190 230) rotate(0 144 12.5)"><text x="0" y="18" font-family="Virgil, Segoe UI Emoji" font-size="20px" fill="#087f5b" text-anchor="start" style="white-space: pre;" direction="ltr">these are the tree segments</text></g><g transform="translate(150 450) rotate(0 75 12.5)"><text x="0" y="18" font-family="Virgil, Segoe UI Emoji" font-size="20px" fill="#e67700" text-anchor="start" style="white-space: pre;" direction="ltr">test valid here</text></g><g transform="translate(30 10) rotate(0 289.5 100)"><text x="0" y="18" font-family="Virgil, Segoe UI Emoji" font-size="20px" fill="#000000" text-anchor="start" style="white-space: pre;" direction="ltr">Use divide and conquer on segment tree.</text><text x="0" y="43" font-family="Virgil, Segoe UI Emoji" font-size="20px" fill="#000000" text-anchor="start" style="white-space: pre;" direction="ltr">Time between two adjacent modification on a certain edge</text><text x="0" y="68" font-family="Virgil, Segoe UI Emoji" font-size="20px" fill="#000000" text-anchor="start" style="white-space: pre;" direction="ltr">can be seen as a segment.</text><text x="0" y="93" font-family="Virgil, Segoe UI Emoji" font-size="20px" fill="#000000" text-anchor="start" style="white-space: pre;" direction="ltr">When a segment is added the first time, check whether </text><text x="0" y="118" font-family="Virgil, Segoe UI Emoji" font-size="20px" fill="#000000" text-anchor="start" style="white-space: pre;" direction="ltr">this modification is valid or not.</text><text x="0" y="143" font-family="Virgil, Segoe UI Emoji" font-size="20px" fill="#000000" text-anchor="start" style="white-space: pre;" direction="ltr">If it is invalid, do not apply it on it's later occurrence.</text><text x="0" y="168" font-family="Virgil, Segoe UI Emoji" font-size="20px" fill="#000000" text-anchor="start" style="white-space: pre;" direction="ltr"></text><text x="0" y="193" font-family="Virgil, Segoe UI Emoji" font-size="20px" fill="#000000" text-anchor="start" style="white-space: pre;" direction="ltr">A Dsu can be used to check validity.</text></g><g transform="translate(111.90077287320219 440.4135037187916) rotate(0 100.35714285714289 1.0714285714288962)" stroke="none" fill="#e67700"><path d="M 2.25,-1.12 Q 2.25,-1.12 2.87,0.10 3.49,1.33 4.37,2.55 5.25,3.78 6.99,3.70 8.73,3.63 10.12,3.66 11.51,3.70 13.76,3.68 16.01,3.67 18.17,3.64 20.33,3.62 22.48,3.60 24.63,3.58 26.31,3.24 28.00,2.90 29.12,2.65 30.23,2.41 32.85,2.32 35.47,2.23 37.38,2.34 39.30,2.46 41.71,2.02 44.13,1.59 46.20,1.39 48.26,1.18 49.98,1.06 51.70,0.93 53.26,0.86 54.82,0.79 56.31,0.74 57.79,0.69 59.66,0.73 61.53,0.77 63.14,0.75 64.75,0.74 65.85,0.67 66.94,0.61 68.23,0.57 69.52,0.53 71.71,0.45 73.89,0.36 76.04,0.30 78.19,0.24 79.53,0.24 80.87,0.24 82.26,0.25 83.65,0.25 85.90,0.21 88.15,0.17 90.31,0.14 92.48,0.10 94.62,0.08 96.77,0.05 98.50,0.00 100.23,-0.04 101.40,-0.04 102.56,-0.04 103.88,-0.02 105.19,0.00 107.40,-0.00 109.60,-0.01 111.36,0.08 113.11,0.17 114.28,0.16 115.44,0.14 117.62,0.71 119.79,1.28 121.62,1.74 123.44,2.20 124.56,2.31 125.69,2.41 127.30,2.40 128.90,2.38 130.44,2.43 131.98,2.47 133.05,2.44 134.13,2.41 136.20,2.36 138.27,2.31 139.35,2.53 140.43,2.75 141.98,3.08 143.54,3.40 144.84,3.41 146.15,3.42 147.55,3.39 148.95,3.36 150.07,3.37 151.19,3.38 153.28,3.39 155.37,3.40 157.50,3.41 159.63,3.42 161.77,3.42 163.91,3.43 165.65,3.40 167.38,3.37 169.27,3.37 171.16,3.36 172.85,3.34 174.54,3.32 176.01,3.29 177.49,3.26 179.02,3.21 180.55,3.16 181.70,3.14 182.85,3.12 184.50,3.09 186.16,3.06 187.27,3.04 188.37,3.03 189.74,3.02 191.11,3.01 192.53,3.01 193.94,3.01 195.37,3.01 196.80,3.01 197.88,3.01 198.95,3.01 198.08,1.98 197.21,0.95 196.57,-1.33 195.92,-3.61 195.90,-4.17 195.88,-4.72 196.04,-5.25 196.20,-5.78 196.52,-6.23 196.84,-6.69 197.29,-7.01 197.74,-7.34 198.27,-7.50 198.79,-7.67 199.35,-7.66 199.90,-7.65 200.42,-7.46 200.95,-7.27 201.38,-6.93 201.81,-6.59 202.12,-6.12 202.42,-5.66 202.55,-5.12 202.69,-4.58 202.65,-4.03 202.61,-3.48 202.39,-2.97 202.18,-2.46 201.81,-2.04 201.44,-1.63 200.96,-1.35 200.48,-1.07 199.94,-0.97 199.40,-0.86 198.85,-0.93 198.30,-1.00 197.80,-1.24 197.30,-1.49 196.91,-1.87 196.51,-2.26 196.26,-2.76 196.01,-3.25 195.94,-3.80 195.86,-4.35 195.96,-4.90 196.06,-5.44 196.33,-5.92 196.60,-6.41 197.01,-6.78 197.42,-7.15 197.92,-7.38 198.43,-7.60 198.98,-7.65 199.54,-7.70 200.07,-7.57 200.61,-7.44 201.08,-7.14 201.55,-6.85 201.90,-6.42 202.25,-5.99 202.45,-5.47 202.64,-4.95 202.64,-4.95 202.64,-4.95 202.86,-3.70 203.08,-2.45 203.63,-0.10 204.18,2.24 204.10,3.57 204.02,4.90 203.68,6.08 203.33,7.25 202.47,8.12 201.62,9.00 200.40,9.42 199.18,9.84 197.99,9.84 196.80,9.84 195.37,9.84 193.94,9.84 192.53,9.84 191.11,9.83 189.74,9.83 188.37,9.82 187.27,9.80 186.16,9.79 184.50,9.76 182.85,9.73 181.70,9.71 180.55,9.68 179.02,9.64 177.49,9.59 176.01,9.56 174.54,9.53 172.85,9.51 171.16,9.48 169.27,9.48 167.38,9.47 165.64,9.45 163.91,9.42 161.77,9.42 159.63,9.43 157.50,9.44 155.36,9.45 153.27,9.46 151.18,9.46 149.32,9.45 147.46,9.43 145.93,9.35 144.39,9.26 142.52,8.97 140.65,8.67 139.42,8.17 138.20,7.68 136.15,7.62 134.10,7.57 133.02,7.52 131.94,7.48 130.33,7.50 128.72,7.52 126.89,7.31 125.05,7.10 123.79,6.88 122.52,6.66 120.65,6.36 118.78,6.06 117.10,5.81 115.41,5.56 114.26,5.55 113.11,5.53 111.36,5.63 109.60,5.72 107.40,5.72 105.19,5.71 103.88,5.73 102.56,5.75 101.40,5.75 100.23,5.76 98.50,5.71 96.77,5.65 94.62,5.63 92.48,5.60 90.31,5.57 88.15,5.53 85.90,5.49 83.65,5.45 82.26,5.46 80.87,5.47 79.53,5.47 78.19,5.47 76.04,5.40 73.89,5.34 71.71,5.26 69.52,5.18 68.24,5.14 66.95,5.10 65.86,5.04 64.76,4.97 63.15,4.97 61.55,4.96 59.70,5.02 57.85,5.07 56.40,5.07 54.95,5.06 53.47,5.08 51.98,5.10 50.40,5.20 48.82,5.30 46.98,5.63 45.15,5.95 42.25,6.76 39.36,7.57 37.47,7.71 35.58,7.85 34.11,7.94 32.65,8.03 31.23,8.17 29.82,8.31 27.22,8.79 24.62,9.27 22.48,9.25 20.33,9.23 18.16,9.20 16.00,9.17 13.73,9.14 11.46,9.11 10.03,9.12 8.61,9.12 7.18,9.11 5.75,9.09 3.76,8.74 1.76,8.38 1.23,7.25 0.69,6.12 -0.16,4.85 -1.02,3.59 -1.64,2.36 -2.25,1.12 -2.35,0.84 -2.45,0.55 -2.48,0.25 -2.52,-0.04 -2.47,-0.35 -2.43,-0.65 -2.32,-0.93 -2.20,-1.21 -2.03,-1.46 -1.85,-1.70 -1.62,-1.90 -1.39,-2.10 -1.11,-2.23 -0.84,-2.37 -0.55,-2.44 -0.25,-2.50 0.04,-2.50 0.35,-2.49 0.64,-2.41 0.94,-2.33 1.20,-2.19 1.47,-2.04 1.69,-1.83 1.91,-1.63 2.08,-1.38 2.25,-1.12 2.25,-1.12 L 2.25,-1.12 Z"></path></g><g transform="translate(110.51436872262138 291.3773169009155) rotate(0 0 9.375)" stroke="none" fill="#087f5b"><path d="M 2.58,0 Q 2.58,0 2.46,1.97 2.34,3.95 2.38,5.15 2.41,6.35 2.51,7.94 2.61,9.54 2.68,11.37 2.75,13.19 2.81,15.97 2.87,18.75 2.79,19.20 2.72,19.66 2.50,20.07 2.28,20.48 1.95,20.80 1.61,21.12 1.19,21.32 0.76,21.52 0.30,21.57 -0.15,21.62 -0.61,21.52 -1.06,21.42 -1.46,21.18 -1.86,20.94 -2.16,20.58 -2.46,20.23 -2.63,19.79 -2.80,19.36 -2.83,18.90 -2.85,18.43 -2.73,17.99 -2.60,17.54 -2.34,17.15 -2.08,16.77 -1.71,16.49 -1.34,16.20 -0.90,16.06 -0.46,15.91 0.00,15.91 0.46,15.91 0.90,16.06 1.34,16.21 1.71,16.49 2.08,16.77 2.34,17.15 2.60,17.54 2.73,17.99 2.85,18.43 2.83,18.90 2.80,19.36 2.63,19.80 2.46,20.23 2.16,20.58 1.86,20.94 1.46,21.18 1.06,21.42 0.60,21.52 0.15,21.62 -0.30,21.57 -0.76,21.51 -1.19,21.32 -1.61,21.12 -1.95,20.80 -2.28,20.48 -2.50,20.07 -2.72,19.66 -2.79,19.20 -2.87,18.74 -2.87,18.74 -2.87,18.75 -2.81,15.97 -2.75,13.19 -2.68,11.37 -2.61,9.54 -2.51,7.94 -2.41,6.35 -2.38,5.15 -2.34,3.95 -2.46,1.97 -2.58,0 -2.54,-0.30 -2.50,-0.61 -2.39,-0.90 -2.28,-1.20 -2.11,-1.45 -1.93,-1.71 -1.70,-1.91 -1.46,-2.12 -1.19,-2.27 -0.91,-2.41 -0.61,-2.49 -0.31,-2.56 0.00,-2.56 0.31,-2.56 0.61,-2.49 0.91,-2.41 1.19,-2.27 1.46,-2.12 1.70,-1.91 1.93,-1.71 2.11,-1.45 2.28,-1.20 2.39,-0.90 2.50,-0.61 2.54,-0.30 2.58,0.00 2.58,0.00 L 2.58,0 Z"></path></g><g transform="translate(112.38936872262138 292.6273169009155) rotate(0 99.6875 6.875)" stroke="none" fill="#087f5b"><path d="M 0,-2.66 Q 0,-2.66 1.25,-2.66 2.51,-2.67 4.50,-2.72 6.50,-2.77 8.03,-2.83 9.57,-2.89 10.87,-2.94 12.17,-3.00 14.12,-3.59 16.06,-4.19 17.52,-4.32 18.98,-4.44 20.61,-4.50 22.24,-4.55 23.57,-4.56 24.91,-4.56 26.69,-4.55 28.47,-4.54 29.62,-4.51 30.78,-4.48 31.99,-4.45 33.20,-4.41 34.80,-4.33 36.39,-4.24 38.59,-4.23 40.78,-4.23 41.99,-4.21 43.20,-4.20 44.81,-4.24 46.41,-4.28 48.60,-4.27 50.79,-4.26 52.00,-4.24 53.21,-4.22 54.81,-4.26 56.41,-4.30 58.09,-4.32 59.76,-4.34 61.60,-4.34 63.44,-4.35 64.95,-4.38 66.46,-4.40 68.11,-4.41 69.77,-4.42 71.60,-4.42 73.44,-4.42 74.61,-4.40 75.77,-4.37 76.99,-4.35 78.20,-4.32 79.43,-4.30 80.67,-4.28 83.01,-4.23 85.35,-4.19 86.68,-4.16 88.02,-4.14 89.31,-4.12 90.59,-4.10 92.60,-4.13 94.61,-4.15 95.80,-4.15 96.99,-4.14 98.21,-4.13 99.44,-4.12 101.48,-4.15 103.53,-4.17 105.00,-4.22 106.47,-4.26 108.64,-4.26 110.80,-4.25 112.00,-4.24 113.21,-4.22 115.17,-4.23 117.13,-4.25 118.32,-4.24 119.50,-4.22 121.80,-4.19 124.11,-4.16 125.44,-4.13 126.78,-4.11 128.81,-4.13 130.85,-4.15 132.76,-4.18 134.66,-4.20 135.83,-4.20 137.01,-4.19 138.23,-4.18 139.44,-4.16 140.68,-4.15 141.92,-4.14 143.90,-4.16 145.88,-4.18 147.06,-4.18 148.24,-4.17 150.19,-4.02 152.13,-3.88 153.31,-3.89 154.49,-3.91 155.68,-3.91 156.86,-3.91 158.23,-4.47 159.59,-5.02 161.20,-5.09 162.81,-5.16 164.16,-5.18 165.50,-5.20 167.19,-5.28 168.87,-5.35 170.71,-5.39 172.56,-5.43 174.43,-5.46 176.30,-5.49 177.90,-5.41 179.50,-5.34 181.69,-5.35 183.87,-5.36 186.16,-5.84 188.45,-6.33 189.79,-6.40 191.14,-6.46 192.81,-6.56 194.48,-6.65 195.82,-6.71 197.16,-6.77 199.01,-6.27 200.87,-5.77 201.65,-4.29 202.43,-2.82 202.51,-1.54 202.59,-0.25 202.39,1.52 202.19,3.31 201.87,4.34 201.54,5.37 201.52,6.93 201.50,8.50 201.52,10.09 201.54,11.69 201.55,12.89 201.56,14.09 201.57,15.79 201.57,17.50 201.48,18.05 201.39,18.60 201.13,19.09 200.87,19.59 200.46,19.97 200.06,20.35 199.55,20.59 199.04,20.82 198.49,20.88 197.93,20.94 197.39,20.82 196.84,20.70 196.36,20.42 195.88,20.13 195.52,19.70 195.16,19.28 194.95,18.76 194.75,18.24 194.72,17.68 194.69,17.12 194.84,16.58 194.98,16.04 195.30,15.58 195.61,15.12 196.06,14.78 196.50,14.44 197.03,14.26 197.56,14.09 198.12,14.09 198.68,14.09 199.21,14.26 199.74,14.44 200.18,14.78 200.63,15.12 200.94,15.58 201.26,16.05 201.41,16.58 201.55,17.12 201.52,17.68 201.49,18.24 201.29,18.76 201.08,19.28 200.72,19.70 200.36,20.13 199.88,20.42 199.40,20.70 198.85,20.82 198.31,20.94 197.75,20.88 197.19,20.82 196.69,20.59 196.18,20.35 195.77,19.97 195.37,19.58 195.11,19.09 194.85,18.60 194.76,18.05 194.67,17.49 194.67,17.49 194.67,17.49 194.68,15.18 194.69,12.87 194.72,11.27 194.74,9.68 194.77,8.39 194.80,7.10 194.91,5.63 195.02,4.16 195.42,3.00 195.82,1.84 196.50,0.55 197.18,-0.72 195.88,-0.76 194.58,-0.80 193.00,-0.82 191.43,-0.83 189.28,-0.66 187.13,-0.48 185.53,-0.06 183.94,0.36 181.72,0.35 179.50,0.34 177.90,0.41 176.30,0.49 174.43,0.46 172.57,0.44 170.74,0.40 168.91,0.37 167.26,0.33 165.62,0.28 164.34,0.32 163.07,0.35 161.40,0.46 159.73,0.57 158.37,0.99 157.01,1.41 155.75,1.41 154.49,1.41 153.31,1.39 152.13,1.38 150.19,1.52 148.24,1.67 147.06,1.68 145.88,1.68 143.90,1.66 141.92,1.64 140.68,1.65 139.44,1.66 138.23,1.68 137.01,1.69 135.83,1.70 134.66,1.70 132.76,1.68 130.85,1.65 128.81,1.63 126.78,1.61 125.44,1.63 124.11,1.66 121.80,1.69 119.50,1.72 118.32,1.74 117.13,1.75 115.17,1.73 113.21,1.72 112.00,1.74 110.80,1.75 108.64,1.76 106.47,1.76 105.00,1.72 103.53,1.67 101.48,1.65 99.44,1.62 98.21,1.63 96.99,1.64 95.80,1.65 94.61,1.65 92.60,1.63 90.59,1.60 89.31,1.62 88.02,1.64 86.68,1.66 85.35,1.69 83.01,1.73 80.67,1.78 79.43,1.80 78.20,1.82 76.99,1.85 75.77,1.87 74.61,1.90 73.44,1.92 71.60,1.92 69.77,1.92 68.11,1.91 66.46,1.90 64.95,1.88 63.44,1.85 61.60,1.84 59.76,1.84 58.09,1.82 56.41,1.80 54.81,1.76 53.21,1.72 52.00,1.74 50.79,1.76 48.60,1.77 46.41,1.78 44.81,1.74 43.20,1.70 41.99,1.71 40.78,1.73 38.59,1.73 36.39,1.74 34.80,1.83 33.20,1.91 31.99,1.95 30.78,1.98 29.62,2.01 28.47,2.04 26.69,2.05 24.91,2.06 23.00,2.05 21.08,2.03 19.59,2.02 18.10,2.00 16.70,2.31 15.30,2.62 13.73,2.81 12.17,3.00 10.87,2.94 9.57,2.89 8.03,2.83 6.50,2.77 4.50,2.72 2.51,2.67 1.25,2.66 0,2.66 -0.31,2.62 -0.63,2.58 -0.93,2.47 -1.23,2.35 -1.50,2.17 -1.76,1.99 -1.97,1.75 -2.19,1.51 -2.33,1.22 -2.48,0.94 -2.56,0.63 -2.64,0.32 -2.64,-0.00 -2.64,-0.32 -2.56,-0.63 -2.48,-0.94 -2.33,-1.22 -2.19,-1.51 -1.97,-1.75 -1.76,-1.99 -1.50,-2.17 -1.23,-2.35 -0.93,-2.47 -0.63,-2.58 -0.31,-2.62 0.00,-2.66 0.00,-2.66 L 0,-2.66 Z"></path></g><g transform="translate(65.51436872262138 293.8773169009155) rotate(0 0.625 6.5625)" stroke="none" fill="#087f5b"><path d="M 2.56,-0.73 Q 2.56,-0.73 2.92,0.52 3.27,1.78 3.61,3.66 3.94,5.53 4.05,6.95 4.15,8.36 3.44,11.41 2.72,14.45 2.44,14.85 2.15,15.25 1.76,15.54 1.36,15.83 0.89,15.97 0.42,16.12 -0.06,16.11 -0.55,16.10 -1.01,15.93 -1.47,15.77 -1.85,15.46 -2.24,15.16 -2.50,14.75 -2.77,14.34 -2.89,13.86 -3.01,13.39 -2.98,12.90 -2.94,12.41 -2.75,11.96 -2.56,11.51 -2.23,11.14 -1.91,10.77 -1.48,10.53 -1.06,10.28 -0.58,10.19 -0.10,10.09 0.38,10.15 0.87,10.22 1.31,10.43 1.75,10.65 2.10,10.99 2.44,11.34 2.66,11.77 2.89,12.21 2.95,12.70 3.02,13.18 2.93,13.66 2.85,14.15 2.61,14.57 2.37,15.00 2.01,15.33 1.64,15.66 1.19,15.86 0.75,16.06 0.26,16.10 -0.22,16.14 -0.70,16.03 -1.17,15.91 -1.59,15.65 -2.00,15.39 -2.31,15.01 -2.62,14.63 -2.79,14.17 -2.97,13.71 -2.98,13.22 -3.00,12.73 -2.86,12.26 -2.72,11.79 -2.72,11.79 -2.72,11.79 -2.20,10.13 -1.69,8.47 -1.66,7.25 -1.63,6.02 -1.73,4.63 -1.84,3.24 -2.20,1.98 -2.56,0.73 -2.61,0.41 -2.66,0.09 -2.63,-0.22 -2.60,-0.54 -2.50,-0.84 -2.40,-1.15 -2.22,-1.42 -2.05,-1.69 -1.82,-1.91 -1.59,-2.13 -1.31,-2.29 -1.03,-2.45 -0.72,-2.54 -0.41,-2.63 -0.09,-2.64 0.22,-2.65 0.53,-2.58 0.85,-2.52 1.14,-2.38 1.43,-2.24 1.67,-2.04 1.92,-1.83 2.11,-1.58 2.31,-1.32 2.43,-1.02 2.56,-0.73 2.56,-0.73 L 2.56,-0.73 Z"></path></g><g transform="translate(71.76436872262138 294.5023169009155) rotate(0 12.5 5)" stroke="none" fill="#087f5b"><path d="M 0,-2.66 Q 0,-2.66 1.25,-2.67 2.51,-2.67 4.14,-2.74 5.76,-2.81 7.49,-3.41 9.21,-4.02 10.51,-4.28 11.81,-4.54 12.99,-4.98 14.17,-5.42 15.63,-5.54 17.10,-5.67 18.39,-5.71 19.68,-5.75 20.94,-5.78 22.19,-5.80 24.15,-5.27 26.11,-4.73 26.96,-3.65 27.82,-2.58 28.08,-0.88 28.34,0.80 28.38,1.92 28.42,3.05 28.20,4.79 27.97,6.53 27.58,7.52 27.19,8.52 27.83,10.35 28.47,12.18 28.43,12.74 28.39,13.31 28.17,13.83 27.95,14.35 27.58,14.77 27.20,15.20 26.72,15.48 26.23,15.76 25.67,15.87 25.12,15.98 24.56,15.91 24.00,15.84 23.49,15.59 22.98,15.35 22.58,14.95 22.18,14.55 21.92,14.05 21.67,13.55 21.59,12.99 21.51,12.43 21.61,11.87 21.71,11.32 21.98,10.83 22.26,10.33 22.67,9.95 23.09,9.57 23.61,9.34 24.12,9.12 24.69,9.07 25.25,9.01 25.80,9.15 26.35,9.28 26.82,9.58 27.30,9.88 27.66,10.31 28.02,10.75 28.22,11.28 28.42,11.81 28.44,12.37 28.46,12.94 28.30,13.48 28.13,14.02 27.81,14.48 27.48,14.94 27.03,15.27 26.57,15.61 26.03,15.78 25.50,15.95 24.93,15.94 24.37,15.93 23.83,15.74 23.30,15.55 22.86,15.20 22.42,14.85 22.11,14.37 21.80,13.90 21.66,13.35 21.52,12.81 21.52,12.81 21.52,12.81 20.98,10.74 20.43,8.66 20.86,6.80 21.29,4.93 21.43,3.62 21.56,2.30 22.46,1.55 23.36,0.80 22.16,0.79 20.96,0.78 19.73,0.76 18.50,0.74 16.93,0.75 15.36,0.75 14.34,1.06 13.32,1.38 11.81,1.61 10.29,1.84 9.19,2.14 8.09,2.44 6.94,2.62 5.79,2.81 4.15,2.74 2.51,2.67 1.25,2.67 0,2.66 -0.31,2.63 -0.63,2.59 -0.93,2.47 -1.24,2.36 -1.50,2.18 -1.77,1.99 -1.98,1.75 -2.19,1.51 -2.34,1.23 -2.49,0.94 -2.57,0.63 -2.64,0.32 -2.64,-0.00 -2.64,-0.32 -2.57,-0.63 -2.49,-0.94 -2.34,-1.23 -2.19,-1.51 -1.98,-1.75 -1.76,-1.99 -1.50,-2.18 -1.24,-2.36 -0.93,-2.47 -0.63,-2.59 -0.31,-2.63 0.00,-2.66 0.00,-2.66 L 0,-2.66 Z"></path></g><g transform="translate(48.639368722621384 272.0023169009155) rotate(0 133.125 4.375)" stroke="none" fill="#087f5b"><path d="M 0,-2.36 Q 0,-2.36 1.61,-2.34 3.23,-2.32 4.29,-2.37 5.35,-2.42 6.87,-2.04 8.38,-1.65 9.44,-1.35 10.50,-1.05 11.74,-0.75 12.99,-0.46 14.11,-0.36 15.24,-0.26 16.77,-0.17 18.31,-0.08 19.69,-0.05 21.08,-0.03 22.74,0.01 24.41,0.07 25.83,0.07 27.26,0.07 28.59,0.05 29.91,0.03 31.55,0.07 33.19,0.10 34.61,0.09 36.03,0.08 37.71,0.12 39.39,0.15 41.18,0.20 42.97,0.25 44.81,0.30 46.65,0.35 48.87,0.46 51.09,0.57 52.75,0.55 54.41,0.53 55.84,0.48 57.26,0.43 58.95,0.43 60.63,0.43 62.07,0.39 63.50,0.35 65.37,0.40 67.23,0.44 69.11,0.48 70.98,0.51 72.49,0.48 74.01,0.44 75.73,0.44 77.45,0.45 78.54,0.38 79.63,0.31 81.52,0.19 83.42,0.07 84.59,0.04 85.76,0.01 87.70,0.11 89.63,0.21 91.53,0.27 93.43,0.34 94.96,0.33 96.49,0.31 97.86,0.27 99.22,0.24 100.54,0.20 101.85,0.17 103.43,0.54 105.00,0.92 107.09,1.17 109.18,1.42 111.39,1.59 113.60,1.76 114.91,1.72 116.22,1.67 117.84,1.67 119.46,1.67 121.23,1.69 123.00,1.71 124.12,1.64 125.23,1.57 126.78,1.56 128.33,1.55 130.07,1.58 131.82,1.60 134.06,2.27 136.30,2.93 137.76,3.11 139.22,3.29 140.53,3.33 141.85,3.37 143.11,3.36 144.38,3.35 145.99,3.37 147.60,3.40 149.73,3.52 151.85,3.64 154.01,3.73 156.17,3.83 157.63,3.76 159.09,3.70 160.79,3.69 162.49,3.67 163.57,3.59 164.65,3.52 166.18,3.50 167.72,3.47 169.09,3.44 170.47,3.40 171.77,3.36 173.07,3.32 174.32,3.29 175.58,3.26 176.85,2.81 178.13,2.36 180.12,2.12 182.10,1.89 184.57,1.90 187.04,1.92 189.57,1.61 192.10,1.31 194.48,1.02 196.87,0.74 199.33,0.46 201.80,0.17 203.97,0.06 206.14,-0.04 208.69,-0.07 211.24,-0.11 214.21,-0.47 217.19,-0.83 219.69,-1.33 222.19,-1.83 223.66,-2.16 225.12,-2.49 226.32,-2.70 227.52,-2.90 229.50,-3.13 231.49,-3.36 233.39,-3.49 235.29,-3.63 236.81,-3.73 238.33,-3.84 239.63,-3.92 240.92,-4.00 242.18,-4.07 243.44,-4.14 244.69,-4.19 245.95,-4.25 247.20,-4.29 248.45,-4.34 249.70,-4.37 250.95,-4.41 252.71,-4.42 254.47,-4.42 255.81,-4.45 257.16,-4.48 258.42,-4.50 259.69,-4.53 261.28,-4.56 262.87,-4.59 264.00,-4.60 265.12,-4.60 266.48,-3.88 267.84,-3.16 268.58,-1.82 269.33,-0.49 269.48,1.09 269.63,2.67 269.66,3.98 269.69,5.29 269.70,7.64 269.72,9.99 269.63,10.55 269.54,11.10 269.27,11.60 269.01,12.09 268.60,12.48 268.19,12.87 267.69,13.10 267.18,13.34 266.62,13.40 266.06,13.46 265.51,13.34 264.96,13.22 264.48,12.93 264.00,12.64 263.64,12.21 263.27,11.79 263.06,11.26 262.86,10.74 262.82,10.18 262.79,9.62 262.94,9.08 263.09,8.54 263.41,8.07 263.72,7.61 264.17,7.27 264.62,6.93 265.15,6.75 265.68,6.57 266.24,6.57 266.81,6.57 267.34,6.75 267.87,6.93 268.32,7.27 268.76,7.61 269.08,8.07 269.39,8.54 269.55,9.08 269.70,9.62 269.67,10.18 269.64,10.74 269.43,11.26 269.22,11.78 268.86,12.21 268.49,12.64 268.01,12.93 267.53,13.22 266.98,13.34 266.43,13.46 265.88,13.40 265.32,13.34 264.81,13.10 264.30,12.87 263.89,12.48 263.48,12.10 263.22,11.60 262.96,11.10 262.86,10.55 262.77,10.00 262.77,10.00 262.77,10.00 262.78,7.67 262.79,5.35 262.83,3.72 262.87,2.09 261.28,2.06 259.69,2.03 258.42,2.00 257.16,1.98 255.81,1.95 254.47,1.92 252.71,1.92 250.95,1.91 249.70,1.87 248.45,1.84 247.20,1.79 245.95,1.75 244.69,1.69 243.44,1.64 242.18,1.57 240.93,1.51 239.63,1.42 238.33,1.34 236.82,1.24 235.30,1.14 233.43,1.02 231.56,0.91 229.69,0.80 227.81,0.68 226.71,0.67 225.60,0.65 224.18,0.76 222.75,0.88 220.15,1.42 217.54,1.97 214.43,2.37 211.31,2.78 208.82,2.87 206.34,2.95 204.28,3.12 202.21,3.29 199.78,3.66 197.36,4.04 195.00,4.45 192.64,4.86 189.92,5.36 187.20,5.86 184.94,6.07 182.67,6.28 181.12,6.50 179.57,6.72 177.61,7.35 175.65,7.98 174.36,7.95 173.07,7.92 171.77,7.88 170.47,7.84 169.09,7.80 167.72,7.77 166.18,7.74 164.65,7.72 163.57,7.64 162.48,7.57 160.79,7.55 159.09,7.53 157.63,7.47 156.17,7.41 154.00,7.49 151.84,7.57 149.70,7.68 147.56,7.79 145.90,7.78 144.24,7.77 142.90,7.68 141.55,7.58 140.09,7.43 138.64,7.28 136.96,6.99 135.29,6.71 133.53,6.30 131.78,5.89 130.05,5.91 128.33,5.94 126.77,5.92 125.22,5.91 124.11,5.84 122.99,5.76 121.21,5.77 119.43,5.78 117.78,5.76 116.13,5.73 114.81,5.64 113.49,5.54 111.20,5.58 108.90,5.62 105.35,5.22 101.80,4.82 100.51,4.79 99.22,4.75 97.86,4.72 96.49,4.68 94.96,4.66 93.43,4.65 91.53,4.72 89.63,4.78 87.70,4.88 85.76,4.98 84.59,4.95 83.42,4.92 81.52,4.80 79.63,4.68 78.54,4.61 77.45,4.54 75.73,4.55 74.01,4.55 72.49,4.51 70.98,4.48 69.11,4.51 67.23,4.55 65.37,4.59 63.50,4.64 62.07,4.60 60.63,4.56 58.95,4.56 57.26,4.56 55.84,4.51 54.41,4.46 52.75,4.44 51.09,4.42 48.87,4.53 46.65,4.64 44.81,4.69 42.97,4.74 41.18,4.79 39.39,4.84 37.71,4.87 36.03,4.91 34.61,4.90 33.19,4.89 31.55,4.92 29.90,4.95 28.58,4.93 27.25,4.91 25.81,4.90 24.38,4.89 22.68,4.92 20.99,4.96 19.56,4.93 18.13,4.90 16.41,4.88 14.70,4.86 13.25,4.68 11.80,4.51 10.37,4.16 8.93,3.82 7.92,3.45 6.92,3.09 5.07,2.71 3.23,2.32 1.61,2.34 0,2.36 -0.28,2.32 -0.56,2.29 -0.83,2.19 -1.09,2.09 -1.33,1.93 -1.56,1.76 -1.75,1.55 -1.94,1.34 -2.07,1.09 -2.21,0.83 -2.27,0.56 -2.34,0.28 -2.34,-0.00 -2.34,-0.28 -2.27,-0.56 -2.21,-0.83 -2.07,-1.09 -1.94,-1.34 -1.75,-1.55 -1.56,-1.76 -1.33,-1.93 -1.09,-2.09 -0.83,-2.19 -0.56,-2.29 -0.28,-2.32 0.00,-2.36 0.00,-2.36 L 0,-2.36 Z"></path></g><g transform="translate(321.1393687226214 267.6273169009155) rotate(0 0 7.8125)" stroke="none" fill="#087f5b"><path d="M 2.67,0 Q 2.67,0 2.67,1.25 2.68,2.51 2.75,3.89 2.83,5.27 2.89,6.54 2.95,7.81 3.00,9.07 3.05,10.32 3.08,12.97 3.12,15.62 3.04,16.12 2.96,16.62 2.72,17.07 2.49,17.51 2.12,17.86 1.75,18.21 1.29,18.42 0.83,18.64 0.33,18.69 -0.16,18.74 -0.66,18.64 -1.15,18.53 -1.59,18.27 -2.02,18.00 -2.35,17.62 -2.68,17.23 -2.86,16.76 -3.05,16.29 -3.08,15.79 -3.11,15.28 -2.97,14.79 -2.83,14.31 -2.55,13.89 -2.27,13.47 -1.86,13.16 -1.46,12.86 -0.98,12.69 -0.50,12.53 0.00,12.53 0.50,12.53 0.98,12.69 1.46,12.86 1.86,13.16 2.27,13.47 2.55,13.89 2.84,14.31 2.97,14.79 3.11,15.28 3.08,15.79 3.05,16.29 2.86,16.76 2.68,17.23 2.35,17.62 2.02,18.01 1.59,18.27 1.15,18.53 0.66,18.64 0.16,18.74 -0.33,18.69 -0.83,18.63 -1.29,18.42 -1.75,18.21 -2.12,17.86 -2.49,17.51 -2.72,17.07 -2.96,16.62 -3.04,16.12 -3.12,15.62 -3.12,15.62 -3.12,15.62 -3.08,12.97 -3.05,10.32 -3.00,9.07 -2.95,7.81 -2.89,6.54 -2.83,5.27 -2.75,3.89 -2.68,2.51 -2.67,1.25 -2.67,0 -2.63,-0.31 -2.59,-0.63 -2.48,-0.94 -2.36,-1.24 -2.18,-1.50 -2.00,-1.77 -1.75,-1.98 -1.51,-2.19 -1.23,-2.34 -0.94,-2.49 -0.63,-2.57 -0.32,-2.65 0.00,-2.65 0.32,-2.65 0.63,-2.57 0.94,-2.49 1.23,-2.34 1.51,-2.19 1.75,-1.98 2.00,-1.77 2.18,-1.50 2.36,-1.24 2.48,-0.94 2.59,-0.63 2.63,-0.31 2.67,0.00 2.67,0.00 L 2.67,0 Z"></path></g><g transform="translate(323.6393687226214 269.5023169009155) rotate(0 140.625 0)" stroke="none" fill="#087f5b"><path d="M 0,-2.63 Q 0,-2.63 1.25,-2.64 2.51,-2.65 4.14,-2.72 5.78,-2.79 7.61,-2.84 9.44,-2.88 10.79,-2.94 12.15,-2.99 14.29,-2.99 16.43,-2.99 17.81,-2.95 19.20,-2.91 20.33,-2.91 21.45,-2.91 23.01,-2.85 24.57,-2.79 26.31,-2.70 28.05,-2.62 30.40,-2.45 32.76,-2.28 35.38,-2.16 38.00,-2.03 40.73,-1.93 43.46,-1.84 45.70,-1.76 47.94,-1.69 50.50,-1.64 53.07,-1.59 55.78,-1.55 58.49,-1.51 60.72,-1.48 62.95,-1.46 64.98,-1.46 67.00,-1.46 68.94,-1.49 70.88,-1.51 72.78,-1.53 74.68,-1.56 77.11,-1.52 79.53,-1.49 81.64,-1.47 83.75,-1.45 86.27,-1.43 88.78,-1.41 91.46,-1.40 94.15,-1.38 96.37,-1.37 98.59,-1.36 100.61,-1.38 102.63,-1.40 104.57,-1.43 106.51,-1.46 108.05,-1.55 109.59,-1.63 111.32,-1.67 113.06,-1.71 115.77,-1.66 118.48,-1.60 120.36,-1.62 122.23,-1.64 123.74,-1.71 125.26,-1.78 127.40,-1.95 129.55,-2.12 131.84,-2.21 134.12,-2.30 135.81,-2.27 137.50,-2.25 139.83,-2.12 142.17,-2.00 144.78,-1.91 147.39,-1.81 150.65,-1.75 153.92,-1.68 157.82,-1.63 161.72,-1.58 164.46,-1.54 167.20,-1.50 169.44,-1.48 171.68,-1.45 173.35,-1.52 175.02,-1.59 176.45,-1.68 177.88,-1.76 179.93,-1.72 181.97,-1.68 183.92,-1.67 185.87,-1.67 187.95,-1.63 190.04,-1.59 191.64,-1.66 193.25,-1.72 195.01,-1.75 196.77,-1.77 198.59,-1.78 200.42,-1.79 202.09,-1.82 203.77,-1.85 205.74,-1.82 207.71,-1.78 209.62,-1.77 211.54,-1.76 214.33,-1.70 217.12,-1.64 219.38,-1.59 221.65,-1.55 222.97,-1.65 224.29,-1.75 225.57,-1.83 226.85,-1.91 228.12,-1.98 229.38,-2.05 231.37,-2.19 233.37,-2.32 234.91,-2.32 236.46,-2.31 238.20,-2.28 239.93,-2.24 241.39,-2.26 242.84,-2.28 244.18,-2.31 245.52,-2.34 247.16,-2.32 248.81,-2.29 250.95,-2.16 253.09,-2.04 254.35,-2.09 255.62,-2.15 256.88,-2.20 258.14,-2.25 259.75,-2.24 261.36,-2.24 262.77,-2.26 264.17,-2.29 266.25,-2.39 268.33,-2.48 269.70,-2.57 271.08,-2.66 272.60,-2.77 274.13,-2.87 275.36,-2.93 276.58,-2.98 278.91,-3.03 281.25,-3.07 281.74,-2.99 282.23,-2.91 282.67,-2.68 283.11,-2.44 283.45,-2.08 283.79,-1.72 284.00,-1.27 284.21,-0.82 284.26,-0.32 284.31,0.16 284.21,0.65 284.10,1.13 283.84,1.56 283.59,1.99 283.21,2.31 282.83,2.63 282.37,2.81 281.91,3.00 281.41,3.02 280.91,3.05 280.43,2.92 279.95,2.79 279.54,2.51 279.13,2.23 278.83,1.83 278.53,1.43 278.37,0.96 278.21,0.49 278.21,-0.00 278.21,-0.49 278.37,-0.96 278.53,-1.44 278.83,-1.83 279.13,-2.23 279.54,-2.51 279.95,-2.79 280.43,-2.92 280.91,-3.05 281.41,-3.02 281.91,-3.00 282.37,-2.81 282.83,-2.63 283.21,-2.31 283.59,-1.98 283.84,-1.56 284.10,-1.13 284.21,-0.65 284.31,-0.16 284.26,0.32 284.21,0.82 284.00,1.27 283.79,1.72 283.45,2.08 283.10,2.44 282.67,2.68 282.23,2.91 281.73,2.99 281.24,3.07 281.24,3.07 281.25,3.07 278.91,3.03 276.58,2.98 275.36,2.93 274.13,2.87 272.60,2.77 271.08,2.66 269.70,2.57 268.33,2.48 266.25,2.39 264.17,2.29 262.77,2.26 261.36,2.24 259.75,2.24 258.14,2.25 256.88,2.20 255.62,2.15 254.35,2.09 253.09,2.04 250.95,2.16 248.81,2.29 247.16,2.32 245.52,2.34 244.18,2.31 242.84,2.28 241.39,2.26 239.93,2.24 238.20,2.28 236.46,2.31 234.91,2.32 233.37,2.32 231.37,2.19 229.38,2.05 228.12,1.98 226.85,1.91 225.57,1.83 224.29,1.75 222.97,1.65 221.65,1.55 219.38,1.59 217.12,1.64 214.33,1.70 211.54,1.76 209.62,1.77 207.71,1.78 205.74,1.82 203.77,1.85 202.09,1.82 200.42,1.79 198.59,1.78 196.77,1.77 195.01,1.75 193.25,1.72 191.64,1.66 190.04,1.59 187.95,1.63 185.87,1.67 183.92,1.67 181.97,1.68 179.93,1.72 177.88,1.76 176.45,1.68 175.02,1.59 173.35,1.52 171.68,1.45 169.44,1.48 167.20,1.50 164.46,1.54 161.72,1.58 157.82,1.63 153.92,1.68 150.65,1.75 147.39,1.81 144.78,1.91 142.17,2.00 139.83,2.12 137.50,2.25 135.81,2.27 134.12,2.30 131.84,2.21 129.55,2.12 127.40,1.95 125.26,1.78 123.74,1.71 122.23,1.64 120.36,1.62 118.48,1.60 115.77,1.66 113.06,1.71 111.32,1.67 109.59,1.63 108.05,1.55 106.51,1.46 104.57,1.43 102.63,1.40 100.61,1.38 98.59,1.36 96.37,1.37 94.15,1.38 91.46,1.40 88.78,1.41 86.27,1.43 83.75,1.45 81.64,1.47 79.53,1.49 77.11,1.52 74.68,1.56 72.78,1.53 70.88,1.51 68.94,1.49 67.00,1.46 64.98,1.46 62.95,1.46 60.72,1.48 58.49,1.51 55.78,1.55 53.07,1.59 50.50,1.64 47.94,1.69 45.70,1.76 43.46,1.84 40.73,1.93 38.00,2.03 35.38,2.16 32.76,2.28 30.40,2.45 28.05,2.62 26.31,2.70 24.57,2.79 23.01,2.85 21.45,2.91 20.33,2.91 19.20,2.91 17.81,2.95 16.43,2.99 14.29,2.99 12.15,2.99 10.79,2.94 9.44,2.88 7.61,2.84 5.78,2.79 4.14,2.72 2.51,2.65 1.25,2.64 0,2.63 -0.31,2.60 -0.63,2.56 -0.92,2.44 -1.22,2.33 -1.48,2.15 -1.74,1.97 -1.96,1.73 -2.17,1.49 -2.31,1.21 -2.46,0.93 -2.54,0.62 -2.61,0.31 -2.61,-0.00 -2.61,-0.31 -2.54,-0.62 -2.46,-0.93 -2.31,-1.21 -2.17,-1.49 -1.96,-1.73 -1.74,-1.97 -1.48,-2.15 -1.22,-2.33 -0.92,-2.44 -0.63,-2.56 -0.31,-2.60 0.00,-2.63 0.00,-2.63 L 0,-2.63 Z"></path></g><g transform="translate(516.1393687226214 283.8773169009155) rotate(0 -0.3125 5)" stroke="none" fill="#087f5b"><path d="M 2.60,0.52 Q 2.60,0.52 2.45,1.42 2.31,2.33 2.30,3.82 2.30,5.31 2.68,7.61 3.06,9.91 2.99,10.40 2.93,10.89 2.71,11.34 2.49,11.78 2.14,12.13 1.79,12.48 1.34,12.70 0.90,12.93 0.41,12.99 -0.08,13.06 -0.56,12.97 -1.05,12.87 -1.48,12.63 -1.91,12.39 -2.25,12.02 -2.58,11.65 -2.77,11.19 -2.97,10.74 -3.01,10.24 -3.05,9.75 -2.93,9.27 -2.81,8.79 -2.55,8.37 -2.28,7.95 -1.89,7.64 -1.51,7.33 -1.04,7.16 -0.58,6.98 -0.08,6.97 0.41,6.96 0.88,7.10 1.36,7.25 1.76,7.54 2.16,7.82 2.45,8.23 2.74,8.63 2.89,9.10 3.03,9.58 3.02,10.07 3.01,10.57 2.84,11.04 2.67,11.50 2.35,11.89 2.04,12.28 1.63,12.54 1.21,12.81 0.73,12.93 0.25,13.05 -0.24,13.01 -0.73,12.97 -1.19,12.78 -1.64,12.58 -2.01,12.25 -2.38,11.92 -2.63,11.49 -2.87,11.05 -2.97,10.57 -3.06,10.08 -3.06,10.08 -3.06,10.08 -3.04,8.69 -3.03,7.30 -3.23,5.63 -3.43,3.96 -3.23,2.61 -3.03,1.26 -2.81,0.37 -2.60,-0.52 -2.50,-0.82 -2.40,-1.12 -2.23,-1.40 -2.06,-1.67 -1.83,-1.89 -1.60,-2.11 -1.32,-2.27 -1.05,-2.43 -0.74,-2.52 -0.43,-2.61 -0.11,-2.63 0.20,-2.64 0.51,-2.58 0.83,-2.52 1.12,-2.38 1.41,-2.25 1.65,-2.04 1.90,-1.84 2.10,-1.59 2.29,-1.33 2.42,-1.04 2.54,-0.74 2.60,-0.43 2.65,-0.11 2.62,0.20 2.60,0.52 2.60,0.52 L 2.60,0.52 Z"></path></g><g transform="translate(515.5143687226214 280.7523169009155) rotate(0 51.25 1.5625)" stroke="none" fill="#087f5b"><path d="M 0.26,-2.09 Q 0.26,-2.09 1.70,-1.94 3.14,-1.79 4.40,-1.77 5.66,-1.74 6.91,-1.74 8.16,-1.75 9.40,-1.77 10.65,-1.79 11.90,-1.81 13.15,-1.83 14.76,-1.80 16.37,-1.77 19.34,-1.26 22.31,-0.75 25.23,-0.50 28.15,-0.25 29.78,-0.21 31.40,-0.17 33.24,-0.28 35.08,-0.40 37.51,-0.41 39.93,-0.42 41.39,-0.43 42.84,-0.44 44.54,-0.42 46.24,-0.39 47.32,-0.44 48.40,-0.49 50.64,-0.55 52.89,-0.60 54.57,-0.56 56.26,-0.52 58.05,-0.46 59.84,-0.40 61.32,-0.41 62.81,-0.43 64.16,-0.45 65.51,-0.48 67.70,0.00 69.90,0.49 71.06,0.58 72.23,0.67 74.09,0.65 75.94,0.62 77.46,0.54 78.97,0.46 80.77,0.40 82.58,0.34 84.44,0.30 86.30,0.25 88.02,0.21 89.74,0.17 91.59,0.15 93.44,0.13 94.95,0.09 96.46,0.05 97.75,0.01 99.05,-0.02 100.77,-0.03 102.50,-0.05 103.00,0.02 103.51,0.10 103.97,0.35 104.42,0.59 104.78,0.96 105.13,1.33 105.35,1.80 105.56,2.27 105.62,2.78 105.67,3.29 105.56,3.80 105.45,4.30 105.19,4.74 104.92,5.18 104.53,5.51 104.14,5.85 103.66,6.04 103.18,6.23 102.66,6.26 102.15,6.28 101.65,6.15 101.16,6.01 100.73,5.72 100.31,5.43 99.99,5.02 99.68,4.61 99.52,4.12 99.35,3.63 99.35,3.12 99.35,2.60 99.52,2.12 99.68,1.63 100.00,1.22 100.31,0.81 100.73,0.52 101.16,0.23 101.66,0.09 102.15,-0.03 102.67,-0.01 103.18,0.01 103.66,0.20 104.14,0.39 104.53,0.73 104.92,1.06 105.19,1.50 105.45,1.94 105.56,2.45 105.67,2.95 105.62,3.46 105.56,3.97 105.34,4.44 105.13,4.91 104.77,5.28 104.42,5.65 103.97,5.90 103.51,6.14 103.00,6.22 102.49,6.30 102.49,6.30 102.49,6.30 100.77,6.28 99.05,6.27 97.75,6.23 96.46,6.19 94.95,6.15 93.44,6.11 91.59,6.09 89.74,6.07 88.02,6.03 86.30,5.99 84.43,5.94 82.57,5.90 80.75,5.83 78.93,5.76 77.37,5.65 75.82,5.54 73.75,5.33 71.67,5.12 70.41,4.90 69.15,4.69 67.32,4.46 65.50,4.23 64.15,4.20 62.81,4.18 61.32,4.16 59.84,4.15 58.05,4.21 56.26,4.27 54.57,4.31 52.89,4.35 50.64,4.30 48.40,4.24 47.32,4.19 46.24,4.13 44.54,4.16 42.84,4.19 41.38,4.18 39.93,4.16 38.18,4.20 36.44,4.25 34.91,4.09 33.38,3.94 32.31,3.84 31.25,3.73 29.60,3.64 27.96,3.55 24.87,3.49 21.78,3.44 19.07,3.23 16.36,3.02 14.74,3.04 13.13,3.07 11.86,3.03 10.60,3.00 9.32,2.95 8.04,2.90 6.72,2.83 5.40,2.76 4.00,2.64 2.60,2.51 1.17,2.30 -0.26,2.09 -0.50,2.03 -0.75,1.97 -0.98,1.85 -1.20,1.73 -1.39,1.56 -1.58,1.39 -1.72,1.18 -1.87,0.97 -1.96,0.73 -2.05,0.49 -2.08,0.24 -2.11,-0.00 -2.07,-0.26 -2.04,-0.51 -1.95,-0.75 -1.86,-0.98 -1.72,-1.19 -1.57,-1.40 -1.38,-1.57 -1.19,-1.74 -0.96,-1.85 -0.74,-1.97 -0.49,-2.03 -0.24,-2.09 0.00,-2.09 0.26,-2.09 0.26,-2.09 L 0.26,-2.09 Z"></path></g><g transform="translate(319.8893687226214 313.8773169009155) rotate(0 0.625 6.875)" stroke="none" fill="#087f5b"><path d="M 2.39,-1.19 Q 2.39,-1.19 2.79,-0.48 3.18,0.22 3.60,1.99 4.02,3.76 4.11,5.50 4.20,7.25 4.25,8.73 4.30,10.21 4.32,11.98 4.34,13.74 4.26,14.24 4.18,14.73 3.95,15.18 3.71,15.62 3.35,15.96 2.98,16.31 2.53,16.52 2.08,16.73 1.58,16.78 1.08,16.84 0.59,16.73 0.10,16.62 -0.32,16.37 -0.75,16.11 -1.07,15.73 -1.40,15.34 -1.58,14.88 -1.77,14.41 -1.80,13.91 -1.82,13.41 -1.69,12.93 -1.56,12.45 -1.28,12.03 -0.99,11.62 -0.60,11.31 -0.20,11.01 0.27,10.85 0.74,10.69 1.24,10.69 1.74,10.69 2.22,10.85 2.69,11.01 3.09,11.31 3.49,11.61 3.77,12.03 4.06,12.44 4.19,12.93 4.32,13.41 4.30,13.91 4.27,14.41 4.09,14.88 3.90,15.34 3.58,15.72 3.25,16.11 2.82,16.36 2.39,16.62 1.90,16.73 1.41,16.84 0.92,16.78 0.42,16.73 -0.03,16.52 -0.48,16.31 -0.85,15.96 -1.21,15.62 -1.45,15.18 -1.68,14.73 -1.76,14.24 -1.84,13.75 -1.84,13.75 -1.84,13.75 -1.80,11.30 -1.76,8.86 -1.75,7.15 -1.73,5.44 -1.74,4.04 -1.75,2.65 -2.07,1.92 -2.39,1.19 -2.50,0.89 -2.61,0.59 -2.64,0.26 -2.68,-0.05 -2.63,-0.37 -2.59,-0.69 -2.47,-0.99 -2.34,-1.29 -2.16,-1.55 -1.97,-1.81 -1.72,-2.02 -1.47,-2.23 -1.19,-2.38 -0.90,-2.52 -0.58,-2.59 -0.27,-2.66 0.05,-2.66 0.37,-2.65 0.68,-2.57 1.00,-2.48 1.28,-2.33 1.56,-2.17 1.80,-1.95 2.04,-1.73 2.22,-1.46 2.39,-1.19 2.39,-1.19 L 2.39,-1.19 Z"></path></g><g transform="translate(321.7643687226214 312.0023169009155) rotate(0 18.75 8.4375)" stroke="none" fill="#087f5b"><path d="M 0.25,-2.52 Q 0.25,-2.52 2.04,-2.26 3.83,-2.01 4.91,-1.98 6.00,-1.94 7.15,-1.94 8.30,-1.94 9.68,-1.93 11.07,-1.91 12.38,-1.92 13.69,-1.92 14.99,-1.75 16.30,-1.58 17.42,-1.33 18.54,-1.08 19.79,-1.04 21.03,-0.99 22.58,-1.05 24.13,-1.11 26.08,-1.17 28.03,-1.22 29.45,-1.25 30.87,-1.28 32.08,-1.31 33.28,-1.34 35.18,-1.32 37.07,-1.30 38.31,-0.61 39.54,0.07 40.06,1.66 40.58,3.26 40.69,4.83 40.80,6.40 40.80,7.83 40.80,9.27 40.26,10.59 39.73,11.91 39.66,14.76 39.60,17.60 39.49,18.14 39.39,18.67 39.12,19.14 38.85,19.61 38.44,19.97 38.04,20.33 37.54,20.54 37.04,20.76 36.50,20.80 35.95,20.84 35.43,20.70 34.90,20.57 34.45,20.27 33.99,19.98 33.65,19.55 33.32,19.13 33.13,18.62 32.95,18.11 32.94,17.57 32.92,17.02 33.09,16.51 33.25,15.99 33.57,15.55 33.89,15.11 34.33,14.80 34.77,14.48 35.29,14.32 35.81,14.17 36.35,14.19 36.90,14.20 37.40,14.39 37.91,14.58 38.33,14.93 38.75,15.27 39.04,15.73 39.33,16.19 39.46,16.71 39.59,17.24 39.54,17.78 39.50,18.32 39.28,18.82 39.06,19.32 38.70,19.72 38.33,20.12 37.86,20.39 37.38,20.65 36.85,20.75 36.32,20.85 35.78,20.77 35.24,20.70 34.76,20.45 34.27,20.21 33.89,19.82 33.51,19.44 33.27,18.95 33.03,18.46 32.96,17.92 32.89,17.38 32.89,17.39 32.89,17.39 33.03,14.58 33.17,11.78 33.67,10.32 34.18,8.86 34.15,7.74 34.12,6.63 34.98,5.48 35.84,4.33 34.56,4.71 33.28,5.09 32.08,5.06 30.87,5.03 29.45,5.00 28.03,4.97 26.68,4.94 25.33,4.91 24.10,4.85 22.87,4.79 21.76,4.70 20.66,4.61 18.94,4.34 17.23,4.07 15.44,3.61 13.66,3.15 12.34,3.14 11.02,3.12 9.59,3.11 8.16,3.10 6.91,3.03 5.67,2.97 4.51,2.85 3.35,2.73 1.55,2.62 -0.25,2.52 -0.55,2.45 -0.84,2.38 -1.12,2.25 -1.39,2.11 -1.62,1.91 -1.86,1.71 -2.03,1.47 -2.21,1.22 -2.33,0.94 -2.44,0.65 -2.48,0.35 -2.53,0.05 -2.50,-0.25 -2.47,-0.55 -2.36,-0.84 -2.26,-1.12 -2.09,-1.38 -1.93,-1.63 -1.70,-1.84 -1.48,-2.05 -1.21,-2.20 -0.94,-2.34 -0.65,-2.42 -0.35,-2.50 -0.05,-2.51 0.25,-2.52 0.25,-2.52 L 0.25,-2.52 Z"></path></g><g transform="translate(513.0143687226214 303.8773169009155) rotate(0 -0.3125 4.375)" stroke="none" fill="#087f5b"><path d="M 2.49,0.31 Q 2.49,0.31 2.30,1.74 2.12,3.18 2.10,4.42 2.09,5.65 2.11,7.21 2.12,8.77 2.04,9.21 1.97,9.65 1.75,10.04 1.54,10.43 1.22,10.73 0.89,11.04 0.49,11.22 0.08,11.40 -0.35,11.45 -0.80,11.49 -1.23,11.39 -1.66,11.29 -2.04,11.06 -2.42,10.82 -2.71,10.48 -2.99,10.14 -3.15,9.72 -3.31,9.31 -3.33,8.87 -3.35,8.42 -3.23,7.99 -3.10,7.57 -2.85,7.20 -2.60,6.83 -2.24,6.57 -1.88,6.30 -1.46,6.17 -1.04,6.03 -0.59,6.03 -0.15,6.04 0.26,6.18 0.68,6.33 1.03,6.60 1.38,6.87 1.63,7.24 1.88,7.62 1.99,8.04 2.11,8.47 2.08,8.92 2.05,9.36 1.88,9.77 1.71,10.19 1.42,10.52 1.13,10.86 0.75,11.08 0.36,11.31 -0.06,11.40 -0.50,11.49 -0.94,11.44 -1.38,11.39 -1.78,11.20 -2.19,11.01 -2.51,10.70 -2.83,10.39 -3.03,9.99 -3.23,9.60 -3.30,9.16 -3.37,8.72 -3.37,8.72 -3.37,8.72 -3.31,7.02 -3.24,5.31 -3.04,3.94 -2.83,2.56 -2.66,1.12 -2.49,-0.31 -2.41,-0.60 -2.34,-0.89 -2.20,-1.16 -2.06,-1.43 -1.85,-1.65 -1.65,-1.88 -1.40,-2.05 -1.15,-2.22 -0.87,-2.33 -0.59,-2.43 -0.29,-2.47 0.00,-2.51 0.30,-2.47 0.60,-2.43 0.89,-2.32 1.17,-2.21 1.42,-2.04 1.67,-1.87 1.87,-1.64 2.07,-1.41 2.21,-1.15 2.35,-0.88 2.42,-0.58 2.49,-0.29 2.49,0.00 2.49,0.31 2.49,0.31 L 2.49,0.31 Z"></path></g><g transform="translate(512.3893687226214 303.2523169009155) rotate(0 41.875 5.625)" stroke="none" fill="#087f5b"><path d="M -0.16,-1.81 Q -0.16,-1.81 1.81,-1.95 3.79,-2.10 5.38,-2.23 6.97,-2.37 8.38,-2.46 9.78,-2.56 12.72,-2.49 15.67,-2.41 17.45,-2.43 19.23,-2.44 21.79,-2.38 24.34,-2.31 27.41,-2.26 30.47,-2.21 32.85,-2.17 35.23,-2.13 36.96,-2.19 38.69,-2.24 40.14,-2.33 41.60,-2.41 43.29,-2.44 44.99,-2.47 46.07,-2.55 47.15,-2.64 48.67,-2.78 50.20,-2.93 51.86,-3.03 53.52,-3.14 54.66,-3.17 55.80,-3.20 57.01,-3.22 58.21,-3.23 59.44,-3.25 60.68,-3.26 61.92,-3.27 63.16,-3.28 64.41,-3.29 65.65,-3.29 67.46,-3.36 69.26,-3.42 70.55,-3.41 71.84,-3.40 73.47,-3.34 75.09,-3.28 77.31,-3.32 79.52,-3.35 81.85,-2.62 84.18,-1.89 84.88,-0.20 85.59,1.48 85.70,2.85 85.82,4.23 85.86,5.53 85.90,6.83 86.20,8.84 86.50,10.85 86.59,11.31 86.68,11.78 86.62,12.25 86.56,12.72 86.35,13.15 86.14,13.58 85.80,13.91 85.47,14.25 85.04,14.46 84.62,14.68 84.15,14.74 83.68,14.81 83.21,14.72 82.74,14.63 82.33,14.40 81.91,14.17 81.59,13.82 81.27,13.46 81.08,13.03 80.90,12.59 80.85,12.12 80.81,11.64 80.93,11.18 81.04,10.72 81.30,10.32 81.55,9.92 81.92,9.62 82.29,9.32 82.73,9.15 83.18,8.99 83.66,8.97 84.13,8.96 84.59,9.09 85.04,9.23 85.43,9.51 85.82,9.78 86.09,10.17 86.37,10.55 86.51,11.01 86.66,11.46 86.64,11.94 86.63,12.41 86.47,12.86 86.31,13.31 86.01,13.68 85.72,14.05 85.32,14.31 84.92,14.57 84.46,14.68 83.99,14.80 83.52,14.76 83.05,14.72 82.61,14.54 82.17,14.35 81.82,14.04 81.46,13.72 81.23,13.31 80.99,12.89 80.99,12.89 80.99,12.89 80.61,9.96 80.22,7.02 80.18,5.85 80.13,4.69 79.83,3.40 79.52,2.10 77.31,2.07 75.09,2.03 73.47,2.09 71.84,2.15 70.55,2.16 69.26,2.17 67.46,2.11 65.65,2.04 64.41,2.04 63.16,2.03 61.92,2.02 60.68,2.01 59.44,2.00 58.21,1.98 57.01,1.97 55.80,1.95 54.66,1.92 53.52,1.89 51.86,1.78 50.20,1.68 48.67,1.53 47.15,1.39 46.07,1.30 44.99,1.22 43.29,1.19 41.60,1.16 40.14,1.08 38.69,1.00 36.96,0.94 35.23,0.89 32.85,0.92 30.47,0.96 27.41,1.01 24.35,1.07 21.79,1.14 19.24,1.21 17.46,1.21 15.68,1.20 12.78,1.30 9.87,1.41 8.52,1.38 7.16,1.34 5.63,1.36 4.11,1.38 2.13,1.60 0.16,1.81 -0.05,1.80 -0.27,1.79 -0.48,1.74 -0.69,1.68 -0.88,1.57 -1.07,1.46 -1.23,1.31 -1.39,1.16 -1.51,0.98 -1.63,0.79 -1.70,0.58 -1.77,0.38 -1.79,0.16 -1.81,-0.05 -1.78,-0.27 -1.75,-0.48 -1.66,-0.69 -1.58,-0.89 -1.45,-1.07 -1.32,-1.24 -1.15,-1.38 -0.98,-1.52 -0.79,-1.62 -0.59,-1.72 -0.37,-1.76 -0.16,-1.81 -0.16,-1.81 L -0.16,-1.81 Z"></path></g><g transform="translate(321.1393687226214 291.3773169009155) rotate(0 0.3125 6.5625)" stroke="none" fill="#087f5b"><path d="M 2.61,-0.52 Q 2.61,-0.52 2.83,0.36 3.04,1.26 3.24,2.87 3.44,4.48 3.52,5.82 3.60,7.16 3.65,8.24 3.70,9.33 3.74,11.22 3.78,13.12 3.69,13.62 3.61,14.13 3.37,14.58 3.13,15.03 2.76,15.38 2.39,15.73 1.93,15.95 1.46,16.16 0.96,16.22 0.45,16.27 -0.04,16.16 -0.54,16.05 -0.98,15.79 -1.41,15.53 -1.74,15.14 -2.08,14.75 -2.26,14.27 -2.45,13.80 -2.48,13.29 -2.51,12.78 -2.37,12.29 -2.24,11.79 -1.95,11.37 -1.66,10.95 -1.26,10.64 -0.85,10.33 -0.36,10.17 0.11,10.00 0.62,10.00 1.13,10.00 1.61,10.17 2.10,10.33 2.51,10.64 2.91,10.95 3.20,11.37 3.49,11.79 3.62,12.29 3.76,12.78 3.73,13.29 3.70,13.80 3.51,14.27 3.33,14.75 2.99,15.14 2.66,15.53 2.23,15.79 1.79,16.05 1.29,16.16 0.79,16.27 0.28,16.22 -0.21,16.16 -0.68,15.95 -1.14,15.73 -1.51,15.38 -1.88,15.03 -2.12,14.58 -2.36,14.13 -2.44,13.62 -2.53,13.12 -2.53,13.12 -2.53,13.12 -2.49,11.23 -2.45,9.34 -2.41,8.28 -2.36,7.21 -2.33,5.99 -2.29,4.76 -2.30,3.54 -2.32,2.33 -2.47,1.42 -2.61,0.52 -2.64,0.20 -2.66,-0.11 -2.61,-0.43 -2.56,-0.75 -2.43,-1.04 -2.30,-1.34 -2.11,-1.60 -1.91,-1.85 -1.66,-2.06 -1.41,-2.26 -1.12,-2.40 -0.83,-2.53 -0.51,-2.60 -0.20,-2.66 0.11,-2.64 0.43,-2.63 0.74,-2.54 1.05,-2.45 1.33,-2.29 1.61,-2.12 1.84,-1.90 2.07,-1.68 2.24,-1.40 2.41,-1.13 2.51,-0.82 2.61,-0.52 2.61,-0.52 L 2.61,-0.52 Z"></path></g><g transform="translate(324.2643687226214 292.0023169009155) rotate(0 88.75 0.3125)" stroke="none" fill="#087f5b"><path d="M -1.51,-2.11 Q -1.51,-2.11 -0.23,-2.99 1.04,-3.86 2.25,-4.53 3.46,-5.20 4.96,-5.98 6.45,-6.76 7.70,-6.90 8.95,-7.05 10.50,-7.16 12.04,-7.27 13.80,-7.57 15.55,-7.87 17.01,-8.07 18.47,-8.27 20.19,-8.28 21.90,-8.29 23.69,-8.23 25.49,-8.17 27.14,-8.14 28.80,-8.10 30.76,-8.00 32.72,-7.90 34.99,-7.77 37.26,-7.65 40.03,-7.55 42.79,-7.46 45.40,-7.39 48.01,-7.32 50.20,-7.27 52.39,-7.21 54.21,-7.24 56.04,-7.27 57.54,-7.34 59.03,-7.42 60.75,-7.44 62.46,-7.47 63.91,-7.53 65.36,-7.59 66.51,-7.66 67.66,-7.73 69.85,-7.85 72.04,-7.97 73.25,-8.01 74.46,-8.04 75.69,-8.07 76.92,-8.10 78.16,-8.12 79.41,-8.15 81.01,-8.11 82.62,-8.08 84.38,-8.02 86.14,-7.97 87.61,-7.97 89.08,-7.98 90.78,-7.95 92.48,-7.91 93.92,-7.93 95.36,-7.94 97.23,-7.88 99.10,-7.81 101.34,-7.70 103.57,-7.58 105.24,-7.60 106.90,-7.61 108.33,-7.66 109.76,-7.70 111.44,-7.70 113.13,-7.70 115.28,-7.60 117.44,-7.50 119.43,-7.46 121.42,-7.41 123.89,-7.35 126.35,-7.28 128.12,-7.32 129.88,-7.35 131.71,-7.36 133.54,-7.37 135.40,-7.38 137.25,-7.38 139.12,-7.38 140.99,-7.38 143.40,-7.32 145.81,-7.26 147.55,-7.30 149.29,-7.34 150.39,-7.43 151.49,-7.53 153.04,-7.57 154.59,-7.61 155.96,-7.66 157.34,-7.72 158.55,-8.10 159.76,-8.49 161.12,-8.78 162.47,-9.08 163.74,-9.19 165.01,-9.30 166.64,-9.42 168.26,-9.55 169.58,-9.63 170.91,-9.71 172.90,-9.72 174.90,-9.72 176.53,-9.00 178.16,-8.28 178.99,-6.63 179.82,-4.97 180.10,-3.14 180.39,-1.30 180.48,-0.16 180.56,0.98 180.61,2.21 180.65,3.45 180.07,6.41 179.49,9.37 179.12,9.74 178.76,10.11 178.29,10.34 177.82,10.57 177.31,10.64 176.79,10.72 176.28,10.62 175.77,10.52 175.31,10.27 174.86,10.01 174.51,9.62 174.16,9.24 173.95,8.76 173.75,8.28 173.70,7.76 173.66,7.24 173.78,6.74 173.91,6.23 174.19,5.79 174.47,5.35 174.87,5.02 175.28,4.70 175.77,4.51 176.25,4.33 176.78,4.32 177.30,4.30 177.80,4.45 178.29,4.61 178.72,4.91 179.14,5.21 179.45,5.63 179.75,6.06 179.91,6.55 180.06,7.05 180.05,7.57 180.03,8.09 179.86,8.58 179.68,9.07 179.35,9.48 179.03,9.89 178.59,10.17 178.15,10.45 177.64,10.58 177.14,10.70 176.62,10.66 176.10,10.62 175.62,10.42 175.14,10.21 174.75,9.87 174.36,9.52 174.11,9.07 173.85,8.61 173.75,8.10 173.65,7.59 173.72,7.07 173.79,6.56 174.02,6.09 174.25,5.62 174.25,5.62 174.25,5.62 174.31,3.94 174.36,2.26 174.40,0.71 174.43,-0.82 174.65,-2.42 174.86,-4.02 172.90,-4.02 170.93,-4.02 169.64,-4.09 168.35,-4.15 166.82,-4.20 165.29,-4.25 163.51,-4.22 161.73,-4.19 159.53,-3.86 157.34,-3.52 155.96,-3.58 154.59,-3.63 153.04,-3.67 151.49,-3.71 150.39,-3.81 149.29,-3.90 147.55,-3.94 145.81,-3.98 143.40,-3.92 140.99,-3.86 139.12,-3.86 137.25,-3.86 135.40,-3.86 133.54,-3.87 131.71,-3.88 129.88,-3.89 128.12,-3.92 126.35,-3.96 123.89,-3.89 121.42,-3.83 119.43,-3.78 117.44,-3.74 115.28,-3.64 113.13,-3.54 111.44,-3.54 109.76,-3.54 108.33,-3.58 106.90,-3.63 105.24,-3.64 103.57,-3.66 101.34,-3.54 99.10,-3.43 97.23,-3.36 95.36,-3.30 93.92,-3.31 92.48,-3.33 90.78,-3.29 89.08,-3.26 87.61,-3.27 86.14,-3.27 84.38,-3.22 82.62,-3.16 81.01,-3.13 79.41,-3.09 78.16,-3.12 76.92,-3.14 75.69,-3.17 74.46,-3.20 73.25,-3.23 72.04,-3.27 69.85,-3.39 67.66,-3.51 66.51,-3.58 65.36,-3.65 63.91,-3.71 62.46,-3.77 60.75,-3.80 59.03,-3.82 57.54,-3.90 56.04,-3.97 54.21,-4.00 52.39,-4.03 50.20,-3.97 48.01,-3.92 45.40,-3.85 42.79,-3.78 40.03,-3.68 37.27,-3.58 35.00,-3.45 32.73,-3.32 30.78,-3.21 28.83,-3.10 27.20,-3.04 25.57,-2.98 23.85,-2.87 22.13,-2.76 19.71,-2.53 17.29,-2.30 15.73,-1.86 14.18,-1.43 12.51,-1.45 10.84,-1.47 9.10,-1.49 7.36,-1.50 5.67,-0.61 3.98,0.27 2.75,1.19 1.51,2.11 1.23,2.26 0.96,2.41 0.65,2.49 0.35,2.57 0.04,2.58 -0.27,2.58 -0.57,2.51 -0.88,2.44 -1.16,2.30 -1.44,2.16 -1.68,1.95 -1.91,1.75 -2.10,1.50 -2.28,1.24 -2.39,0.95 -2.51,0.66 -2.55,0.35 -2.60,0.04 -2.56,-0.27 -2.53,-0.58 -2.42,-0.87 -2.32,-1.17 -2.14,-1.43 -1.97,-1.69 -1.74,-1.90 -1.51,-2.11 -1.51,-2.11 L -1.51,-2.11 Z"></path></g></svg>