<svg version="1.1" xmlns="http://www.w3.org/2000/svg" viewBox="0 0 767 830" width="767" height="830">
  <!-- svg-source:excalidraw -->
  
  <defs>
    <style>
      @font-face {
        font-family: "Virgil";
        src: url("https://excalidraw.com/Virgil.woff2");
      }
      @font-face {
        font-family: "Cascadia";
        src: url("https://excalidraw.com/Cascadia.woff2");
      }
    </style>
  </defs>
  <rect x="0" y="0" width="767" height="830" fill="#f8f9fa"></rect><g stroke-linecap="round" transform="translate(10 460.0361030125032) rotate(0 20 20)"><path d="M1.59 10.66 C1.59 10.66, 1.59 10.66, 1.59 10.66 M1.59 10.66 C1.59 10.66, 1.59 10.66, 1.59 10.66 M2.54 19.6 C6.47 11.77, 10.65 6.87, 12.8 4.57 M-0.31 18.53 C6.24 11.47, 9.7 5.56, 13.9 2.65 M-0.53 22.67 C3.7 21.42, 6.82 14.7, 19.38 2.44 M0.18 25.09 C4.41 19.44, 10.93 13.59, 19.5 3.28 M2.71 28.32 C12.37 20.02, 19 10.79, 24.39 1.11 M4.17 27.83 C12.76 18.18, 21.02 7.54, 26.37 1.21 M4.15 30.09 C9.94 22.47, 19.17 18.53, 29.49 2.39 M6 30.04 C15.23 20.68, 23.27 10.92, 28.21 3.05 M9.56 31.93 C13.7 29.22, 18.68 22.5, 30.83 3.96 M9.02 34.06 C14.86 26, 20.53 19.12, 32.79 5.01 M8.6 37.97 C18.32 27.96, 25.66 20.5, 36.54 7.29 M11.24 36.93 C15.18 30.41, 20.96 25.05, 36.11 7.64 M13.94 40.09 C20.84 33.04, 24.21 25.86, 39.11 11.47 M13.22 38.73 C23.23 28.02, 32.24 18.91, 38.55 9.36 M17.15 41.54 C24.22 30.7, 33.29 25.53, 39.97 15.69 M17.67 39.91 C23.75 34.25, 28.44 27.44, 40.13 15.84 M23.89 40.45 C26.73 38.57, 31.22 33.19, 40.59 18.61 M23.34 41.67 C30.74 33.55, 37.89 25.11, 41.33 19.03 M32.08 34.49 C36.51 31.79, 37.39 31.41, 42.38 25.75 M32.69 35.8 C35.85 32.14, 38.62 29.22, 41.93 25.51 M8.67 35.75 C8.67 35.75, 8.67 35.75, 8.67 35.75 M8.67 35.75 C8.67 35.75, 8.67 35.75, 8.67 35.75 M19.55 40 C14.87 35.24, 11.97 32.43, -0.47 22.35 M19.49 39.02 C13.92 34.89, 6.85 29.86, 2.01 25.1 M23.98 38.27 C15.2 32.38, 8.52 23.25, 0.35 20.79 M25.04 39.25 C16.2 31.63, 6.87 23.44, 1.91 18.57 M25.96 37.73 C20.15 29.22, 9.67 21.32, 1.45 15.98 M27.94 35.93 C21.22 29.94, 13.26 23.38, 1.72 14.65 M32.22 33.8 C21.25 24.66, 10.92 16.62, 1.85 8.13 M32.9 34.96 C23 26.14, 13.39 18.26, 2.17 9.45 M35.34 33.54 C27.44 24.04, 17.42 15.36, 6.67 5.94 M35.46 33.16 C26.44 24.35, 17 16.56, 6.54 6.91 M36.26 30.06 C29.87 20.05, 22.33 14.43, 8.49 1.95 M37.24 29.5 C28.18 19.54, 17.02 11.7, 7.8 3.91 M40.91 23.65 C33.46 17.74, 24.96 10.06, 12.64 0.77 M38.3 25.96 C33.64 19.09, 26.89 14.67, 12.51 1.31 M41.68 20.28 C32.64 15.22, 25.31 8.08, 19.07 2.36 M41.3 20.91 C32.97 13.75, 25 7.86, 18.53 1 M38.34 13.5 C36.02 11.82, 33.4 8.46, 23.8 0.56 M38.13 14.66 C34.45 11.3, 29.93 6.28, 23.07 1.17" stroke="#868e96" stroke-width="0.5" fill="none"></path><path d="M24.78 0.95 C28.9 1.52, 34.35 4.22, 36.86 7.79 C39.36 11.35, 40.17 18, 39.82 22.34 C39.47 26.68, 37.62 30.8, 34.76 33.82 C31.9 36.84, 27.04 40.19, 22.66 40.48 C18.27 40.77, 12.12 38.17, 8.44 35.55 C4.76 32.94, 1.74 28.9, 0.56 24.79 C-0.62 20.68, -0.48 14.81, 1.36 10.92 C3.21 7.03, 7.64 3.06, 11.64 1.45 C15.65 -0.16, 22.85 1.12, 25.38 1.27 C27.92 1.42, 26.76 2.18, 26.86 2.36 M21.93 -0.75 C25.66 -0.86, 30.64 2.35, 33.74 5.51 C36.84 8.66, 40.1 13.69, 40.54 18.2 C40.99 22.71, 39.23 29.21, 36.41 32.55 C33.59 35.88, 27.68 37.12, 23.62 38.23 C19.57 39.34, 15.92 40.79, 12.11 39.21 C8.29 37.63, 2.47 32.79, 0.74 28.74 C-1 24.69, 0.11 19.06, 1.7 14.93 C3.29 10.8, 6.73 6.61, 10.29 3.95 C13.86 1.3, 20.92 -0.58, 23.11 -1.02 C25.3 -1.45, 23.65 0.64, 23.46 1.36" stroke="#000000" stroke-width="1" fill="none"></path></g><g stroke-linecap="round" transform="translate(110 460.0361030125032) rotate(0 20 20)"><path d="M2.08 11.08 C2.08 11.08, 2.08 11.08, 2.08 11.08 M2.08 11.08 C2.08 11.08, 2.08 11.08, 2.08 11.08 M2.3 17.68 C5.54 13.59, 7.89 10.89, 15.08 3.48 M1.72 17.5 C3.21 14.03, 6.91 11.74, 12.88 3.69 M0.07 26.6 C5.49 17.49, 14.13 9.72, 18.53 3.67 M0.08 25.45 C7.66 18.28, 13.33 11.25, 19.33 2.58 M5.13 28.84 C9.85 21.75, 11.67 16.67, 28.51 1.33 M4.14 29 C9.27 21.5, 14.84 14.98, 26.34 0.21 M3.95 30.13 C14.71 24.7, 20.51 13.99, 31.39 1.61 M6.21 31.56 C10.9 25.65, 15.61 18.49, 29.01 3.63 M8.45 36.25 C15.14 27.53, 20.25 17.09, 32.19 6.25 M8.31 34.68 C16.38 24.65, 26.16 13.22, 32.9 6.56 M10.65 37.89 C17.93 30.69, 25.65 21, 34.08 7.45 M9.52 37.65 C17.01 30.08, 24.61 21.62, 35.21 9.05 M15.76 40.18 C22.79 28.68, 33.25 19.08, 40.22 12.46 M14.82 38.79 C21.59 32.59, 27.48 23.43, 39.2 10.83 M17.55 39.3 C26.93 33.8, 33.31 24.36, 38.91 17.61 M19.1 40.89 C26 31.78, 33.82 24.33, 39.21 17.15 M24.02 42.72 C27.71 38.19, 29.97 31.75, 42.07 20.11 M24.65 41.21 C28.6 36.26, 31.88 30.68, 39.75 21.32 M31.47 38.38 C32.43 37.61, 33.98 35.86, 34.79 33.96 M30.99 38.69 C31.94 37.72, 32.53 37.15, 34.81 34.11 M8.52 35.93 C8.52 35.93, 8.52 35.93, 8.52 35.93 M8.52 35.93 C8.52 35.93, 8.52 35.93, 8.52 35.93 M16.15 36.5 C11.7 32.44, 4.31 26.91, 1.16 22.88 M17.15 37.98 C10.25 33.14, 5.96 28.87, 1.32 23.89 M22.04 38.53 C16.58 30.34, 6.76 26.56, 2.91 20.5 M23.74 38.23 C15.74 31.37, 7.62 24, 1.66 17.94 M28.63 37.25 C22.4 33.02, 15.39 28.38, 2.01 14.01 M27.92 35.96 C18.76 28.24, 8.82 20.99, 2.43 14.44 M31.04 33.57 C23.1 27.5, 16.11 20.7, 3.22 11.36 M31.91 34.34 C25.25 29.25, 19.75 25.27, 3.58 9.14 M37.85 33.47 C27.52 24.69, 16.02 14.53, 6.16 7.84 M36.52 33.25 C26.54 25.21, 16.77 16.33, 5.62 7.76 M38.77 27.78 C29.14 20.43, 17.27 9.95, 9.31 3.23 M38.57 28.82 C26.99 20.82, 16.48 11.96, 8.19 4.01 M41.59 25.24 C33.18 17.61, 25.73 12.43, 10.39 2.25 M40.56 25.32 C31.64 19.09, 23.27 11.03, 12.27 1.74 M40.63 22.41 C33.6 15.44, 26.72 9.24, 17.34 2.37 M40.78 20.84 C34.91 16.71, 30.49 11.63, 15.81 1.61 M38.62 14.17 C33.71 8.7, 27.38 3.85, 21.96 0.35 M38.01 14.54 C31.76 7.93, 25.49 3.49, 23.14 -0.68" stroke="#868e96" stroke-width="0.5" fill="none"></path><path d="M26 0.22 C29.99 1.15, 33.98 5.96, 36.37 9.56 C38.76 13.16, 40.62 17.6, 40.33 21.82 C40.04 26.03, 37.82 32.01, 34.64 34.87 C31.46 37.72, 25.64 38.83, 21.23 38.96 C16.82 39.08, 11.67 38.09, 8.17 35.62 C4.67 33.14, 1.21 28.24, 0.23 24.1 C-0.74 19.97, 0.52 14.5, 2.3 10.82 C4.09 7.15, 6.65 3.48, 10.94 2.08 C15.23 0.68, 24.61 2.23, 28.03 2.44 C31.45 2.64, 31.48 2.98, 31.45 3.31 M27.81 1.1 C31.78 2.66, 36.85 6.87, 38.83 11.01 C40.82 15.16, 41.13 21.9, 39.72 25.94 C38.32 29.99, 33.83 32.74, 30.41 35.3 C26.98 37.86, 23.45 41.39, 19.18 41.32 C14.92 41.26, 7.85 38.09, 4.8 34.91 C1.74 31.73, 0.82 26.58, 0.85 22.27 C0.87 17.95, 2.44 12.83, 4.92 9.02 C7.41 5.22, 11.6 0.45, 15.74 -0.58 C19.87 -1.62, 27.65 2.14, 29.74 2.82 C31.83 3.51, 28.5 3.14, 28.29 3.54" stroke="#000000" stroke-width="1" fill="none"></path></g><g stroke-linecap="round" transform="translate(210 460.0361030125032) rotate(0 20 20)"><path d="M5.44 6.06 C5.44 6.06, 5.44 6.06, 5.44 6.06 M5.44 6.06 C5.44 6.06, 5.44 6.06, 5.44 6.06 M3.01 18.43 C4.97 10.79, 7.66 8.9, 14.83 1.18 M1.18 16.24 C3.81 14.33, 6.2 10.19, 13.32 3.58 M2.97 19.62 C7.25 16.67, 10.08 14.09, 18.37 3.13 M3.81 20.42 C8.95 11.97, 15.88 6.34, 20.94 1.91 M4.6 26.88 C12.75 15.43, 21.27 10.03, 26.1 4.59 M4.7 24.71 C11.14 16.78, 18.09 8.63, 23.5 1.98 M2.99 33.14 C11.95 18.9, 23.78 9.17, 29.85 4.06 M3.65 30.76 C11.83 23.14, 19.72 14.03, 28.9 4.46 M6.36 32.79 C16.23 25.66, 25.89 16.04, 34.31 3.91 M7.41 33.5 C15.1 25.61, 20.34 18.58, 33.81 3.96 M10.85 34.29 C16.96 27.36, 26.96 19.25, 33.71 7.21 M11.19 35.41 C17.78 29.58, 23.73 22.01, 35.91 8.68 M15.42 40.03 C20.7 31.83, 23.14 25.88, 37.34 11.41 M13.31 39.01 C20.48 31.16, 27.38 23.38, 36.34 11.81 M19.74 38.03 C26.97 32.42, 30.56 23.65, 39.6 16.75 M19.89 38.33 C25.07 32.42, 29.67 27.31, 39.45 16.72 M23.41 40.4 C27.33 32.45, 34.51 29.73, 39.82 23.83 M23.83 38.08 C29.34 33.51, 34.35 26.16, 39.38 22.13 M3.74 30.76 C3.74 30.76, 3.74 30.76, 3.74 30.76 M3.74 30.76 C3.74 30.76, 3.74 30.76, 3.74 30.76 M15.55 36.03 C12.6 31.95, 6.12 28.1, 2.53 22.86 M15.77 35.37 C12.89 32.76, 8.12 29.24, 1.7 23.33 M19.96 36.46 C14.29 30.69, 9.7 23.4, 2.13 18.48 M22.7 36.62 C16.9 31.98, 11.48 26.97, 0.29 17.89 M30.54 38.76 C21.58 29.47, 11.66 21.17, 4.38 14.77 M28.31 37.52 C18.61 27.74, 8.93 20.84, 3.39 14.43 M33.34 33.73 C21.85 26.79, 13.25 16.54, 6.34 9.98 M32.01 34.15 C21.73 24.66, 11.92 15.93, 4.02 9.44 M33.1 30.8 C28.75 22.69, 22.41 19, 5.66 4.51 M34.42 31.17 C26.71 25.19, 20.87 19.41, 6.47 5.91 M36.66 28.76 C26.76 18.98, 14.55 9.73, 9.25 2.71 M37.62 28.22 C27.98 20.17, 16.53 11.39, 8.62 1.89 M36.04 24.3 C27.6 16.05, 18.8 8.12, 13.74 -0.5 M38 23.18 C31.67 17.35, 26.31 11.56, 13.23 0.74 M37.58 17.01 C31.5 12.08, 21.73 7.03, 18.1 -1.86 M38.13 18.89 C31.02 12.42, 24.01 5.29, 16.33 -0.21 M40.69 14.74 C34.9 7.46, 27.56 2.34, 20.46 -3.87 M39.32 13.21 C35.2 10.35, 28.65 4.74, 20.78 -2.23" stroke="#868e96" stroke-width="0.5" fill="none"></path><path d="M18.58 0.69 C22.57 0.04, 29.11 1.17, 32.42 3.57 C35.73 5.97, 37.64 10.92, 38.45 15.07 C39.26 19.22, 39.16 24.53, 37.28 28.46 C35.4 32.39, 31.07 37, 27.17 38.65 C23.26 40.31, 17.77 39.73, 13.85 38.4 C9.93 37.07, 5.85 34.06, 3.65 30.69 C1.46 27.32, 0.35 22.34, 0.69 18.19 C1.02 14.04, 2.21 8.67, 5.67 5.8 C9.13 2.92, 18.68 1.89, 21.45 0.92 C24.22 -0.05, 22.52 -0.1, 22.29 -0.02 M24.17 -0.43 C28.14 0.21, 31.34 5.31, 34.21 8.62 C37.09 11.94, 41.11 15.25, 41.43 19.45 C41.76 23.66, 39.05 30.29, 36.16 33.86 C33.27 37.42, 28.35 40.2, 24.08 40.85 C19.81 41.5, 14.57 39.97, 10.55 37.76 C6.52 35.55, 1.35 31.75, -0.06 27.56 C-1.47 23.37, 0.19 16.68, 2.1 12.61 C4.01 8.54, 7.55 5.31, 11.39 3.16 C15.23 1.01, 23.09 0.08, 25.14 -0.29 C27.19 -0.66, 24.17 0.28, 23.69 0.93" stroke="#000000" stroke-width="1" fill="none"></path></g><g stroke-linecap="round" transform="translate(310 460.0361030125032) rotate(0 20 20)"><path d="M7.24 4.97 C7.24 4.97, 7.24 4.97, 7.24 4.97 M7.24 4.97 C7.24 4.97, 7.24 4.97, 7.24 4.97 M-1.16 16.95 C8.16 12.72, 11.61 2.35, 14.83 0.25 M0.83 18.44 C4.6 13, 11.15 7.01, 16.78 0.34 M2.47 22.57 C9.06 15.52, 14.04 13.05, 22.18 2.59 M1.17 22.69 C8.93 17.15, 14.7 10.05, 20.88 0.49 M1.89 29.4 C11.58 22.02, 18.19 13.89, 25.76 3.53 M3.04 27.11 C10.02 19.44, 16.23 13.44, 26.13 2.64 M3.24 32.47 C9.9 27.05, 16.17 19.52, 29.77 3.04 M4.7 32.77 C9.76 25.97, 16.79 19.62, 29.48 3.34 M9.14 36.41 C14.44 29.01, 18.81 21.25, 34.27 5.97 M7.75 33.73 C14.39 27.82, 19.76 20.79, 34.02 5.47 M10.57 38.76 C18.29 27.56, 24.53 20.25, 36.33 8.65 M11.74 37.19 C19.49 28.87, 27.05 18.83, 35.97 8.63 M13.33 37.99 C22.4 29.87, 30.55 19.57, 39.87 10.87 M14.35 39.25 C20.01 33.18, 24.02 28.05, 39.13 11.91 M20.56 37.83 C26.59 31.55, 34.68 22.28, 40.21 15.3 M18.62 40.06 C27.42 30.2, 36.69 21.26, 41.2 15.08 M24.02 40.12 C29.8 36.53, 33.07 32.69, 40.59 22 M25.97 38.43 C27.84 36.47, 30.89 31.93, 41.07 21.87 M14.26 40 C14.26 40, 14.26 40, 14.26 40 M14.26 40 C14.26 40, 14.26 40, 14.26 40 M19.26 38.07 C15.5 37.15, 11.76 33.23, 5.61 27.43 M20.07 39.92 C16.83 36.56, 12.57 33.82, 5.99 26.91 M25.67 39.85 C19.18 35.54, 15.69 28.48, 1.48 18.62 M25.13 38.3 C14.93 30.03, 6.23 22.77, 0.14 16.81 M29.85 37.96 C19.39 30.21, 9.63 20.9, 2.75 14.02 M28.13 35.89 C23.15 32.08, 16.95 26.22, 3.31 13.51 M32.63 33.99 C19.81 26.53, 10.31 16.74, 4.38 9.24 M31.16 33.94 C21.66 25.36, 12.17 17.08, 3.96 9.85 M32.93 33.26 C28.18 25.69, 19.6 18.19, 4.64 5.74 M35.35 31.45 C26.17 24.14, 16.54 16.16, 6.36 6.9 M38.11 28.62 C31.64 23.34, 22.9 16.9, 9.48 4.72 M38.06 27.95 C29.54 21.55, 19.29 14.28, 8.67 3.48 M41.18 25.42 C35.78 21.8, 27.06 14.29, 12.15 -0.38 M39.77 26.32 C30.98 18.96, 22.86 11.08, 11.33 1.5 M40.7 18.81 C36.01 16.65, 26.71 10.11, 17.16 0.58 M40.75 20.79 C33.06 14.45, 27.25 8.95, 16.74 0.19 M38.03 14.77 C31.14 8.01, 23.54 1.44, 19.96 -1.05 M39.99 13.77 C33.37 9.62, 28.27 5.06, 19.63 -2.64" stroke="#868e96" stroke-width="0.5" fill="none"></path><path d="M18.38 -0.94 C22.28 -1.67, 28.19 0.67, 31.63 3.22 C35.07 5.77, 37.92 10.19, 39.03 14.37 C40.14 18.55, 40.24 24.27, 38.28 28.3 C36.32 32.34, 31.31 36.68, 27.26 38.6 C23.22 40.51, 17.91 41.1, 14 39.77 C10.08 38.44, 6.03 34.14, 3.76 30.6 C1.49 27.07, -0.18 22.79, 0.37 18.55 C0.93 14.3, 3.3 8.29, 7.07 5.15 C10.85 2.01, 19.62 0.13, 23.03 -0.3 C26.45 -0.73, 27.63 2.08, 27.58 2.57 M24.14 1.64 C28.2 2.35, 31.33 4.59, 34.1 7.69 C36.88 10.8, 40.34 16.01, 40.79 20.26 C41.24 24.5, 39.5 30.13, 36.81 33.16 C34.12 36.18, 28.87 37.53, 24.65 38.4 C20.43 39.28, 15.43 40.06, 11.51 38.42 C7.59 36.78, 2.78 32.45, 1.13 28.57 C-0.52 24.69, 0.34 19.4, 1.62 15.14 C2.9 10.89, 5.26 5.69, 8.83 3.03 C12.4 0.36, 20.51 -0.34, 23.06 -0.84 C25.6 -1.35, 24.25 -0.4, 24.12 0" stroke="#000000" stroke-width="1" fill="none"></path></g><g stroke-linecap="round" transform="translate(410 460.0361030125032) rotate(0 20 20)"><path d="M2.1 11.1 C2.1 11.1, 2.1 11.1, 2.1 11.1 M2.1 11.1 C2.1 11.1, 2.1 11.1, 2.1 11.1 M1.05 16.84 C3.42 16.11, 5.45 11.12, 12.24 6.44 M0.89 17.92 C3.76 15.5, 5.97 13.26, 12.25 5.4 M0.66 25.53 C5.44 15.16, 13.69 10.36, 20.5 5.11 M0.23 26.22 C7.61 16.79, 15.13 10.33, 19.52 5.26 M2.7 27.71 C9.66 18.79, 17.61 9.35, 23.91 1.11 M1.92 29.53 C10.59 17.46, 20.78 7.68, 26.18 2.54 M3.49 30.38 C12.59 23.48, 21.01 13.72, 29.73 5.72 M4.14 31.8 C12.66 24.15, 21.12 15.16, 29.59 4.15 M6.04 35.51 C14.85 27.48, 18.66 21.1, 33.23 5.85 M7.23 34.62 C14.24 26.48, 23.28 17.78, 32.11 5.61 M9.92 37.46 C17.43 32.38, 23.6 23.81, 37.69 8.9 M10.37 39.55 C16.69 31.2, 21.6 23.97, 36.75 7.5 M13.11 39.77 C21.15 31.4, 28.48 23.3, 38.17 9.52 M15.02 38.73 C23.34 30.35, 30 20.37, 39.72 11.11 M20.62 38.8 C26.25 32.36, 30.77 27.53, 40.7 17.48 M18.37 41.23 C24.99 31.82, 33.35 24.97, 41.33 15.96 M21.54 40.21 C29.13 35.05, 35.7 24.32, 43.45 18.88 M24.02 41.35 C28.04 34.43, 33.44 29.63, 41.86 19.91 M7.85 36.7 C7.85 36.7, 7.85 36.7, 7.85 36.7 M7.85 36.7 C7.85 36.7, 7.85 36.7, 7.85 36.7 M14.9 36.37 C13.25 34.77, 7.63 31.23, 0.38 24.15 M14.83 38.57 C10.56 34.38, 6.82 29.48, 1.38 25.64 M23.93 40.02 C17.41 34.98, 11.56 29.32, 0.24 20.94 M22.94 39.52 C15.71 32.4, 7.97 25.83, 1.93 20.63 M24.98 38.28 C15.95 27.7, 6.93 22.89, 3.8 17.03 M27.16 36.81 C17.78 30.2, 9.91 21.98, 3.09 15.75 M31.25 35.87 C20.32 25.38, 10.31 16.29, 1.68 9.42 M29.86 35.15 C24.49 28.22, 18.07 23.55, 2.56 10.19 M34.96 34.24 C25.94 28.12, 20.84 22.3, 6.99 8.01 M34.08 33.6 C23.32 23.72, 11.42 14.06, 5.66 7.78 M37.99 30.71 C28.76 23.11, 15.85 14.24, 8.66 2.97 M36.97 31.5 C26.29 21.73, 15.4 12.12, 8.47 4.01 M39.14 26.27 C32.18 19.75, 27.19 13.16, 12.99 1.74 M38.68 26.02 C29.9 18.51, 19.15 10.88, 11.96 1.82 M39.78 23.34 C32.43 16.18, 25.19 7.81, 16.56 2.85 M40.79 22.72 C33.25 15.18, 24.98 8.62, 16.71 1.28 M38.04 13.69 C35.85 12.99, 28.77 7.01, 22.85 1.83 M38.18 15.25 C32.64 11.52, 25.93 5.74, 22.24 2.19 M37.74 10.28 C32.96 7.38, 32.22 4.39, 26.16 -0.75 M37.03 8.67 C33.27 5.92, 29.81 3.12, 26.49 -0.25" stroke="#868e96" stroke-width="0.5" fill="none"></path><path d="M10.75 2.17 C14.21 0.4, 20.43 0.27, 24.76 1.25 C29.1 2.22, 34.2 4.48, 36.77 8.02 C39.34 11.55, 40.46 18.17, 40.18 22.46 C39.89 26.75, 38.22 30.93, 35.05 33.74 C31.88 36.54, 25.66 38.78, 21.14 39.29 C16.62 39.79, 11.42 39.06, 7.91 36.76 C4.41 34.46, 1.07 29.8, 0.12 25.51 C-0.84 21.22, 0.16 14.93, 2.16 11.03 C4.16 7.13, 9.9 3.86, 12.13 2.12 C14.35 0.39, 15.15 0.37, 15.52 0.62 M26.3 -0.34 C30.25 0.58, 35.46 5.83, 37.68 9.8 C39.89 13.76, 40.12 19.11, 39.57 23.46 C39.01 27.82, 37.52 33.18, 34.35 35.94 C31.18 38.7, 24.89 40.15, 20.54 40 C16.19 39.84, 11.37 37.67, 8.26 35 C5.15 32.34, 2.93 28.13, 1.85 24.02 C0.78 19.92, 0.04 13.87, 1.81 10.39 C3.58 6.91, 8.41 4.96, 12.48 3.13 C16.54 1.29, 23.81 -0.19, 26.18 -0.62 C28.55 -1.05, 26.77 0.14, 26.7 0.54" stroke="#000000" stroke-width="1" fill="none"></path></g><g stroke-linecap="round"><g transform="translate(50 480.0361030125032) rotate(0 27.659754018726744 0.4929127070959112)"><path d="M0.41 -0.64 C9.48 -0.25, 44.95 0.93, 53.95 1.31 M-0.84 1.63 C8.64 1.74, 47.12 -0.3, 56.16 -0.63" stroke="#000000" stroke-width="1" fill="none"></path></g><g transform="translate(50 480.0361030125032) rotate(0 27.659754018726744 0.4929127070959112)"><path d="M29.73 8.32 C38.08 6.26, 45.23 5.11, 55.13 -0.12 M30.2 9.28 C39.52 6.47, 49 2.51, 56.44 -1.15" stroke="#000000" stroke-width="1" fill="none"></path></g><g transform="translate(50 480.0361030125032) rotate(0 27.659754018726744 0.4929127070959112)"><path d="M28.89 -10.44 C37.29 -7.62, 44.66 -3.88, 55.13 -0.12 M29.36 -9.48 C39.16 -5.31, 48.95 -2.3, 56.44 -1.15" stroke="#000000" stroke-width="1" fill="none"></path></g></g><g stroke-linecap="round"><g transform="translate(150 480.0361030125032) rotate(0 29.36567339993917 2.3631178434734466)"><path d="M1.07 0.72 C10.81 1.31, 48.92 4.18, 58.55 4.68 M0.18 0.05 C9.71 0.78, 47.77 1.98, 57.42 2.76" stroke="#000000" stroke-width="1" fill="none"></path></g><g transform="translate(150 480.0361030125032) rotate(0 29.36567339993917 2.3631178434734466)"><path d="M30.37 10.78 C38.58 8.38, 45.8 7.57, 58.95 2.32 M29.76 10.6 C34.62 8.26, 41.86 7.28, 56.63 2.54" stroke="#000000" stroke-width="1" fill="none"></path></g><g transform="translate(150 480.0361030125032) rotate(0 29.36567339993917 2.3631178434734466)"><path d="M31.44 -9.39 C39.51 -5.46, 46.39 0.05, 58.95 2.32 M30.84 -9.57 C35.25 -7.44, 42.26 -3.96, 56.63 2.54" stroke="#000000" stroke-width="1" fill="none"></path></g></g><g stroke-linecap="round"><g transform="translate(250 480.0361030125032) rotate(0 28.89095815973883 -0.0029085348005537526)"><path d="M0.15 -0.01 C9.89 0.29, 49.23 1.07, 59.02 1.06 M-1.24 -1.06 C8.37 -1.04, 48.53 -1.02, 58.48 -0.67" stroke="#000000" stroke-width="1" fill="none"></path></g><g transform="translate(250 480.0361030125032) rotate(0 28.89095815973883 -0.0029085348005537526)"><path d="M30.95 10.18 C41.81 6.66, 49.46 0.29, 58.26 -0.4 M30.4 8.07 C38.16 5.73, 45.28 3.13, 59.28 -1.4" stroke="#000000" stroke-width="1" fill="none"></path></g><g transform="translate(250 480.0361030125032) rotate(0 28.89095815973883 -0.0029085348005537526)"><path d="M31.26 -9.74 C41.89 -6.37, 49.43 -5.85, 58.26 -0.4 M30.7 -11.84 C38.41 -9.15, 45.45 -6.72, 59.28 -1.4" stroke="#000000" stroke-width="1" fill="none"></path></g></g><g stroke-linecap="round"><g transform="translate(350 480.0361030125032) rotate(0 28.21971495303842 0.9273689370947977)"><path d="M0.72 0.78 C10.31 1, 47.52 1.82, 56.8 1.87 M-0.36 0.15 C9.18 -0.02, 46.8 -0.16, 56.15 0.23" stroke="#000000" stroke-width="1" fill="none"></path></g><g transform="translate(350 480.0361030125032) rotate(0 28.21971495303842 0.9273689370947977)"><path d="M30.89 10.39 C37.43 7.36, 42.49 3.04, 54.86 -0.88 M30.44 8.7 C39.56 6.92, 49.65 3.36, 55.99 -0.35" stroke="#000000" stroke-width="1" fill="none"></path></g><g transform="translate(350 480.0361030125032) rotate(0 28.21971495303842 0.9273689370947977)"><path d="M31.18 -8.84 C37.74 -7.26, 42.73 -6.96, 54.86 -0.88 M30.73 -10.54 C39.6 -5.11, 49.59 -1.45, 55.99 -0.35" stroke="#000000" stroke-width="1" fill="none"></path></g></g><g transform="translate(66.23460681785946 456.66666666666606) rotate(0 6.5 12.5)"><text x="0" y="18" font-family="Virgil, Segoe UI Emoji" font-size="20px" fill="#000000" text-anchor="start" style="white-space: pre;" direction="ltr">a</text></g><g transform="translate(164.9012734845262 459.33333333333303) rotate(0 6.5 12.5)"><text x="0" y="18" font-family="Virgil, Segoe UI Emoji" font-size="20px" fill="#000000" text-anchor="start" style="white-space: pre;" direction="ltr">a</text></g><g transform="translate(268.23460681785946 458) rotate(0 5 12.5)"><text x="0" y="18" font-family="Virgil, Segoe UI Emoji" font-size="20px" fill="#000000" text-anchor="start" style="white-space: pre;" direction="ltr">b</text></g><g transform="translate(362.23460681785946 461.33333333333303) rotate(0 5 12.5)"><text x="0" y="18" font-family="Virgil, Segoe UI Emoji" font-size="20px" fill="#000000" text-anchor="start" style="white-space: pre;" direction="ltr">b</text></g><g stroke-linecap="round" transform="translate(530 460.0361030125032) rotate(0 20 20)"><path d="M3.87 8.66 C3.87 8.66, 3.87 8.66, 3.87 8.66 M3.87 8.66 C3.87 8.66, 3.87 8.66, 3.87 8.66 M1.15 17.53 C7.08 13.13, 7.01 11.23, 17.27 -0.02 M2.24 17.19 C5.51 13.07, 8.66 9.05, 17.07 -0.23 M1.59 21.76 C7.77 16.85, 15.76 7.19, 22.22 2.4 M2.45 23.58 C7.92 15.81, 13.85 8.52, 20.99 1.05 M3.37 29.08 C12.8 20.39, 19.37 9.67, 26.37 0.46 M2.87 27.37 C11.17 18.23, 18.92 9.8, 25.04 1.67 M4.53 30.43 C9.7 25.8, 14.88 21.16, 27.89 1.46 M4.5 31.29 C14.62 21.12, 23.13 11.15, 29.63 3 M8.74 36.48 C12.73 27.6, 18.44 21.95, 33.62 6.87 M8.11 36.07 C15.15 28.05, 20.72 19.17, 32.06 5.33 M11.8 35.98 C16.68 31.52, 22.33 24.35, 34.81 8.96 M11.6 36.55 C19.12 26.62, 27.5 17.37, 36.05 9.2 M15.51 39.81 C21.98 29.31, 29.96 23.38, 39.65 11.54 M13.58 38.37 C22.36 30.39, 29.5 21.06, 38.99 11.84 M20.07 40.6 C24.28 33.73, 31.08 23.81, 42.43 14.1 M18.59 39.37 C27.55 30.34, 33.7 21.77, 40.96 14.13 M25.92 40.16 C30.72 32.96, 34.99 24.14, 41.38 19.05 M24.72 39.73 C29.83 34.45, 33.98 29.48, 41.29 19.43 M6.08 34.16 C6.08 34.16, 6.08 34.16, 6.08 34.16 M6.08 34.16 C6.08 34.16, 6.08 34.16, 6.08 34.16 M19.62 41.48 C13.43 36.57, 9.17 30.49, 1.7 27.31 M19.23 38.91 C14.43 35.51, 9.59 31.57, 1.75 25.61 M23.74 39.54 C16.2 32.96, 11.35 27.69, 0.64 18.95 M23.7 38.99 C16.91 31.56, 10.16 26.64, 1.37 20.32 M29.72 37.2 C20.09 27.77, 6.25 21.64, 1.19 13.61 M28.07 37.59 C18.78 30.58, 10.37 20.95, 3.17 16.15 M33.03 34.71 C23.32 26.2, 11.36 14.62, 4.57 9.71 M31.67 36.86 C23.51 27.63, 13.58 19.1, 2.89 11.39 M33.56 31.38 C28.64 25.29, 23.06 19.93, 5.81 6.08 M35.27 32.47 C27.27 26.75, 18.8 18.78, 5.05 7.64 M35.01 30.1 C27.81 18.86, 16.98 12.03, 10.49 4.48 M37.19 29.86 C29.44 23.06, 22.89 18.5, 9.55 5.11 M39.91 25.86 C29.14 17.63, 17.39 7.24, 13.59 2.17 M40.13 25.49 C33.38 20.61, 27.03 15.03, 11.28 0.87 M40.4 22.35 C33.78 13.13, 22.95 5.91, 14.06 -0.94 M42.76 23.07 C32.52 13.52, 21.64 5.41, 14.44 -1.28 M42.07 17.09 C34.33 9.95, 23.75 2.03, 18.6 -4.43 M41.3 17.56 C35.27 11.33, 27.37 6.37, 19.14 -3.2" stroke="#868e96" stroke-width="0.5" fill="none"></path><path d="M29.11 2.5 C32.77 3.98, 36.17 8.37, 37.91 12.29 C39.65 16.21, 40.69 21.85, 39.55 26.04 C38.4 30.23, 34.61 35.13, 31.05 37.42 C27.49 39.72, 22.38 40.38, 18.19 39.82 C14 39.25, 8.84 37.12, 5.91 34.01 C2.99 30.9, 0.99 25.38, 0.63 21.17 C0.28 16.95, 1.25 12.26, 3.8 8.74 C6.35 5.22, 11.07 0.72, 15.92 0.04 C20.77 -0.64, 29.93 3.37, 32.92 4.67 C35.91 5.98, 34.23 7.71, 33.88 7.89 M11.53 2.25 C15.09 0.43, 21.54 0.77, 25.4 1.56 C29.26 2.35, 32.25 3.97, 34.67 7 C37.09 10.03, 39.88 15.37, 39.9 19.74 C39.93 24.1, 37.7 29.94, 34.81 33.18 C31.92 36.43, 26.6 38.79, 22.56 39.22 C18.52 39.65, 13.96 38.05, 10.59 35.76 C7.22 33.46, 3.72 29.6, 2.33 25.47 C0.93 21.33, 0.72 14.92, 2.21 10.96 C3.71 7, 10.02 3.02, 11.3 1.7 C12.58 0.38, 9.82 2.86, 9.91 3.04" stroke="#c92a2a" stroke-width="1" fill="none"></path></g><g transform="translate(23 467.5361030125032) rotate(0 7 12.5)"><text x="7" y="18" font-family="Virgil, Segoe UI Emoji" font-size="20px" fill="#000000" text-anchor="middle" style="white-space: pre;" direction="ltr">0</text></g><g transform="translate(127.5 467.5361030125032) rotate(0 2.5 12.5)"><text x="2.5" y="18" font-family="Virgil, Segoe UI Emoji" font-size="20px" fill="#000000" text-anchor="middle" style="white-space: pre;" direction="ltr">1</text></g><g transform="translate(223 467.5361030125032) rotate(0 7 12.5)"><text x="7" y="18" font-family="Virgil, Segoe UI Emoji" font-size="20px" fill="#000000" text-anchor="middle" style="white-space: pre;" direction="ltr">2</text></g><g transform="translate(323 467.5361030125032) rotate(0 7 12.5)"><text x="7" y="18" font-family="Virgil, Segoe UI Emoji" font-size="20px" fill="#000000" text-anchor="middle" style="white-space: pre;" direction="ltr">3</text></g><g transform="translate(423.5 467.5361030125032) rotate(0 6.5 12.5)"><text x="6.5" y="18" font-family="Virgil, Segoe UI Emoji" font-size="20px" fill="#000000" text-anchor="middle" style="white-space: pre;" direction="ltr">4</text></g><g transform="translate(533.5 467.5361030125032) rotate(0 16.5 12.5)"><text x="16.5" y="18" font-family="Virgil, Segoe UI Emoji" font-size="20px" fill="#c92a2a" text-anchor="middle" style="white-space: pre;" direction="ltr">fail</text></g><g stroke-linecap="round"><g transform="translate(450 480.0361030125032) rotate(0 38.34689516591425 -9.96470941418329)"><path d="M0.84 -1 C3.63 -4.52, 6.96 -17.89, 16.45 -20.78 C25.93 -23.67, 47.74 -22.3, 57.75 -18.37 C67.75 -14.44, 73.27 -0.55, 76.49 2.79 M-0.18 1.08 C2.44 -2.35, 5.66 -16.24, 15.26 -19.81 C24.86 -23.38, 47.16 -23.8, 57.42 -20.36 C67.69 -16.92, 73.77 -2.89, 76.88 0.84" stroke="#000000" stroke-width="1" fill="none"></path></g><g transform="translate(450 480.0361030125032) rotate(0 38.34689516591425 -9.96470941418329)"><path d="M64.38 -8.2 C67.4 -4.43, 72.54 -2.81, 78.24 1.82 M65.86 -7.28 C69.02 -4.99, 73.06 -2.45, 76.41 0.56" stroke="#000000" stroke-width="1" fill="none"></path></g><g transform="translate(450 480.0361030125032) rotate(0 38.34689516591425 -9.96470941418329)"><path d="M72.49 -13.48 C73.31 -8.22, 76.24 -5.16, 78.24 1.82 M73.97 -12.56 C74.71 -8.7, 76.32 -4.58, 76.41 0.56" stroke="#000000" stroke-width="1" fill="none"></path></g></g><g stroke-linecap="round"><g transform="translate(450 480.0361030125032) rotate(0 37.57284321787358 11.260216215631317)"><path d="M-0.81 -0.8 C2.28 2.42, 8.55 16.26, 17.95 19.65 C27.34 23.03, 45.92 21.92, 55.58 19.53 C65.24 17.13, 72.41 8.03, 75.89 5.3 M0.97 1.39 C4.48 4.8, 11.24 17.96, 20.16 21.19 C29.07 24.43, 45.17 23.78, 54.47 20.79 C63.77 17.8, 72.52 6.24, 75.95 3.26" stroke="#000000" stroke-width="1" fill="none"></path></g><g transform="translate(450 480.0361030125032) rotate(0 37.57284321787358 11.260216215631317)"><path d="M69.96 13.76 C72.09 11.2, 73.27 8.61, 77 3.47 M70.49 14.35 C72.2 12.9, 72.55 9.95, 76.22 3.39" stroke="#000000" stroke-width="1" fill="none"></path></g><g transform="translate(450 480.0361030125032) rotate(0 37.57284321787358 11.260216215631317)"><path d="M63.77 7.76 C67.49 6.76, 70.23 5.69, 77 3.47 M64.3 8.35 C67.25 8.09, 68.87 6.36, 76.22 3.39" stroke="#000000" stroke-width="1" fill="none"></path></g></g><g transform="translate(483.11730340892973 477.35138483958417) rotate(0 5 12.5)"><text x="5" y="18" font-family="Virgil, Segoe UI Emoji" font-size="20px" fill="#000000" text-anchor="middle" style="white-space: pre;" direction="ltr">b</text></g><g transform="translate(482.901273484526 433.33333333333303) rotate(0 6.5 12.5)"><text x="0" y="18" font-family="Virgil, Segoe UI Emoji" font-size="20px" fill="#000000" text-anchor="start" style="white-space: pre;" direction="ltr">a</text></g><g stroke-linecap="round"><g transform="translate(330 500.0361030125032) rotate(0 97.90317790883194 15.493490999159349)"><path d="M0.02 0.79 C9.73 6.94, 31.92 31.42, 57.45 37.78 C82.97 44.13, 129.96 47.58, 153.17 38.93 C176.38 30.28, 189.56 -5.29, 196.73 -14.15 M-1.43 0.16 C8.24 6.34, 30.63 32.07, 56.79 38.69 C82.94 45.31, 132.1 48.6, 155.51 39.88 C178.91 31.16, 190.71 -4.57, 197.24 -13.62" stroke="#000000" stroke-width="1" fill="none"></path></g><g transform="translate(330 500.0361030125032) rotate(0 97.90317790883194 15.493490999159349)"><path d="M194.25 16.98 C191.74 7.38, 193.55 3.08, 195.39 -13.7 M193.38 15.84 C193.05 10.44, 194.8 4.42, 197.12 -14.48" stroke="#000000" stroke-width="1" fill="none"></path></g><g transform="translate(330 500.0361030125032) rotate(0 97.90317790883194 15.493490999159349)"><path d="M176.18 7.26 C177.94 -0.07, 183.96 -2.12, 195.39 -13.7 M175.3 6.13 C178.7 2.8, 184.11 -1.26, 197.12 -14.48" stroke="#000000" stroke-width="1" fill="none"></path></g></g><g transform="translate(430 520.0361030125032) rotate(0 6.5 12.5)"><text x="6.5" y="18" font-family="Virgil, Segoe UI Emoji" font-size="20px" fill="#000000" text-anchor="middle" style="white-space: pre;" direction="ltr">a</text></g><g stroke-linecap="round"><g transform="translate(230 460.0361030125032) rotate(0 89.57666480470641 -11.739566118367293)"><path d="M-0.85 0 C10.75 -3.43, 39.3 -21.18, 69.03 -21.71 C98.76 -22.23, 159.16 -6.42, 177.54 -3.17 M0.91 -1.06 C12.43 -4.74, 38.41 -23.33, 68.26 -23.48 C98.1 -23.62, 161.37 -5.12, 180 -1.93" stroke="#000000" stroke-width="1" fill="none"></path></g><g transform="translate(230 460.0361030125032) rotate(0 89.57666480470641 -11.739566118367293)"><path d="M150.19 2.37 C158.86 -0.31, 164.98 1.72, 181.36 -1.91 M150.05 2.66 C161.78 0.12, 171.63 -0.7, 179.15 -2.27" stroke="#000000" stroke-width="1" fill="none"></path></g><g transform="translate(230 460.0361030125032) rotate(0 89.57666480470641 -11.739566118367293)"><path d="M154.75 -17.64 C162.09 -15.31, 167.06 -8.26, 181.36 -1.91 M154.61 -17.35 C164.58 -12.69, 172.8 -6.33, 179.15 -2.27" stroke="#000000" stroke-width="1" fill="none"></path></g></g><g transform="translate(300.9012734845262 414.66666666666606) rotate(0 6.5 12.5)"><text x="0" y="18" font-family="Virgil, Segoe UI Emoji" font-size="20px" fill="#000000" text-anchor="start" style="white-space: pre;" direction="ltr">a</text></g><g stroke-linecap="round"><g transform="translate(130 460.0361030125032) rotate(0 146.24045685517194 -33.02333226031942)"><path d="M-1.14 -1.13 C18.14 -11.09, 77.22 -49.79, 116.51 -59.64 C155.8 -69.49, 205.1 -69.04, 234.62 -60.22 C264.14 -51.39, 283.83 -15.71, 293.63 -6.69 M0.46 0.88 C19.54 -8.93, 76.28 -48.47, 115.71 -58.42 C155.13 -68.37, 207.38 -67.54, 237.02 -58.82 C266.66 -50.1, 283.87 -14.92, 293.55 -6.1" stroke="#000000" stroke-width="1" fill="none"></path></g><g transform="translate(130 460.0361030125032) rotate(0 146.24045685517194 -33.02333226031942)"><path d="M266.06 -21.27 C276.3 -17.36, 286.91 -11.09, 291.91 -7.52 M268.11 -21.82 C274.14 -18.23, 280.93 -12.45, 293.5 -6.15" stroke="#000000" stroke-width="1" fill="none"></path></g><g transform="translate(130 460.0361030125032) rotate(0 146.24045685517194 -33.02333226031942)"><path d="M282.09 -34.08 C286.5 -25.64, 291.25 -14.7, 291.91 -7.52 M284.15 -34.63 C285.97 -27.64, 288.45 -18.41, 293.5 -6.15" stroke="#000000" stroke-width="1" fill="none"></path></g></g><g transform="translate(288.9012734845262 370) rotate(0 6.5 12.5)"><text x="0" y="18" font-family="Virgil, Segoe UI Emoji" font-size="20px" fill="#000000" text-anchor="start" style="white-space: pre;" direction="ltr">a</text></g><g stroke-linecap="round"><g transform="translate(30 500.0361030125032) rotate(0 98.29041143451411 22.968132374642664)"><path d="M0.17 0.33 C12.15 6.53, 48.54 31.09, 70.93 38.36 C93.33 45.62, 113.4 49.33, 134.54 43.94 C155.68 38.54, 187.04 12.3, 197.78 5.99 M-1.2 -0.55 C11.25 6.32, 50.84 32.47, 73.31 39.58 C95.77 46.68, 112.83 48.04, 133.58 42.1 C154.33 36.17, 187.06 10.43, 197.79 3.97" stroke="#000000" stroke-width="1" fill="none"></path></g><g transform="translate(30 500.0361030125032) rotate(0 98.29041143451411 22.968132374642664)"><path d="M180.77 27.23 C182.86 22.28, 189.38 16.76, 199.49 5.22 M179.26 27.97 C187.74 18.99, 193.31 9.01, 198.52 4.96" stroke="#000000" stroke-width="1" fill="none"></path></g><g transform="translate(30 500.0361030125032) rotate(0 98.29041143451411 22.968132374642664)"><path d="M169.24 10.25 C174.04 9.04, 183.1 7.27, 199.49 5.22 M167.73 11 C180.7 8.61, 190.76 5.25, 198.52 4.96" stroke="#000000" stroke-width="1" fill="none"></path></g></g><g transform="translate(130 520.0361030125032) rotate(0 5 12.5)"><text x="5" y="18" font-family="Virgil, Segoe UI Emoji" font-size="20px" fill="#000000" text-anchor="middle" style="white-space: pre;" direction="ltr">b</text></g><g transform="translate(10 10) rotate(0 136.5 22.5)"><text x="0" y="32" font-family="Virgil, Segoe UI Emoji" font-size="36px" fill="#000000" text-anchor="start" style="white-space: pre;" direction="ltr">AtCoder 027 E</text></g><g transform="translate(10 70) rotate(0 356 137.5)"><text x="0" y="18" font-family="Virgil, Segoe UI Emoji" font-size="20px" fill="#000000" text-anchor="start" style="white-space: pre;" direction="ltr">Like a Suffix Automaton or Sub-string Automaton, we can create</text><text x="0" y="43" font-family="Virgil, Segoe UI Emoji" font-size="20px" fill="#000000" text-anchor="start" style="white-space: pre;" direction="ltr">a special automaton for `s` accepting all a/b strings that can be</text><text x="0" y="68" font-family="Virgil, Segoe UI Emoji" font-size="20px" fill="#000000" text-anchor="start" style="white-space: pre;" direction="ltr">obtained by transforming `s`.</text><text x="0" y="93" font-family="Virgil, Segoe UI Emoji" font-size="20px" fill="#000000" text-anchor="start" style="white-space: pre;" direction="ltr"></text><text x="0" y="118" font-family="Virgil, Segoe UI Emoji" font-size="20px" fill="#000000" text-anchor="start" style="white-space: pre;" direction="ltr">The automaton consist of |`s`| + 2 vertices, including the vertex `fail`.</text><text x="0" y="143" font-family="Virgil, Segoe UI Emoji" font-size="20px" fill="#000000" text-anchor="start" style="white-space: pre;" direction="ltr">Let's build the automaton from right to left. Assume that we are on</text><text x="0" y="168" font-family="Virgil, Segoe UI Emoji" font-size="20px" fill="#000000" text-anchor="start" style="white-space: pre;" direction="ltr">vertex `u`, and the current character is `c`. Add edges as follow:</text><text x="0" y="193" font-family="Virgil, Segoe UI Emoji" font-size="20px" fill="#000000" text-anchor="start" style="white-space: pre;" direction="ltr">  - next(u, c) = u + 1</text><text x="0" y="218" font-family="Virgil, Segoe UI Emoji" font-size="20px" fill="#000000" text-anchor="start" style="white-space: pre;" direction="ltr">  - next(u, !c) = next(u + 1, c)</text><text x="0" y="243" font-family="Virgil, Segoe UI Emoji" font-size="20px" fill="#000000" text-anchor="start" style="white-space: pre;" direction="ltr"></text><text x="0" y="268" font-family="Virgil, Segoe UI Emoji" font-size="20px" fill="#000000" text-anchor="start" style="white-space: pre;" direction="ltr">For example, the automaton for `aabb` looks like this:</text></g><g transform="translate(10 570) rotate(0 373.5 125)"><text x="0" y="18" font-family="Virgil, Segoe UI Emoji" font-size="20px" fill="#000000" text-anchor="start" style="white-space: pre;" direction="ltr"></text><text x="0" y="43" font-family="Virgil, Segoe UI Emoji" font-size="20px" fill="#000000" text-anchor="start" style="white-space: pre;" direction="ltr">Then we need to determine the ending(accepting) vertices.</text><text x="0" y="68" font-family="Virgil, Segoe UI Emoji" font-size="20px" fill="#000000" text-anchor="start" style="white-space: pre;" direction="ltr">The conclusion is, for all `s` except `aba...`, replacing all `a` with 1 and</text><text x="0" y="93" font-family="Virgil, Segoe UI Emoji" font-size="20px" fill="#000000" text-anchor="start" style="white-space: pre;" direction="ltr">`b` with 2, if a the sum of a suffix modulo 3 is 0, it can be removed.</text><text x="0" y="118" font-family="Virgil, Segoe UI Emoji" font-size="20px" fill="#000000" text-anchor="start" style="white-space: pre;" direction="ltr"></text><text x="0" y="143" font-family="Virgil, Segoe UI Emoji" font-size="20px" fill="#000000" text-anchor="start" style="white-space: pre;" direction="ltr">Proof: find the last occurrence of two adjacent same character, and take</text><text x="0" y="168" font-family="Virgil, Segoe UI Emoji" font-size="20px" fill="#000000" text-anchor="start" style="white-space: pre;" direction="ltr">the suffix starting at it, for example, `aabababab`. </text><text x="0" y="193" font-family="Virgil, Segoe UI Emoji" font-size="20px" fill="#000000" text-anchor="start" style="white-space: pre;" direction="ltr">After two operations, this suffix become `aababab`, and this can be seen</text><text x="0" y="218" font-family="Virgil, Segoe UI Emoji" font-size="20px" fill="#000000" text-anchor="start" style="white-space: pre;" direction="ltr">as truncate the last two characters. Repeat this, and the unnecessary</text><text x="0" y="243" font-family="Virgil, Segoe UI Emoji" font-size="20px" fill="#000000" text-anchor="start" style="white-space: pre;" direction="ltr">suffix will be removed.</text></g></svg>